<?xml version="1.0" encoding="utf-8"?>
<!-- Generator: Adobe Illustrator 18.0.0, SVG Export Plug-In . SVG Version: 6.00 Build 0)  -->
<!DOCTYPE svg PUBLIC "-//W3C//DTD SVG 1.1//EN" "http://www.w3.org/Graphics/SVG/1.1/DTD/svg11.dtd">
<svg version="1.1" id="Artwork" xmlns="http://www.w3.org/2000/svg" xmlns:xlink="http://www.w3.org/1999/xlink" x="0px" y="0px"
	 viewBox="0 0 800 800" enable-background="new 0 0 800 800" xml:space="preserve">
<g>
	<path d="M655.7,508h-44.1V297.4c0-103.4-74.8-189.5-173.6-207.3c0.2-1.1,0.2-2.2,0.2-3.4c0-20.9-17-38-38.1-38s-38.1,17-38.1,38
		c0,1.1,0,2.2,0.2,3.4C263.5,107.9,188.5,194,188.5,297.4V508h-44.1c-7.8,0-14.1,6.3-14.1,14.1v75c0,7.8,6.3,14.1,14.1,14.1h511.1
		c7.8,0,14.1-6.3,14.1-14.1v-75C669.8,514.3,663.4,508,655.7,508z"/>
	<path d="M397.7,751.3c45.3,0,82-41.4,82-92.7H315.7C315.7,709.9,352.4,751.3,397.7,751.3z"/>
</g>
</svg>
