<?xml version="1.0" encoding="utf-8"?>
<!-- Generator: Adobe Illustrator 17.1.0, SVG Export Plug-In . SVG Version: 6.00 Build 0)  -->
<!DOCTYPE svg PUBLIC "-//W3C//DTD SVG 1.1//EN" "http://www.w3.org/Graphics/SVG/1.1/DTD/svg11.dtd">
<svg version="1.1" id="Artwork" xmlns="http://www.w3.org/2000/svg" xmlns:xlink="http://www.w3.org/1999/xlink" x="0px" y="0px"
	 viewBox="0 0 512 512" enable-background="new 0 0 512 512" xml:space="preserve">
<g>
	<path d="M256,31C131.7,31,31,131.7,31,256s100.7,225,225,225s225-100.7,225-225S380.3,31,256,31z M256.2,416.7
		c-88.6,0-160.5-71.9-160.5-160.5S167.6,95.7,256.2,95.7s160.5,71.9,160.5,160.5S344.9,416.7,256.2,416.7z"/>
	<path d="M338.5,241h-66v-66c0-12.4-10.1-22.5-22.5-22.5c-12.4,0-22.5,10.1-22.5,22.5v88.5c0,6.2,2.5,11.8,6.6,15.9l0,0
		c4.1,4.1,9.7,6.6,15.9,6.6h88.5c12.4,0,22.5-10.1,22.5-22.5C361,251.1,350.9,241,338.5,241z"/>
</g>
</svg>
