<?xml version="1.0" encoding="utf-8"?>
<!-- Generator: Adobe Illustrator 18.0.0, SVG Export Plug-In . SVG Version: 6.00 Build 0)  -->
<!DOCTYPE svg PUBLIC "-//W3C//DTD SVG 1.1//EN" "http://www.w3.org/Graphics/SVG/1.1/DTD/svg11.dtd">
<svg version="1.1" id="Artwork" xmlns="http://www.w3.org/2000/svg" xmlns:xlink="http://www.w3.org/1999/xlink" x="0px" y="0px"
	 viewBox="0 0 800 800" enable-background="new 0 0 800 800" xml:space="preserve">
<path d="M606.6,48.4H193.2c-15.5,0-28.1,12.5-28.1,28.1v646.9c0,15.5,12.7,28.1,28.1,28.1h413.6c15.5,0,28.1-12.5,28.1-28.1V76.6
	C634.8,61.1,622.3,48.4,606.6,48.4z M212,106.6c0-6.3,5-11.3,11.2-11.3h351.7c6.3,0,11.3,5,11.3,11.3v165.2c0,6.3-5,11.3-11.3,11.3
	H223.2c-6.3,0-11.2-5-11.2-11.3V106.6z M586.6,340.9v71.2c0,6.3-5,11.3-11.3,11.3h-71.2c-6.3,0-11.3-5-11.3-11.3v-71.3
	c0-6.3,5-11.3,11.3-11.3h71.2C581.6,329.7,586.6,334.7,586.6,340.9z M305.7,693.4c0,6.3-5,11.3-11.3,11.3h-71.3
	c-6.3,0-11.2-5-11.2-11.3v-71.3c0-6.3,5-11.3,11.2-11.3h71.3c6.3,0,11.3,5,11.3,11.3V693.4z M305.7,552.8c0,6.3-5,11.3-11.3,11.3
	h-71.3c-6.3,0-11.2-5-11.2-11.3v-71.3c0-6.3,5-11.3,11.2-11.3h71.3c6.3,0,11.3,5,11.3,11.3V552.8z M305.7,412.2
	c0,6.3-5,11.3-11.3,11.3h-71.3c-6.3,0-11.2-5-11.2-11.3v-71.3c0-6.3,5-11.3,11.2-11.3h71.3c6.3,0,11.3,5,11.3,11.3V412.2z
	 M446.3,693.4c0,6.3-5,11.3-11.3,11.3h-71.3c-6.3,0-11.3-5-11.3-11.3v-71.3c0-6.3,5-11.3,11.3-11.3h71.3c6.3,0,11.3,5,11.3,11.3
	V693.4z M446.3,552.8c0,6.3-5,11.3-11.3,11.3h-71.3c-6.3,0-11.3-5-11.3-11.3v-71.3c0-6.3,5-11.3,11.3-11.3h71.3
	c6.3,0,11.3,5,11.3,11.3V552.8z M446.3,412.2c0,6.3-5,11.3-11.3,11.3h-71.3c-6.3,0-11.3-5-11.3-11.3v-71.3c0-6.3,5-11.3,11.3-11.3
	h71.3c6.3,0,11.3,5,11.3,11.3V412.2z M492.9,481.6c0-6.3,5-11.3,11.3-11.3h71.3c6.3,0,11.3,5,11.3,11.3v71.2c0,6.3-5,11.3-11.3,11.3
	h-71.3c-6.3,0-11.3-5-11.3-11.3V481.6z M587,693.4c0,6.3-5,11.3-11.3,11.3h-71.3c-6.3,0-11.3-5-11.3-11.3v-71.3
	c0-6.3,5-11.3,11.3-11.3h71.3c6.3,0,11.3,5,11.3,11.3V693.4z"/>
</svg>
