<?xml version="1.0" encoding="utf-8"?>
<!-- Generator: Adobe Illustrator 18.0.0, SVG Export Plug-In . SVG Version: 6.00 Build 0)  -->
<!DOCTYPE svg PUBLIC "-//W3C//DTD SVG 1.1//EN" "http://www.w3.org/Graphics/SVG/1.1/DTD/svg11.dtd">
<svg version="1.1" id="Artwork" xmlns="http://www.w3.org/2000/svg" xmlns:xlink="http://www.w3.org/1999/xlink" x="0px" y="0px"
	 viewBox="0 0 800 800" enable-background="new 0 0 800 800" xml:space="preserve">
<path d="M719.7,404.3L302,163.2c-14.2-8.3-38.9-13-55.2-10.5L85.9,176.8c-16.3,2.5-24.5,16.7-18.4,32l59.7,151.4
	c6.1,15.3,22.5,34.4,36.7,42.5l417.5,241.1c14.2,8.3,32.3,3.4,40.6-10.9l108.6-188C738.7,430.7,733.9,412.5,719.7,404.3z
	 M268.6,302.1c-17.5,30.5-56.6,40.8-87.2,23.1c-30.6-17.7-41.1-56.7-23.6-87s56.6-40.8,87.2-23.1S286.1,271.7,268.6,302.1z"/>
</svg>
