<?xml version="1.0" encoding="utf-8"?>
<!-- Generator: Adobe Illustrator 18.0.0, SVG Export Plug-In . SVG Version: 6.00 Build 0)  -->
<!DOCTYPE svg PUBLIC "-//W3C//DTD SVG 1.1//EN" "http://www.w3.org/Graphics/SVG/1.1/DTD/svg11.dtd">
<svg version="1.1" id="Artwork" xmlns="http://www.w3.org/2000/svg" xmlns:xlink="http://www.w3.org/1999/xlink" x="0px" y="0px"
	 viewBox="0 0 800 800" enable-background="new 0 0 800 800" xml:space="preserve">
<g>
	<path d="M766.8,749.6l-10.3-59.4c-1.8-10.9-9.8-13.4-17.6-5.6l-53.6,53.6c-7.8,7.8-5.4,15.9,5.6,17.6l59.4,10.3
		C761.2,768,768.6,760.6,766.8,749.6z"/>
	<path d="M217.9,290.3c-7.6-7.6-19.9-7.6-27.2,0l-55.4,55.4c-7.6,7.6-7.6,19.9,0,27.2l312.4,312.4c22.8,22.8,59.8,22.8,82.6,0
		c22.8-22.8,22.8-59.8,0-82.6L217.9,290.3z"/>
	<path d="M686.4,449.8l-314-314c-7.6-7.6-19.9-7.6-27.2,0l-53.4,53.4c-7.6,7.6-7.6,19.9,0,27.2l314,314l0,0
		c22.3,22.3,58.5,22.3,80.8,0C708.9,508,708.7,472.1,686.4,449.8z"/>
	<path d="M306.3,70.4l-30.8-30.8c-7.8-7.8-20.5-7.8-28.4,0L38.8,247.9c-7.8,7.8-7.8,20.5,0,28.4l30.8,30.8c7.8,7.8,20.5,7.8,28.4,0
		L306.3,98.7C314.1,90.9,314.1,78.2,306.3,70.4z"/>
</g>
</svg>
