<?xml version="1.0" encoding="utf-8"?>
<!-- Generator: Adobe Illustrator 18.0.0, SVG Export Plug-In . SVG Version: 6.00 Build 0)  -->
<!DOCTYPE svg PUBLIC "-//W3C//DTD SVG 1.1//EN" "http://www.w3.org/Graphics/SVG/1.1/DTD/svg11.dtd">
<svg version="1.1" id="Artwork" xmlns="http://www.w3.org/2000/svg" xmlns:xlink="http://www.w3.org/1999/xlink" x="0px" y="0px"
	 viewBox="0 0 800 800" enable-background="new 0 0 800 800" xml:space="preserve">
<path d="M498.7,400.5L694.1,205c16.4-16.4,16.4-43.1,0-59.7l-39.8-39.8c-16.4-16.4-43.1-16.4-59.7,0L399.2,301L204.9,106.7
	c-16.4-16.4-43.1-16.4-59.7,0l-39.8,39.8c-16.4,16.4-16.4,43.1,0,59.7l194.3,194.3L105.6,594.5c-16.4,16.4-16.4,43.1,0,59.7
	l39.8,39.8c16.4,16.4,43.1,16.4,59.7,0L399.2,500l194.5,194.5c16.4,16.4,43.1,16.4,59.7,0l39.8-39.8c16.4-16.4,16.4-43.1,0-59.7
	L498.7,400.5z"/>
</svg>
