<?xml version="1.0" encoding="utf-8"?>
<!-- Generator: Adobe Illustrator 18.0.0, SVG Export Plug-In . SVG Version: 6.00 Build 0)  -->
<!DOCTYPE svg PUBLIC "-//W3C//DTD SVG 1.1//EN" "http://www.w3.org/Graphics/SVG/1.1/DTD/svg11.dtd">
<svg version="1.1" id="Artwork" xmlns="http://www.w3.org/2000/svg" xmlns:xlink="http://www.w3.org/1999/xlink" x="0px" y="0px"
	 viewBox="0 0 800 800" enable-background="new 0 0 800 800" xml:space="preserve">
<g>
	<g>
		<path d="M416.1,372.2c-20.6-10-40.9-15-40.9-31.4c0-14.7,8.6-19.1,22.3-19.1c9.7,0,18.1,3.6,25.9,9.7c5.9,5,12.7,8.3,20.9,8.3
			c15.3,0,26.4-14.4,26.4-28.1c0-10.3-5.3-19.1-15-25.9c-8.3-6.3-17.5-11.1-27-14.4v-13.1c0-12.7-10.3-23-23-23h-16.7
			c-12.7,0-23,10.3-23,23v14.4c-29.2,12.3-47,41.1-47,69.4c0,45,40,64.1,73.6,79.7c26.7,12.3,35.6,20,35.6,31.4
			c0,19.1-15.9,28.6-34.4,28.6c-10.6,0-20.3-1.2-32-9.7c-5.9-5-12.8-9.1-21.1-9.1c-15.3,0-26.4,14.4-26.4,28.1
			c0,10,5,18.1,14.2,25.2c10.2,7.8,25.6,14.5,37.5,17.7v10c0,12.7,10.3,23,23,23h16.7c12.7,0,23-10.3,23-23v-11.9
			c33.6-11.3,56.6-39.5,56.6-80.6C485.2,410.2,456.6,391.9,416.1,372.2z"/>
		<path d="M400,87.5C227.3,87.5,87.5,227.3,87.5,400S227.3,712.5,400,712.5S712.5,572.7,712.5,400S572.7,87.5,400,87.5z
			 M400.3,623.1c-123.1,0-223-99.8-223-223s99.8-223,223-223s223,99.8,223,223S523.4,623.1,400.3,623.1z"/>
	</g>
</g>
</svg>
