<?xml version="1.0" encoding="utf-8"?>
<!-- Generator: Adobe Illustrator 18.0.0, SVG Export Plug-In . SVG Version: 6.00 Build 0)  -->
<!DOCTYPE svg PUBLIC "-//W3C//DTD SVG 1.1//EN" "http://www.w3.org/Graphics/SVG/1.1/DTD/svg11.dtd">
<svg version="1.1" id="Artwork" xmlns="http://www.w3.org/2000/svg" xmlns:xlink="http://www.w3.org/1999/xlink" x="0px" y="0px"
	 viewBox="0 0 800 800" enable-background="new 0 0 800 800" xml:space="preserve">
<path d="M749.8,439.1l-52.8-80.5c-2.8-4.4-9.4-7.8-14.5-7.8H354.8C334.1,288.1,275.1,243,205.5,243c-86.7,0-157,70.3-157,157
	s70.3,157,157,157c69.5,0,128.4-45.2,149.2-107.8h118.1c5.2,0,12.5,2.8,16.3,6.4l64.1,59.7c3.8,3.6,10,3.6,13.8,0l44.4-41.2
	c3.8-3.6,10-3.6,13.8,0l44.4,41.2c3.8,3.6,9.8,3.4,13.6-0.2l65-61.9C751.9,449.7,752.6,443.4,749.8,439.1z M205.7,448.3
	c-26.7,0-48.3-21.7-48.3-48.3s21.7-48.3,48.3-48.3S254,373.4,254,400S232.4,448.3,205.7,448.3z"/>
</svg>
