<?xml version="1.0" encoding="utf-8"?>
<!-- Generator: Adobe Illustrator 18.0.0, SVG Export Plug-In . SVG Version: 6.00 Build 0)  -->
<!DOCTYPE svg PUBLIC "-//W3C//DTD SVG 1.1//EN" "http://www.w3.org/Graphics/SVG/1.1/DTD/svg11.dtd">
<svg version="1.1" id="Artwork" xmlns="http://www.w3.org/2000/svg" xmlns:xlink="http://www.w3.org/1999/xlink" x="0px" y="0px"
	 viewBox="0 0 800 800" enable-background="new 0 0 800 800" xml:space="preserve">
<path d="M702.7,363.2l-37.9-37.9c-15.6-15.6-41-15.6-56.8,0L466.9,466.6V134.1c0-22.1-18.1-40.1-40.1-40.1h-53.5
	c-22.1,0-40.1,17.8-40.1,40.1v332.3L192.1,325.3c-15.6-15.6-41-15.6-56.8,0l-37.9,37.9c-15.6,15.6-15.6,41,0,56.8l274.2,274.2
	c7.8,7.8,18.1,11.8,28.3,11.8c10.3,0,20.5-4,28.3-11.8l274.2-274.2C718.3,404.2,718.3,378.8,702.7,363.2z"/>
</svg>
