<?xml version="1.0" encoding="utf-8"?>
<!-- Generator: Adobe Illustrator 18.0.0, SVG Export Plug-In . SVG Version: 6.00 Build 0)  -->
<!DOCTYPE svg PUBLIC "-//W3C//DTD SVG 1.1//EN" "http://www.w3.org/Graphics/SVG/1.1/DTD/svg11.dtd">
<svg version="1.1" id="Artwork" xmlns="http://www.w3.org/2000/svg" xmlns:xlink="http://www.w3.org/1999/xlink" x="0px" y="0px"
	 viewBox="0 0 800 800" enable-background="new 0 0 800 800" xml:space="preserve">
<g>
	<path d="M653.8,657.8H146.3c-15.5,0-28.1,12.7-28.1,28.1v37.5c0,15.5,12.7,28.1,28.1,28.1h507.3c15.5,0,28.1-12.7,28.1-28.1v-37.5
		C682,670.3,669.3,657.8,653.8,657.8z"/>
	<path d="M380.4,607.5c5.5,5.5,12.7,8.3,19.8,8.3c7.2,0,14.4-2.8,19.8-8.3l192.2-192.2c10.9-10.9,10.9-28.7,0-39.8l-26.6-26.6
		c-10.9-10.9-28.7-10.9-39.8,0L447,447.8V76.6c0-15.5-12.7-28.1-28.1-28.1h-37.5c-15.5,0-28.1,12.5-28.1,28.1v371.3l-98.9-98.9
		c-10.9-10.9-28.8-10.9-39.8,0l-26.6,26.6c-10.9,10.9-10.9,28.8,0,39.8L380.4,607.5z"/>
</g>
</svg>
