<?xml version="1.0" encoding="utf-8"?>
<!-- Generator: Adobe Illustrator 18.0.0, SVG Export Plug-In . SVG Version: 6.00 Build 0)  -->
<!DOCTYPE svg PUBLIC "-//W3C//DTD SVG 1.1//EN" "http://www.w3.org/Graphics/SVG/1.1/DTD/svg11.dtd">
<svg version="1.1" id="Artwork" xmlns="http://www.w3.org/2000/svg" xmlns:xlink="http://www.w3.org/1999/xlink" x="0px" y="0px"
	 viewBox="0 0 800 800" enable-background="new 0 0 800 800" xml:space="preserve">
<g>
	<path d="M373.1,454.7l-26.6-26.6c-10.9-10.9-28.7-10.9-39.8,0L142,593V453c0-15.5-12.7-28.1-28.1-28.1H76.4
		c-15.5,0-28.1,12.7-28.1,28.1v271.9c0,7.8,3.1,14.8,8.3,19.8c5.2,5.2,12.2,8.3,19.8,8.3h271.9c15.5,0,28.1-12.7,28.1-28.1v-37.5
		c0-15.5-12.7-28.1-28.1-28.1h-140l164.8-164.8C384.1,483.4,384.1,465.6,373.1,454.7z"/>
	<path d="M743.4,55.3c-5.2-5.2-12.2-8.3-19.8-8.3H451.7c-15.5,0-28.1,12.7-28.1,28.1v37.5c0,15.5,12.7,28.1,28.1,28.1h140
		l-165,164.7c-10.9,10.9-10.9,28.8,0,39.8l26.6,26.6c10.9,10.9,28.8,10.9,39.8,0L658,207v140c0,15.5,12.7,28.1,28.1,28.1h37.5
		c15.5,0,28.1-12.7,28.1-28.1V75.2C751.6,67.3,748.4,60.3,743.4,55.3z"/>
</g>
</svg>
