<?xml version="1.0" encoding="utf-8"?>
<!-- Generator: Adobe Illustrator 18.0.0, SVG Export Plug-In . SVG Version: 6.00 Build 0)  -->
<!DOCTYPE svg PUBLIC "-//W3C//DTD SVG 1.1//EN" "http://www.w3.org/Graphics/SVG/1.1/DTD/svg11.dtd">
<svg version="1.1" id="Artwork" xmlns="http://www.w3.org/2000/svg" xmlns:xlink="http://www.w3.org/1999/xlink" x="0px" y="0px"
	 viewBox="0 0 800 800" enable-background="new 0 0 800 800" xml:space="preserve">
<g>
	<path d="M717.6,219.8l-133.9-85c-10.9-6.9-19.8-2-19.8,10.9v30.5c-111.4,0.6-201.6,91.1-201.6,202.7c0,19.5,2.8,38.4,8,56.3
		c24.2-84.2,101.7-145.9,193.6-146.4v30.5c0,13,8.9,17.8,19.8,10.9l133.9-85C728.6,238,728.4,226.7,717.6,219.8z"/>
	<path d="M566.4,569.8c0,15.5-12.7,28.1-28.1,28.1H172.6c-15.6,0-28.1-12.7-28.1-28.1v-225c0-15.5,12.7-28.1,28.1-28.1h178.3
		c7.7-25.9,18.8-49.7,33.3-70.3H102.3c-15.5,0-28.1,12.5-28.1,28.1v365.6c0,15.5,12.7,28.1,28.1,28.1h506.3
		c15.5,0,28.1-12.5,28.1-28.1v-318l-70.3,44.7V569.8z"/>
</g>
</svg>
