<?xml version="1.0" encoding="utf-8"?>
<!-- Generator: Adobe Illustrator 18.0.0, SVG Export Plug-In . SVG Version: 6.00 Build 0)  -->
<!DOCTYPE svg PUBLIC "-//W3C//DTD SVG 1.1//EN" "http://www.w3.org/Graphics/SVG/1.1/DTD/svg11.dtd">
<svg version="1.1" id="Artwork" xmlns="http://www.w3.org/2000/svg" xmlns:xlink="http://www.w3.org/1999/xlink" x="0px" y="0px"
	 viewBox="0 0 800 800" enable-background="new 0 0 800 800" xml:space="preserve">
<g>
	<path d="M731.1,380.8c0,0-183.9-182.8-331.1-182.8S68.9,380.8,68.9,380.8c-11.3,10.6-11.4,28,0,38.4c0,0,183.9,182.8,331.1,182.8
		s331.1-182.8,331.1-182.8C742.3,408.6,742.5,391.3,731.1,380.8z M401.4,547.2c-80.9,0-146.6-65.6-146.6-146.6
		s65.6-146.6,146.6-146.6S548,319.7,548,400.6S482.3,547.2,401.4,547.2z"/>
	<path d="M399.7,305.8c-51.4,0-93.1,41.9-93.1,93.4s41.7,93.4,93.1,93.4c51.4,0,93.1-41.9,93.1-93.4
		C492.8,347.7,451.1,305.8,399.7,305.8z M434.8,399.5c-15.9,0-28.9-13-28.9-29.1s13-29.1,28.9-29.1s28.9,13,28.9,29.1
		S450.9,399.5,434.8,399.5z"/>
</g>
</svg>
