<?xml version="1.0" encoding="utf-8"?>
<!-- Generator: Adobe Illustrator 17.1.0, SVG Export Plug-In . SVG Version: 6.00 Build 0)  -->
<!DOCTYPE svg PUBLIC "-//W3C//DTD SVG 1.1//EN" "http://www.w3.org/Graphics/SVG/1.1/DTD/svg11.dtd">
<svg version="1.1" id="Artwork" xmlns="http://www.w3.org/2000/svg" xmlns:xlink="http://www.w3.org/1999/xlink" x="0px" y="0px"
	 viewBox="0 0 512 512" enable-background="new 0 0 512 512" xml:space="preserve">
<path d="M463,83.5H49c-9.9,0-18,8.1-18,18v309c0,9.9,8,18,18,18h414c9.9,0,18-8.1,18-18v-309C481,91.6,473,83.5,463,83.5z
	 M118,397.3c0,6.6-5.4,12-12,12H70c-6.6,0-12-5.4-12-12v-36c0-6.6,5.4-12,12-12h36c6.6,0,12,5.4,12,12V397.3z M118,316.3
	c0,6.6-5.4,12-12,12H70c-6.6,0-12-5.4-12-12v-36c0-6.6,5.4-12,12-12h36c6.6,0,12,5.4,12,12V316.3z M118,235c0,6.6-5.4,12-12,12H70
	c-6.6,0-12-5.4-12-12v-36c0-6.6,5.4-12,12-12h36c6.6,0,12,5.4,12,12V235z M118,154c0,6.6-5.4,12-12,12H70c-6.6,0-12-5.4-12-12v-36
	c0-6.6,5.4-12,12-12h36c6.6,0,12,5.4,12,12V154z M359.5,397.4c0,9-7.3,16.2-16.2,16.2H165.7c-8.9,0-16.2-7.3-16.2-16.2V279.7
	c0-9,7.3-16.2,16.2-16.2h177.6c8.9,0,16.2,7.3,16.2,16.2V397.4z M359.5,232.4c0,9-7.3,16.2-16.2,16.2H165.7
	c-8.9,0-16.2-7.3-16.2-16.2V114.7c0-9,7.3-16.2,16.2-16.2h177.6c8.9,0,16.2,7.3,16.2,16.2V232.4z M451,397.3c0,6.6-5.4,12-12,12h-36
	c-6.6,0-12-5.4-12-12v-36c0-6.6,5.4-12,12-12h36c6.6,0,12,5.4,12,12V397.3z M451,315.9c0,6.6-5.4,12-12,12h-36c-6.6,0-12-5.4-12-12
	v-36c0-6.6,5.4-12,12-12h36c6.6,0,12,5.4,12,12V315.9z M451,234.9c0,6.6-5.4,12-12,12h-36c-6.6,0-12-5.4-12-12v-36
	c0-6.6,5.4-12,12-12h36c6.6,0,12,5.4,12,12V234.9z M451,153.9c0,6.6-5.4,12-12,12h-36c-6.6,0-12-5.4-12-12v-36c0-6.6,5.4-12,12-12
	h36c6.6,0,12,5.4,12,12V153.9z"/>
</svg>
