<?xml version="1.0" encoding="utf-8"?>
<!-- Generator: Adobe Illustrator 18.0.0, SVG Export Plug-In . SVG Version: 6.00 Build 0)  -->
<!DOCTYPE svg PUBLIC "-//W3C//DTD SVG 1.1//EN" "http://www.w3.org/Graphics/SVG/1.1/DTD/svg11.dtd">
<svg version="1.1" id="Artwork" xmlns="http://www.w3.org/2000/svg" xmlns:xlink="http://www.w3.org/1999/xlink" x="0px" y="0px"
	 viewBox="0 0 800 800" enable-background="new 0 0 800 800" xml:space="preserve">
<path d="M714.4,372.8c0-22.7-18.3-41.2-41.2-41.2H331.7l144.9-144.9c16-16,16-42.1,0-58.4l-38.9-38.9c-16-16-42.1-16-58.4,0
	L97.8,370.9c-8,8-12.1,18.5-12.1,29.1c0,10.5,4.1,21.1,12.1,29.1l281.5,281.5c16,16,42.1,16,58.4,0l38.9-38.9c16-16,16-42.1,0-58.4
	L331.7,468.9h341.3c22.7,0,41.2-18.5,41.2-41.2L714.4,372.8z"/>
</svg>
