<?xml version="1.0" encoding="utf-8"?>
<!-- Generator: Adobe Illustrator 18.0.0, SVG Export Plug-In . SVG Version: 6.00 Build 0)  -->
<!DOCTYPE svg PUBLIC "-//W3C//DTD SVG 1.1//EN" "http://www.w3.org/Graphics/SVG/1.1/DTD/svg11.dtd">
<svg version="1.1" id="Artwork" xmlns="http://www.w3.org/2000/svg" xmlns:xlink="http://www.w3.org/1999/xlink" x="0px" y="0px"
	 viewBox="0 0 800 800" enable-background="new 0 0 800 800" xml:space="preserve">
<g>
	<path d="M278.4,659.2L278.4,659.2L278.4,659.2z"/>
	<path d="M436,96.9c-167.4,0-303,135.6-303,303c0,28.8,4.1,56.7,11.4,83l97.8-62c-0.9-7.4-1.3-14.8-1.3-22.3
		c0-107,86.7-193.8,193.8-193.8s193.8,86.7,193.8,193.8s-86.7,193.8-193.8,193.8c-1.3,0-2.8,0-4.1,0
		c-42.1,35.8-94.5,59.8-152.1,66.6c45.9,28,99.8,44.1,157.6,44.1c167.4,0,303-135.6,303-303S603.4,96.9,436,96.9z"/>
	<path d="M490.1,402.9c0-23.1-3.3-45.4-9.4-66.4C452.1,435.9,360.6,508.8,252,509.3v-36c0-15.3-10.5-21-23.4-12.9L70.5,560.8
		c-12.9,8.1-12.9,21.4,0,29.7l158.1,100.4c12.9,8.1,23.4,2.4,23.4-12.9v-36C383.8,641.7,490.1,534.6,490.1,402.9z"/>
</g>
</svg>
