<?xml version="1.0" encoding="utf-8"?>
<!-- Generator: Adobe Illustrator 18.0.0, SVG Export Plug-In . SVG Version: 6.00 Build 0)  -->
<!DOCTYPE svg PUBLIC "-//W3C//DTD SVG 1.1//EN" "http://www.w3.org/Graphics/SVG/1.1/DTD/svg11.dtd">
<svg version="1.1" id="Artwork" xmlns="http://www.w3.org/2000/svg" xmlns:xlink="http://www.w3.org/1999/xlink" x="0px" y="0px"
	 viewBox="0 0 800 800" enable-background="new 0 0 800 800" xml:space="preserve">
<g>
	<path d="M702.2,192.3l-276,223.3c-14.7,12-38.8,12-53.5,0l-276-223.3c-9.4-7.6-26.2-1-26.2,12.8v389.7c0,18.9,15.5,34.4,34.4,34.4
		h590.3c18.9,0,34.4-15.5,34.4-34.4V205.1C729.5,189.7,713.3,183.4,702.2,192.3z"/>
	<path d="M140.4,192.3l233.1,188.5c14.7,11.8,38.8,11.8,53.5,0L660,192.3c14.7-11.8,11.3-21.6-7.6-21.6H148
		C128.9,170.8,125.7,180.5,140.4,192.3z"/>
</g>
</svg>
