<?xml version="1.0" encoding="utf-8"?>
<!-- Generator: Adobe Illustrator 17.1.0, SVG Export Plug-In . SVG Version: 6.00 Build 0)  -->
<!DOCTYPE svg PUBLIC "-//W3C//DTD SVG 1.1//EN" "http://www.w3.org/Graphics/SVG/1.1/DTD/svg11.dtd">
<svg version="1.1" id="Artwork" xmlns="http://www.w3.org/2000/svg" xmlns:xlink="http://www.w3.org/1999/xlink" x="0px" y="0px"
	 viewBox="0 0 512 512" enable-background="new 0 0 512 512" xml:space="preserve">
<g>
	<path d="M320.5,181.1l-126.4,59.2c-18,8.4-16.5,15.3,3.4,15.3h40.6c9.9,0,18,8.1,18,18v39.1c0,19.9,6.7,21.4,15.1,3.3l58.1-126.2
		C333.4,180.8,329.5,176.9,320.5,181.1z"/>
	<path d="M256,31C131.7,31,31,131.7,31,256s100.7,225,225,225s225-100.7,225-225S380.3,31,256,31z M256.2,416.7
		c-88.6,0-160.5-71.9-160.5-160.5S167.6,95.7,256.2,95.7c88.6,0,160.5,71.9,160.5,160.5S344.9,416.7,256.2,416.7z"/>
</g>
</svg>
