<?xml version="1.0" encoding="utf-8"?>
<!-- Generator: Adobe Illustrator 18.0.0, SVG Export Plug-In . SVG Version: 6.00 Build 0)  -->
<!DOCTYPE svg PUBLIC "-//W3C//DTD SVG 1.1//EN" "http://www.w3.org/Graphics/SVG/1.1/DTD/svg11.dtd">
<svg version="1.1" id="Artwork" xmlns="http://www.w3.org/2000/svg" xmlns:xlink="http://www.w3.org/1999/xlink" x="0px" y="0px"
	 viewBox="0 0 800 800" enable-background="new 0 0 800 800" xml:space="preserve">
<g>
	<g>
		<path d="M351.1,254.2h-41.7c-13.8,0-25,11.3-25,25v241.7c0,13.8,11.3,25,25,25h41.7c13.8,0,25-11.3,25-25V279.2
			C376.1,265.4,364.9,254.2,351.1,254.2z"/>
		<path d="M490.7,254.2H449c-13.8,0-25,11.3-25,25v241.7c0,13.8,11.3,25,25,25h41.7c13.8,0,25-11.3,25-25V279.2
			C515.7,265.4,504.4,254.2,490.7,254.2z"/>
		<path d="M400,87.5C227.4,87.5,87.5,227.4,87.5,400S227.4,712.5,400,712.5S712.5,572.6,712.5,400S572.6,87.5,400,87.5z
			 M400.3,623.2c-123.1,0-222.9-99.9-222.9-222.9s99.9-222.9,222.9-222.9s222.9,99.9,222.9,222.9S523.5,623.2,400.3,623.2z"/>
	</g>
</g>
</svg>
