<?xml version="1.0" encoding="utf-8"?>
<!-- Generator: Adobe Illustrator 18.0.0, SVG Export Plug-In . SVG Version: 6.00 Build 0)  -->
<!DOCTYPE svg PUBLIC "-//W3C//DTD SVG 1.1//EN" "http://www.w3.org/Graphics/SVG/1.1/DTD/svg11.dtd">
<svg version="1.1" id="Artwork" xmlns="http://www.w3.org/2000/svg" xmlns:xlink="http://www.w3.org/1999/xlink" x="0px" y="0px"
	 viewBox="0 0 800 800" enable-background="new 0 0 800 800" xml:space="preserve">
<g>
	<g>
		<path d="M687.5,337.5h-100v58.3c0,13.9-11.3,25-25,25h-325c-13.9,0-25-11.3-25-25v-58.3h-100c-13.8,0-25,11.3-25,25v200
			c0,13.8,11.1,25,25,25h100v-58.3c0-13.7,11.3-25,25-25h325c13.9,0,25,11.3,25,25v58.3h100c13.8,0,25-11.3,25-25v-200
			C712.5,348.8,701.4,337.5,687.5,337.5z"/>
		<path d="M258.3,400h283.3c13.8,0,25-11.3,25-25V112.5c0-13.8-11.3-25-25-25H258.3c-13.8,0-25,11.3-25,25V375
			C233.3,388.8,244.5,400,258.3,400z"/>
		<path d="M541.7,525H258.3c-13.8,0-25,11.3-25,25v137.5c0,13.8,11.3,25,25,25h283.3c13.8,0,25-11.3,25-25V550
			C566.7,536.3,555.5,525,541.7,525z"/>
	</g>
</g>
</svg>
