<?xml version="1.0" encoding="utf-8"?>
<!-- Generator: Adobe Illustrator 18.0.0, SVG Export Plug-In . SVG Version: 6.00 Build 0)  -->
<!DOCTYPE svg PUBLIC "-//W3C//DTD SVG 1.1//EN" "http://www.w3.org/Graphics/SVG/1.1/DTD/svg11.dtd">
<svg version="1.1" id="Artwork" xmlns="http://www.w3.org/2000/svg" xmlns:xlink="http://www.w3.org/1999/xlink" x="0px" y="0px"
	 viewBox="0 0 800 800" enable-background="new 0 0 800 800" xml:space="preserve">
<path d="M703.8,425.1h-57.3c-14.5,0-26.2,11.6-26.7,25.9c-11.9,110.6-105.5,196.7-219.4,196.7c-121.9,0-220.6-98.6-220.6-220.3
	c0-120.6,99.4-218.6,219.7-220.3v35.8c0,16.3,11.6,23.6,25.8,16.3l183.9-94.1c14.2-7.3,14.2-19.1,0-26.4L425.3,44.8
	c-14.2-7.3-25.8,0-25.8,16.2v36.1c-181.3,1.7-330,149.1-330,330.5c0,182.5,148.1,330.5,330.9,330.5c174.8,0,318-135.3,330-306.9
	C730.5,436.8,718.4,425.1,703.8,425.1z"/>
</svg>
