<?xml version="1.0" encoding="utf-8"?>
<!-- Generator: Adobe Illustrator 18.0.0, SVG Export Plug-In . SVG Version: 6.00 Build 0)  -->
<!DOCTYPE svg PUBLIC "-//W3C//DTD SVG 1.1//EN" "http://www.w3.org/Graphics/SVG/1.1/DTD/svg11.dtd">
<svg version="1.1" id="Artwork" xmlns="http://www.w3.org/2000/svg" xmlns:xlink="http://www.w3.org/1999/xlink" x="0px" y="0px"
	 viewBox="0 0 800 800" enable-background="new 0 0 800 800" xml:space="preserve">
<g>
	<path d="M604,360.7c45.3,0,86.6,17.7,117.2,46.4c0-1.6,0-3.1,0-4.7c0-79.2-64.1-143.4-143.3-143.4c-0.6,0-1.4,0-2,0
		c-8.8-70.8-69.1-125.6-142.2-125.6c-63,0-116.4,40.6-135.6,97.2c-21.9-10.6-46.3-16.6-72.2-16.6c-91.6,0-165.6,74.2-165.6,165.9
		c0,88.1,68.8,160.3,155.5,165.6v0.3h217.8c-0.3-4.7-0.6-9.4-0.6-14.1C432.9,437.3,509.5,360.7,604,360.7z"/>
	<path d="M605.1,397.3c-74.4,0-134.7,60.3-134.7,134.7s60.3,134.7,134.7,134.7S739.8,606.3,739.8,532
		C739.8,457.6,679.6,397.3,605.1,397.3z M605.1,625.5c-51.7,0-93.6-41.9-93.6-93.6s41.9-93.6,93.6-93.6s93.6,41.9,93.6,93.6
		S656.8,625.5,605.1,625.5z"/>
	<path d="M641.8,519h-72.7c-8,0-14.4,6.4-14.4,14.4s6.4,14.4,14.4,14.4h72.7c8,0,14.4-6.4,14.4-14.4S649.6,519,641.8,519z"/>
</g>
</svg>
