<?xml version="1.0" encoding="utf-8"?>
<!-- Generator: Adobe Illustrator 18.0.0, SVG Export Plug-In . SVG Version: 6.00 Build 0)  -->
<!DOCTYPE svg PUBLIC "-//W3C//DTD SVG 1.1//EN" "http://www.w3.org/Graphics/SVG/1.1/DTD/svg11.dtd">
<svg version="1.1" id="Artwork" xmlns="http://www.w3.org/2000/svg" xmlns:xlink="http://www.w3.org/1999/xlink" x="0px" y="0px"
	 viewBox="0 0 800 800" enable-background="new 0 0 800 800" xml:space="preserve">
<g>
	<path d="M557.9,379.1c0.9,7.4,1.3,14.8,1.3,22.3c0,107-86.7,193.7-193.7,193.7s-193.7-86.7-193.7-193.7s86.7-193.7,193.7-193.7
		c1.3,0,2.8,0,4.1,0c42.1-35.8,94.5-59.8,152-66.6C475.6,113.1,421.7,97,364,97C196.6,97,61,232.6,61,400s135.6,303,303,303
		s303.2-135.6,303.2-303c0-28.8-4.1-56.6-11.4-83L557.9,379.1z"/>
	<path d="M521.5,140.9L521.5,140.9L521.5,140.9z"/>
	<path d="M729.3,209.4L571.2,109c-12.9-8.1-23.4-2.4-23.4,12.9v36c-131.6,0.7-238,107.6-238,239.3c0,23.1,3.3,45.4,9.4,66.4
		c28.6-99.5,120.1-172.3,228.6-172.9v36c0,15.3,10.5,21,23.4,12.9l158.1-100.4C742.2,230.8,742.2,217.5,729.3,209.4z"/>
</g>
</svg>
