<?xml version="1.0" encoding="utf-8"?>
<!-- Generator: Adobe Illustrator 17.1.0, SVG Export Plug-In . SVG Version: 6.00 Build 0)  -->
<!DOCTYPE svg PUBLIC "-//W3C//DTD SVG 1.1//EN" "http://www.w3.org/Graphics/SVG/1.1/DTD/svg11.dtd">
<svg version="1.1" id="Artwork" xmlns="http://www.w3.org/2000/svg" xmlns:xlink="http://www.w3.org/1999/xlink" x="0px" y="0px"
	 viewBox="0 0 512 512" enable-background="new 0 0 512 512" xml:space="preserve">
<path d="M403,31H109c-10,0-18,8.1-18,18v414c0,9.9,8.1,18,18,18h294c10,0,18-8.1,18-18V49C421,39,412.9,31,403,31z M376,322
	c0,5-4,9-9,9H205c-5,0-9-4-9-9v-19.5c0-5,4-9,9-9h162c5,0,9,4,9,9V322z M376,254.5c0,5-4,9-9,9H145c-5,0-9-4-9-9V235c0-5,4-9,9-9
	h222c5,0,9,4,9,9V254.5z M376,187c0,5-4,9-9,9H145c-5,0-9-4-9-9v-19.5c0-5,4-9,9-9h222c5,0,9,4,9,9V187z M376,119.5c0,5-4,9-9,9H265
	c-5,0-9-4-9-9V100c0-5,4-9,9-9h102c5,0,9,4,9,9V119.5z"/>
</svg>
