<?xml version="1.0" encoding="utf-8"?>
<!-- Generator: Adobe Illustrator 18.0.0, SVG Export Plug-In . SVG Version: 6.00 Build 0)  -->
<!DOCTYPE svg PUBLIC "-//W3C//DTD SVG 1.1//EN" "http://www.w3.org/Graphics/SVG/1.1/DTD/svg11.dtd">
<svg version="1.1" id="Artwork" xmlns="http://www.w3.org/2000/svg" xmlns:xlink="http://www.w3.org/1999/xlink" x="0px" y="0px"
	 viewBox="0 0 800 800" enable-background="new 0 0 800 800" xml:space="preserve">
<g>
	<path d="M636.3,621.7l-98.9-88.4c15.6-76,20.9-183.1,3.8-260.7C508.9,124.1,410.9,24.1,410.9,24.1c-2.9-3.3-7-5.1-11-5.9
		c-4,0-8.1,1.8-11,5.1c0,0-97.8,100-130.2,248.3c-17,77.8-11.7,184.9,3.8,260.7l-98.9,88.4c-13.5,12.1-9.9,22,8.4,22h119.4
		l108.6,0.7h108.6h119.4C646,643.7,649.9,633.8,636.3,621.7z"/>
	<path d="M262.6,669.9c0.5,37.2,30.9,67.2,68.5,67.2c2.6,0,4.9-0.2,7.3-0.4c9.2,25.5,33.1,43.9,61.5,45.2
		c28.4-1.3,52.2-19.8,61.5-45.2c2.4,0.2,4.9,0.4,7.3,0.4c37.5,0,67.9-30,68.5-67.2H399.9H262.6z"/>
</g>
</svg>
