<?xml version="1.0" encoding="utf-8"?>
<!-- Generator: Adobe Illustrator 18.0.0, SVG Export Plug-In . SVG Version: 6.00 Build 0)  -->
<!DOCTYPE svg PUBLIC "-//W3C//DTD SVG 1.1//EN" "http://www.w3.org/Graphics/SVG/1.1/DTD/svg11.dtd">
<svg version="1.1" id="Artwork" xmlns="http://www.w3.org/2000/svg" xmlns:xlink="http://www.w3.org/1999/xlink" x="0px" y="0px"
	 viewBox="0 0 800 800" enable-background="new 0 0 800 800" xml:space="preserve">
<g>
	<g>
		<path d="M520.8,354.2h-75v-75c0-13.8-11.3-25-25-25h-41.7c-13.8,0-25,11.3-25,25v75h-75c-13.8,0-25,11.3-25,25v41.7
			c0,13.7,11.2,25,25,25h75v75c0,13.8,11.2,25,25,25h41.7c13.8,0,25-11.3,25-25v-75h75c13.7,0,25-11.3,25-25v-41.7
			C545.8,365.5,534.5,354.2,520.8,354.2z"/>
		<path d="M400,87.5C227.3,87.5,87.5,227.3,87.5,400S227.3,712.5,400,712.5S712.5,572.7,712.5,400S572.7,87.5,400,87.5z
			 M400.3,623.1c-123.1,0-223-99.8-223-223s99.8-223,223-223s223,99.8,223,223S523.4,623.1,400.3,623.1z"/>
	</g>
</g>
</svg>
