<?xml version="1.0" encoding="utf-8"?>
<!-- Generator: Adobe Illustrator 18.0.0, SVG Export Plug-In . SVG Version: 6.00 Build 0)  -->
<!DOCTYPE svg PUBLIC "-//W3C//DTD SVG 1.1//EN" "http://www.w3.org/Graphics/SVG/1.1/DTD/svg11.dtd">
<svg version="1.1" id="Artwork" xmlns="http://www.w3.org/2000/svg" xmlns:xlink="http://www.w3.org/1999/xlink" x="0px" y="0px"
	 viewBox="0 0 800 800" enable-background="new 0 0 800 800" xml:space="preserve">
<path d="M400,40.6C205.8,40.6,48.4,198,48.4,392.2S205.8,743.8,400,743.8s351.6-157.3,351.6-351.6S594.2,40.6,400,40.6z
	 M564.1,414.5c0,15.5-12.7,28.1-28.1,28.1h-84.4V527c0,15.5-12.7,28.1-28.1,28.1h-46.9c-15.5,0-28.1-12.7-28.1-28.1v-84.4h-84.4
	c-15.5,0-28.1-12.7-28.1-28.1v-46.9c0-15.5,12.7-28.1,28.1-28.1h84.4v-84.4c0-15.5,12.7-28.1,28.1-28.1h46.9
	c15.5,0,28.1,12.7,28.1,28.1v84.4h84.4c15.5,0,28.1,12.7,28.1,28.1V414.5z"/>
</svg>
