<?xml version="1.0" encoding="utf-8"?>
<!-- Generator: Adobe Illustrator 18.0.0, SVG Export Plug-In . SVG Version: 6.00 Build 0)  -->
<!DOCTYPE svg PUBLIC "-//W3C//DTD SVG 1.1//EN" "http://www.w3.org/Graphics/SVG/1.1/DTD/svg11.dtd">
<svg version="1.1" id="Artwork" xmlns="http://www.w3.org/2000/svg" xmlns:xlink="http://www.w3.org/1999/xlink" x="0px" y="0px"
	 viewBox="0 0 800 800" enable-background="new 0 0 800 800" xml:space="preserve">
<path d="M571.1,48.4H228.9c-15.5,0-28.1,12.5-28.1,28.1v646.9c0,15.5,12.7,28.1,28.1,28.1h342.2c15.5,0,28.1-12.5,28.1-28.1V76.6
	C599.2,61.1,586.6,48.4,571.1,48.4z M400,71.9c11.7,0,21.1,9.4,21.1,21.1s-9.4,21.1-21.1,21.1s-21.1-9.4-21.1-21.1
	S388.3,71.9,400,71.9z M401.1,728.1c-16.3,0-29.4-13.1-29.4-29.4s13.1-29.4,29.4-29.4c16.3,0,29.4,13.1,29.4,29.4
	S417.3,728.1,401.1,728.1z M564.1,622.7c0,7.8-6.3,14.1-14.1,14.1H250c-7.8,0-14.1-6.3-14.1-14.1V151.6c0-7.8,6.3-14.1,14.1-14.1
	h300c7.8,0,14.1,6.3,14.1,14.1V622.7z"/>
</svg>
