<?xml version="1.0" encoding="utf-8"?>
<!-- Generator: Adobe Illustrator 18.0.0, SVG Export Plug-In . SVG Version: 6.00 Build 0)  -->
<!DOCTYPE svg PUBLIC "-//W3C//DTD SVG 1.1//EN" "http://www.w3.org/Graphics/SVG/1.1/DTD/svg11.dtd">
<svg version="1.1" id="Artwork" xmlns="http://www.w3.org/2000/svg" xmlns:xlink="http://www.w3.org/1999/xlink" x="0px" y="0px"
	 viewBox="0 0 800 800" enable-background="new 0 0 800 800" xml:space="preserve">
<g>
	<path d="M392.7,166.8L179.1,319.4H95.6c-19,0-34.5,15.5-34.5,34.5v92.1c0,19,15.5,34.5,34.5,34.5h83.5l213.8,152.6
		c15.5,11.1,28,4.6,28-14.4V181.2C420.9,162.2,408.3,155.7,392.7,166.8z"/>
	<path d="M508.6,168.2c-15.9,0-28.8,12.9-28.8,28.8s12.9,28.8,28.8,28.8c95.4,0,172.7,77.3,172.7,172.7S604,571.2,508.6,571.2
		c-15.9,0-28.8,12.9-28.8,28.8c0,15.9,12.9,28.8,28.8,28.8c127.2,0,230.3-103.1,230.3-230.3C738.9,271.4,635.9,168.2,508.6,168.2z"
		/>
	<path d="M508.6,470.4c-15.9,0-28.8,12.9-28.8,28.8c0,15.9,12.9,28.8,28.8,28.8c71.6,0,129.5-58,129.5-129.5s-58-129.5-129.5-129.5
		c-15.9,0-28.8,12.9-28.8,28.8s12.9,28.8,28.8,28.8c39.7,0,72,32.2,72,72C580.6,438.4,548.4,470.4,508.6,470.4z"/>
</g>
</svg>
