<?xml version="1.0" encoding="utf-8"?>
<!-- Generator: Adobe Illustrator 18.0.0, SVG Export Plug-In . SVG Version: 6.00 Build 0)  -->
<!DOCTYPE svg PUBLIC "-//W3C//DTD SVG 1.1//EN" "http://www.w3.org/Graphics/SVG/1.1/DTD/svg11.dtd">
<svg version="1.1" id="Artwork" xmlns="http://www.w3.org/2000/svg" xmlns:xlink="http://www.w3.org/1999/xlink" x="0px" y="0px"
	 viewBox="0 0 800 800" enable-background="new 0 0 800 800" xml:space="preserve">
<g>
	<path d="M450.7,126.2l-251,179.2h-98c-22.3,0-40.6,18.3-40.6,40.6v108.2c0,22.3,18.3,40.6,40.6,40.6h98l251,179.2
		c18.3,13.1,32.9,5.4,32.9-16.9V143.1C483.6,120.8,469,113.1,450.7,126.2z"/>
	<path d="M586.8,246.1c-18.7,0-33.8,15.1-33.8,33.8c0,18.7,15.1,33.8,33.8,33.8c46.6,0,84.5,37.9,84.5,84.5s-37.9,84.5-84.5,84.5
		c-18.7,0-33.8,15.1-33.8,33.8c0,18.7,15.1,33.8,33.8,33.8c84.1,0,152.1-68.1,152.1-152.1C738.9,314.4,670.9,246.1,586.8,246.1z"/>
</g>
</svg>
