<?xml version="1.0" encoding="utf-8"?>
<!-- Generator: Adobe Illustrator 18.0.0, SVG Export Plug-In . SVG Version: 6.00 Build 0)  -->
<!DOCTYPE svg PUBLIC "-//W3C//DTD SVG 1.1//EN" "http://www.w3.org/Graphics/SVG/1.1/DTD/svg11.dtd">
<svg version="1.1" id="Artwork" xmlns="http://www.w3.org/2000/svg" xmlns:xlink="http://www.w3.org/1999/xlink" x="0px" y="0px"
	 viewBox="0 0 800 800" enable-background="new 0 0 800 800" xml:space="preserve">
<g>
	<path d="M397.4,163.6L180.7,318.3H96.1c-19.3,0-35,15.8-35,35v93.4c0,19.3,15.8,35,35,35h84.6l216.7,154.7
		c15.8,11.3,28.4,4.7,28.4-14.6V178.2C425.9,158.9,413.2,152.3,397.4,163.6z"/>
	<path d="M652.1,401.4l81.7-81.7c6.8-6.8,6.8-18.1,0-24.9l-16.5-16.5c-6.8-6.8-18.1-6.8-24.9,0l-81.7,81.7l-81.1-81.1
		c-6.8-6.8-18.1-6.8-24.9,0l-16.5,16.5c-6.8,6.8-6.8,18.1,0,24.9l81.1,81.1l-81.1,81.1c-6.8,6.8-6.8,18.1,0,24.9l16.5,16.5
		c6.8,6.8,18.1,6.8,24.9,0l81.1-81.1l81.1,81.1c6.8,6.8,18.1,6.8,24.9,0l16.5-16.5c6.8-6.8,6.8-18.1,0-24.9L652.1,401.4z"/>
</g>
</svg>
