<?xml version="1.0" encoding="utf-8"?>
<!-- Generator: Adobe Illustrator 17.1.0, SVG Export Plug-In . SVG Version: 6.00 Build 0)  -->
<!DOCTYPE svg PUBLIC "-//W3C//DTD SVG 1.1//EN" "http://www.w3.org/Graphics/SVG/1.1/DTD/svg11.dtd">
<svg version="1.1" id="Artwork" xmlns="http://www.w3.org/2000/svg" xmlns:xlink="http://www.w3.org/1999/xlink" x="0px" y="0px"
	 viewBox="0 0 512 512" enable-background="new 0 0 512 512" xml:space="preserve">
<path d="M256,31C131.7,31,31,131.7,31,256s100.7,225,225,225s225-100.7,225-225S380.3,31,256,31z M397.2,230.5l-70.1,66.1l21.4,76.7
	c4.3,15.5-3.3,21.4-17.2,13.1L256,341l-75.4,45.3c-13.8,8.3-21.9,2.4-18-13.3l20.7-83.4l-67.9-59.9c-12.1-10.7-8.8-19.3,7.3-19.3
	h82.5l39.2-91.2c6.4-14.8,16.6-14.8,22.8,0.1l38.3,91.1h83.6C405.3,210.5,408.9,219.5,397.2,230.5z"/>
</svg>
