<?xml version="1.0" encoding="utf-8"?>
<!-- Generator: Adobe Illustrator 18.0.0, SVG Export Plug-In . SVG Version: 6.00 Build 0)  -->
<!DOCTYPE svg PUBLIC "-//W3C//DTD SVG 1.1//EN" "http://www.w3.org/Graphics/SVG/1.1/DTD/svg11.dtd">
<svg version="1.1" id="Artwork" xmlns="http://www.w3.org/2000/svg" xmlns:xlink="http://www.w3.org/1999/xlink" x="0px" y="0px"
	 viewBox="0 0 800 800" enable-background="new 0 0 800 800" xml:space="preserve">
<path d="M736.8,201.4L598.6,63.3c-7.5-7.5-19.7-7.5-27.2,0l-15.9,15.9c-7.5,7.5-7.5,19.7,0,27.2l6.4,6.4L404.3,270.5
	c-38-20.8-86.5-15.2-118.6,16.9l-56.8,56.8c-7.5,7.5-7.5,19.7,0,27.2l69.7,69.7L62.8,701.7c-7.1,7.9-6.9,20.4,0.6,27.9l6.9,6.9
	c7.5,7.5,20,7.9,27.9,0.6l260.4-235.5l69.1,69.1c7.5,7.5,19.7,7.5,27.2,0l56.8-56.8c32-32,37.8-80,17.4-118l157.7-157.7l6.4,6.4
	c7.5,7.5,19.7,7.5,27.2,0l15.9-15.9C744.3,221.2,744.3,209,736.8,201.4z"/>
</svg>
