<?xml version="1.0" encoding="utf-8"?>
<!-- Generator: Adobe Illustrator 18.0.0, SVG Export Plug-In . SVG Version: 6.00 Build 0)  -->
<!DOCTYPE svg PUBLIC "-//W3C//DTD SVG 1.1//EN" "http://www.w3.org/Graphics/SVG/1.1/DTD/svg11.dtd">
<svg version="1.1" id="Artwork" xmlns="http://www.w3.org/2000/svg" xmlns:xlink="http://www.w3.org/1999/xlink" x="0px" y="0px"
	 viewBox="0 0 800 800" enable-background="new 0 0 800 800" xml:space="preserve">
<path d="M613.8,325h-40v-105c0-74.6-60.4-135-135-135h-78c-74.6,0-135,60.4-135,135v45c0,10,8,18,18,18h42c10,0,18-8,18-18v-27
	c0-39.8,32.2-72,72-72h48c39.8,0,72,32.2,72,72v87H324.7H209h-22.6c-19.8,0-36,16.2-36,36v318.1c0,19.8,16.2,36,36,36h427.1
	c19.8,0,36-16.2,36-36V361C649.8,341.2,633.6,325,613.8,325z M423.5,561v40c0,13.2-10.8,24-24,24s-24-10.8-24-24v-40
	c-29.6-10-51-38-51-71c0-41.4,33.6-75,75-75s75,33.6,75,75C474.5,523,453.3,551,423.5,561z"/>
</svg>
