<?xml version="1.0" encoding="utf-8"?>
<!-- Generator: Adobe Illustrator 18.0.0, SVG Export Plug-In . SVG Version: 6.00 Build 0)  -->
<!DOCTYPE svg PUBLIC "-//W3C//DTD SVG 1.1//EN" "http://www.w3.org/Graphics/SVG/1.1/DTD/svg11.dtd">
<svg version="1.1" id="Artwork" xmlns="http://www.w3.org/2000/svg" xmlns:xlink="http://www.w3.org/1999/xlink" x="0px" y="0px"
	 viewBox="0 0 800 800" enable-background="new 0 0 800 800" xml:space="preserve">
<g>
	<g>
		<circle cx="401.1" cy="498.9" r="46.9"/>
		<path d="M423,254.2h-41.7c-13.8,0-25,11.3-25,25v133.3c0,13.7,11.3,25,25,25H423c13.7,0,25-11.3,25-25V279.2
			C448,265.5,436.7,254.2,423,254.2z"/>
		<path d="M400,87.5C227.3,87.5,87.5,227.3,87.5,400S227.3,712.5,400,712.5S712.5,572.7,712.5,400S572.7,87.5,400,87.5z
			 M400.3,623.1c-123.1,0-223-99.8-223-223s99.8-223,223-223s223,99.8,223,223S523.4,623.1,400.3,623.1z"/>
	</g>
</g>
</svg>
