<?xml version="1.0" encoding="utf-8"?>
<!-- Generator: Adobe Illustrator 18.0.0, SVG Export Plug-In . SVG Version: 6.00 Build 0)  -->
<!DOCTYPE svg PUBLIC "-//W3C//DTD SVG 1.1//EN" "http://www.w3.org/Graphics/SVG/1.1/DTD/svg11.dtd">
<svg version="1.1" id="Artwork" xmlns="http://www.w3.org/2000/svg" xmlns:xlink="http://www.w3.org/1999/xlink" x="0px" y="0px"
	 viewBox="0 0 800 800" enable-background="new 0 0 800 800" xml:space="preserve">
<g>
	<path d="M691.6,592.7H108.3c-11.6,0-20.8,9.2-20.8,20.8s9.2,20.8,20.8,20.8h583.3c11.6,0,20.8-9.2,20.8-20.8
		C712.3,601.9,703.1,592.7,691.6,592.7z"/>
	<path d="M687.3,165.8H112.5c-13.8,0-25,11.2-25,25v366.7c0,13.8,11.1,25,25,25h575c13.8,0,25-11.3,25-25V190.8
		C712.3,176.9,701.4,165.8,687.3,165.8z M400,567.7c-11.6,0-20.8-9.2-20.8-20.8c0-11.6,9.2-20.8,20.8-20.8
		c11.6,0,20.8,9.2,20.8,20.8C420.8,558.4,411.4,567.7,400,567.7z M652,494.7c0,7-5.6,12.5-12.5,12.5H160.3c-7,0-12.5-5.6-12.5-12.5
		V234.4c0-7,5.6-12.5,12.5-12.5h479.2c7,0,12.5,5.6,12.5,12.5V494.7L652,494.7z"/>
</g>
</svg>
