<?xml version="1.0" encoding="utf-8"?>
<!-- Generator: Adobe Illustrator 18.0.0, SVG Export Plug-In . SVG Version: 6.00 Build 0)  -->
<!DOCTYPE svg PUBLIC "-//W3C//DTD SVG 1.1//EN" "http://www.w3.org/Graphics/SVG/1.1/DTD/svg11.dtd">
<svg version="1.1" id="Artwork" xmlns="http://www.w3.org/2000/svg" xmlns:xlink="http://www.w3.org/1999/xlink" x="0px" y="0px"
	 viewBox="0 0 800 800" enable-background="new 0 0 800 800" xml:space="preserve">
<g>
	<path d="M429.7,364.8C405.5,449.1,328,510.8,236.1,511.3v-30.5c0-13-8.9-17.8-19.8-10.9l-133.9,85c-10.9,6.9-10.9,18.1,0,25.2
		l133.9,85c10.9,6.9,19.8,2,19.8-10.9v-30.5c111.4-0.6,201.6-91.1,201.6-202.7C437.7,401.6,434.9,382.7,429.7,364.8z"/>
	<path d="M697.7,131.6H191.4c-15.5,0-28.1,12.5-28.1,28.1v318.1l70.3-44.7v-203c0-15.5,12.7-28.1,28.1-28.1h365.6
		c15.6,0,28.1,12.7,28.1,28.1v225c0,15.5-12.7,28.1-28.1,28.1H449.1c-7.7,25.9-18.8,49.7-33.3,70.3h281.9
		c15.5,0,28.1-12.5,28.1-28.1V159.8C725.8,144.2,713.2,131.6,697.7,131.6z"/>
</g>
</svg>
