<?xml version="1.0" encoding="utf-8"?>
<!-- Generator: Adobe Illustrator 18.0.0, SVG Export Plug-In . SVG Version: 6.00 Build 0)  -->
<!DOCTYPE svg PUBLIC "-//W3C//DTD SVG 1.1//EN" "http://www.w3.org/Graphics/SVG/1.1/DTD/svg11.dtd">
<svg version="1.1" id="Artwork" xmlns="http://www.w3.org/2000/svg" xmlns:xlink="http://www.w3.org/1999/xlink" x="0px" y="0px"
	 viewBox="0 0 800 800" enable-background="new 0 0 800 800" xml:space="preserve">
<path d="M731.9,636L377,308c36.9-66.9,27-152.7-29.7-209.4c-41.4-41.4-98.3-57.8-152-49.4c-1.4,0.2-4.2,2.3-4.5,4.5
	c-0.2,1.7,1.9,3.4,2.8,4.5c35.6,35.6,107,107,107,107c5.5,5.5,8.3,16.1,6.3,23.6l-20.9,78.1c-1.1,4.1-3.9,8.3-7.3,11.6
	c-3.3,3.6-7.3,6.3-11.6,7.3l-78.1,20.9c-7.5,2-18.1-0.8-23.6-6.3c0,0-71.4-71.4-107-107c-0.9-0.9-2.8-3-4.5-2.8
	c-2.2,0.3-4.4,3.1-4.5,4.5c-8.6,53.8,8,110.6,49.4,152c56.7,56.7,142.5,66.6,209.4,29.7l328.1,354.7c25.3,27.5,67.3,28.3,93.8,1.9
	l3.7-3.8C760.2,703.3,759.2,661.4,731.9,636z M706.9,706.7c-13.7,13.8-35.9,13.8-49.7,0c-13.8-13.8-13.8-35.9,0-49.7
	c13.7-13.7,35.9-13.7,49.7,0C720.6,670.8,720.6,693,706.9,706.7z"/>
</svg>
