<?xml version="1.0" encoding="utf-8"?>
<!-- Generator: Adobe Illustrator 18.0.0, SVG Export Plug-In . SVG Version: 6.00 Build 0)  -->
<!DOCTYPE svg PUBLIC "-//W3C//DTD SVG 1.1//EN" "http://www.w3.org/Graphics/SVG/1.1/DTD/svg11.dtd">
<svg version="1.1" id="Artwork" xmlns="http://www.w3.org/2000/svg" xmlns:xlink="http://www.w3.org/1999/xlink" x="0px" y="0px"
	 viewBox="0 0 800 800" enable-background="new 0 0 800 800" xml:space="preserve">
<g>
	<path d="M728.5,653.5L630,555.2c-9.4-9.4-22.2-13.8-34.6-13.2L548,494.6c80.7-106.7,72.5-259.3-24.7-356.6
		C417,31.7,244.5,31.7,138.2,138.2C31.7,244.7,31.7,417,138,523.3c97.3,97.3,249.9,105.4,356.6,24.7l47.4,47.4
		c-0.6,12.4,3.8,25.2,13.2,34.6l98.3,98.3c17.6,17.6,46.3,17.6,63.9,0l10.9-10.9C746.1,699.8,746.1,671.3,728.5,653.5z M464.4,464.4
		c-73.8,73.8-193.7,74-267.5,0.2s-73.8-193.5,0.2-267.5c73.8-73.8,193.7-74,267.5-0.2C538.4,270.7,538.2,390.4,464.4,464.4z"/>
	<path d="M404.8,302.3H257.5c-16.1,0-29.1,13-29.1,28.9v0.2c0,15.9,13,28.9,29.1,28.9h147.4c16.1,0,29.1-13,29.1-28.9v-0.2
		C434,315.3,421,302.3,404.8,302.3z"/>
</g>
</svg>
