<?xml version="1.0" encoding="UTF-8" standalone="no"?>
<!-- Created with Inkscape (http://www.inkscape.org/) -->

<svg
   xmlns:dc="http://purl.org/dc/elements/1.1/"
   xmlns:cc="http://creativecommons.org/ns#"
   xmlns:rdf="http://www.w3.org/1999/02/22-rdf-syntax-ns#"
   xmlns:svg="http://www.w3.org/2000/svg"
   xmlns="http://www.w3.org/2000/svg"
   xmlns:xlink="http://www.w3.org/1999/xlink"
   xmlns:sodipodi="http://sodipodi.sourceforge.net/DTD/sodipodi-0.dtd"
   xmlns:inkscape="http://www.inkscape.org/namespaces/inkscape"
   width="65.800751"
   height="50.977451"
   id="svg51881"
   version="1.1"
   inkscape:version="0.48.4 r9939"
   sodipodi:docname="New document 32">
  <defs
     id="defs51883">
    <linearGradient
       y2="0"
       x2="1"
       y1="0"
       x1="0"
       spreadMethod="pad"
       gradientTransform="matrix(0,-8.3483886,8.3483886,0,384.10036,555.43086)"
       gradientUnits="userSpaceOnUse"
       id="linearGradient51718"
       xlink:href="#linearGradient30940-1-5"
       inkscape:collect="always" />
    <linearGradient
       x1="0"
       y1="0"
       x2="1"
       y2="0"
       gradientUnits="userSpaceOnUse"
       gradientTransform="matrix(0,6.6787109,6.6787109,0,340.95166,196.19434)"
       spreadMethod="pad"
       id="linearGradient30940-1-5">
      <stop
         style="stop-opacity:1;stop-color:#6a6b6d"
         offset="0"
         id="stop30942-7-4" />
      <stop
         style="stop-opacity:1;stop-color:#656668"
         offset="0.5"
         id="stop30944-6-9" />
      <stop
         style="stop-opacity:1;stop-color:#5c5c5e"
         offset="1"
         id="stop30946-4-6" />
    </linearGradient>
    <linearGradient
       x1="0"
       y1="0"
       x2="1"
       y2="0"
       gradientUnits="userSpaceOnUse"
       gradientTransform="matrix(0,6.6767578,6.6767578,0,355.71387,211.45898)"
       spreadMethod="pad"
       id="linearGradient34092-4">
      <stop
         style="stop-opacity:1;stop-color:#6a6b6d"
         offset="0"
         id="stop34094-8" />
      <stop
         style="stop-opacity:1;stop-color:#656668"
         offset="0.5"
         id="stop34096-8" />
      <stop
         style="stop-opacity:1;stop-color:#5c5c5e"
         offset="1"
         id="stop34098-4" />
    </linearGradient>
    <linearGradient
       x1="0"
       y1="0"
       x2="1"
       y2="0"
       gradientUnits="userSpaceOnUse"
       gradientTransform="matrix(0,6.6777344,6.6777344,0,341.08838,211.45898)"
       spreadMethod="pad"
       id="linearGradient34070-5">
      <stop
         style="stop-opacity:1;stop-color:#6a6b6d"
         offset="0"
         id="stop34072-4" />
      <stop
         style="stop-opacity:1;stop-color:#656668"
         offset="0.5"
         id="stop34074-3" />
      <stop
         style="stop-opacity:1;stop-color:#5c5c5e"
         offset="1"
         id="stop34076-1" />
    </linearGradient>
    <linearGradient
       x1="0"
       y1="0"
       x2="1"
       y2="0"
       gradientUnits="userSpaceOnUse"
       gradientTransform="matrix(0,5.3662109,5.3662109,0,314.53369,212.11523)"
       spreadMethod="pad"
       id="linearGradient34048-0">
      <stop
         style="stop-opacity:1;stop-color:#6a6b6d"
         offset="0"
         id="stop34050-4" />
      <stop
         style="stop-opacity:1;stop-color:#656668"
         offset="0.5"
         id="stop34052-9" />
      <stop
         style="stop-opacity:1;stop-color:#5c5c5e"
         offset="1"
         id="stop34054-2" />
    </linearGradient>
    <linearGradient
       x1="0"
       y1="0"
       x2="1"
       y2="0"
       gradientUnits="userSpaceOnUse"
       gradientTransform="matrix(0,5.3662109,5.3662109,0,329.34326,212.11523)"
       spreadMethod="pad"
       id="linearGradient34026-2">
      <stop
         style="stop-opacity:1;stop-color:#6a6b6d"
         offset="0"
         id="stop34028-1" />
      <stop
         style="stop-opacity:1;stop-color:#656668"
         offset="0.5"
         id="stop34030-4" />
      <stop
         style="stop-opacity:1;stop-color:#5c5c5e"
         offset="1"
         id="stop34032-1" />
    </linearGradient>
    <linearGradient
       x1="0"
       y1="0"
       x2="1"
       y2="0"
       gradientUnits="userSpaceOnUse"
       gradientTransform="matrix(0,5.3652344,5.3652344,0,313.40332,197.0127)"
       spreadMethod="pad"
       id="linearGradient31008-7">
      <stop
         style="stop-opacity:1;stop-color:#6a6b6d"
         offset="0"
         id="stop31010-1" />
      <stop
         style="stop-opacity:1;stop-color:#656668"
         offset="0.5"
         id="stop31012-1" />
      <stop
         style="stop-opacity:1;stop-color:#5c5c5e"
         offset="1"
         id="stop31014-1" />
    </linearGradient>
    <linearGradient
       x1="0"
       y1="0"
       x2="1"
       y2="0"
       gradientUnits="userSpaceOnUse"
       gradientTransform="matrix(0,6.6787109,6.6787109,0,355.3335,196.51758)"
       spreadMethod="pad"
       id="linearGradient30974-7">
      <stop
         style="stop-opacity:1;stop-color:#6a6b6d"
         offset="0"
         id="stop30976-8" />
      <stop
         style="stop-opacity:1;stop-color:#656668"
         offset="0.5"
         id="stop30978-0" />
      <stop
         style="stop-opacity:1;stop-color:#5c5c5e"
         offset="1"
         id="stop30980-0" />
    </linearGradient>
    <linearGradient
       x1="0"
       y1="0"
       x2="1"
       y2="0"
       gradientUnits="userSpaceOnUse"
       gradientTransform="matrix(0,5.3652344,5.3652344,0,327.93896,197.0127)"
       spreadMethod="pad"
       id="linearGradient30906-2">
      <stop
         style="stop-opacity:1;stop-color:#6a6b6d"
         offset="0"
         id="stop30908-0" />
      <stop
         style="stop-opacity:1;stop-color:#656668"
         offset="0.5"
         id="stop30910-3" />
      <stop
         style="stop-opacity:1;stop-color:#5c5c5e"
         offset="1"
         id="stop30912-6" />
    </linearGradient>
    <clipPath
       clipPathUnits="userSpaceOnUse"
       id="clipPath30000-0">
      <path
         inkscape:connector-curvature="0"
         d="m 0,595.276 841.89,0 L 841.89,0 0,0 0,595.276 z"
         id="path30002-2" />
    </clipPath>
    <linearGradient
       x1="0"
       y1="0"
       x2="1"
       y2="0"
       gradientUnits="userSpaceOnUse"
       gradientTransform="matrix(0,10.364258,10.364258,0,313.56592,224.25977)"
       spreadMethod="pad"
       id="linearGradient29986-2">
      <stop
         style="stop-opacity:1;stop-color:#6a6b6d"
         offset="0"
         id="stop29988-7" />
      <stop
         style="stop-opacity:1;stop-color:#656668"
         offset="0.5"
         id="stop29990-0" />
      <stop
         style="stop-opacity:1;stop-color:#5c5c5e"
         offset="1"
         id="stop29992-8" />
    </linearGradient>
    <clipPath
       clipPathUnits="userSpaceOnUse"
       id="clipPath29966-6">
      <path
         inkscape:connector-curvature="0"
         d="m 0,595.276 841.89,0 L 841.89,0 0,0 0,595.276 z"
         id="path29968-6" />
    </clipPath>
    <linearGradient
       x1="0"
       y1="0"
       x2="1"
       y2="0"
       gradientUnits="userSpaceOnUse"
       gradientTransform="matrix(0,10.363281,10.363281,0,355.33301,224.25977)"
       spreadMethod="pad"
       id="linearGradient29952-4">
      <stop
         style="stop-opacity:1;stop-color:#6a6b6d"
         offset="0"
         id="stop29954-2" />
      <stop
         style="stop-opacity:1;stop-color:#656668"
         offset="0.5"
         id="stop29956-8" />
      <stop
         style="stop-opacity:1;stop-color:#5c5c5e"
         offset="1"
         id="stop29958-5" />
    </linearGradient>
    <clipPath
       clipPathUnits="userSpaceOnUse"
       id="clipPath29932-5">
      <path
         inkscape:connector-curvature="0"
         d="m 0,595.276 841.89,0 L 841.89,0 0,0 0,595.276 z"
         id="path29934-4" />
    </clipPath>
    <linearGradient
       x1="0"
       y1="0"
       x2="1"
       y2="0"
       gradientUnits="userSpaceOnUse"
       gradientTransform="matrix(0,10.364258,10.364258,0,340.95215,224.25977)"
       spreadMethod="pad"
       id="linearGradient29918-3">
      <stop
         style="stop-opacity:1;stop-color:#6a6b6d"
         offset="0"
         id="stop29920-1" />
      <stop
         style="stop-opacity:1;stop-color:#656668"
         offset="0.5"
         id="stop29922-1" />
      <stop
         style="stop-opacity:1;stop-color:#5c5c5e"
         offset="1"
         id="stop29924-1" />
    </linearGradient>
    <clipPath
       clipPathUnits="userSpaceOnUse"
       id="clipPath29818-4">
      <path
         inkscape:connector-curvature="0"
         d="m 0,595.276 841.89,0 L 841.89,0 0,0 0,595.276 z"
         id="path29820-9" />
    </clipPath>
    <linearGradient
       x1="0"
       y1="0"
       x2="1"
       y2="0"
       gradientUnits="userSpaceOnUse"
       gradientTransform="matrix(0,10.364258,10.364258,0,327.77686,224.25977)"
       spreadMethod="pad"
       id="linearGradient29804-0">
      <stop
         style="stop-opacity:1;stop-color:#6a6b6d"
         offset="0"
         id="stop29806-4" />
      <stop
         style="stop-opacity:1;stop-color:#656668"
         offset="0.5"
         id="stop29808-7" />
      <stop
         style="stop-opacity:1;stop-color:#5c5c5e"
         offset="1"
         id="stop29810-6" />
    </linearGradient>
  </defs>
  <sodipodi:namedview
     id="base"
     pagecolor="#ffffff"
     bordercolor="#666666"
     borderopacity="1.0"
     inkscape:pageopacity="0.0"
     inkscape:pageshadow="2"
     inkscape:zoom="0.35"
     inkscape:cx="32.900375"
     inkscape:cy="25.488727"
     inkscape:document-units="px"
     inkscape:current-layer="layer1"
     showgrid="false"
     fit-margin-top="0"
     fit-margin-left="0"
     fit-margin-right="0"
     fit-margin-bottom="0"
     inkscape:window-width="551"
     inkscape:window-height="429"
     inkscape:window-x="342"
     inkscape:window-y="0"
     inkscape:window-maximized="0" />
  <metadata
     id="metadata51886">
    <rdf:RDF>
      <cc:Work
         rdf:about="">
        <dc:format>image/svg+xml</dc:format>
        <dc:type
           rdf:resource="http://purl.org/dc/dcmitype/StillImage" />
        <dc:title></dc:title>
      </cc:Work>
    </rdf:RDF>
  </metadata>
  <g
     inkscape:label="Layer 1"
     inkscape:groupmode="layer"
     id="layer1"
     transform="translate(-342.09963,-506.87346)">
    <g
       transform="matrix(1.25,0,0,-1.25,-43.0615,800.15346)"
       id="g29792">
      <g
         id="g29794">
        <g
           id="g29800">
          <g
             id="g29802">
            <path
               inkscape:connector-curvature="0"
               d="m 322.596,229.442 c 0,-2.861 2.32,-5.182 5.179,-5.182 l 0,0 c 2.863,0 5.183,2.321 5.183,5.182 l 0,0 c 0,2.861 -2.32,5.182 -5.183,5.182 l 0,0 c -2.859,0 -5.179,-2.321 -5.179,-5.182"
               style="fill:url(#linearGradient29804-0);stroke:none"
               id="path29812" />
          </g>
        </g>
      </g>
    </g>
    <g
       transform="matrix(1.25,0,0,-1.25,-43.0615,800.15346)"
       id="g29814">
      <g
         id="g29816"
         clip-path="url(#clipPath29818-4)">
        <g
           id="g29822"
           transform="translate(331.2783,229.4424)">
          <path
             inkscape:connector-curvature="0"
             d="m 0,0 -3.489,2.682 0,-1.696 -3.19,0 0,-1.973 3.19,0 0,-1.696 L 0,0 z"
             style="fill:#ffffff;fill-opacity:1;fill-rule:nonzero;stroke:none"
             id="path29824" />
        </g>
      </g>
    </g>
    <g
       transform="matrix(1.25,0,0,-1.25,-43.0615,800.15346)"
       id="g29906">
      <g
         id="g29908">
        <g
           id="g29914">
          <g
             id="g29916">
            <path
               inkscape:connector-curvature="0"
               d="m 335.771,229.442 c 0,-2.861 2.319,-5.182 5.181,-5.182 l 0,0 c 2.861,0 5.182,2.321 5.182,5.182 l 0,0 c 0,2.861 -2.321,5.182 -5.182,5.182 l 0,0 c -2.862,0 -5.181,-2.321 -5.181,-5.182"
               style="fill:url(#linearGradient29918-3);stroke:none"
               id="path29926" />
          </g>
        </g>
      </g>
    </g>
    <g
       transform="matrix(1.25,0,0,-1.25,-43.0615,800.15346)"
       id="g29928">
      <g
         id="g29930"
         clip-path="url(#clipPath29932-5)">
        <g
           id="g29936"
           transform="translate(340.9521,225.9404)">
          <path
             inkscape:connector-curvature="0"
             d="m 0,0 2.683,3.49 -1.697,0 0,3.189 -1.972,0 0,-3.189 -1.698,0 L 0,0 z"
             style="fill:#ffffff;fill-opacity:1;fill-rule:nonzero;stroke:none"
             id="path29938" />
        </g>
      </g>
    </g>
    <g
       transform="matrix(1.25,0,0,-1.25,-43.0615,800.15346)"
       id="g29940">
      <g
         id="g29942">
        <g
           id="g29948">
          <g
             id="g29950">
            <path
               inkscape:connector-curvature="0"
               d="m 350.151,229.442 c 0,-2.862 2.32,-5.182 5.182,-5.182 l 0,0 c 2.862,0 5.182,2.32 5.182,5.182 l 0,0 c 0,2.861 -2.32,5.181 -5.182,5.181 l 0,0 c -2.862,0 -5.182,-2.32 -5.182,-5.181"
               style="fill:url(#linearGradient29952-4);stroke:none"
               id="path29960" />
          </g>
        </g>
      </g>
    </g>
    <g
       transform="matrix(1.25,0,0,-1.25,-43.0615,800.15346)"
       id="g29962">
      <g
         id="g29964"
         clip-path="url(#clipPath29966-6)">
        <g
           id="g29970"
           transform="translate(355.333,232.9424)">
          <path
             inkscape:connector-curvature="0"
             d="m 0,0 -2.682,-3.488 1.696,0 0,-3.19 1.972,0 0,3.19 1.697,0 L 0,0 z"
             style="fill:#ffffff;fill-opacity:1;fill-rule:nonzero;stroke:none"
             id="path29972" />
        </g>
      </g>
    </g>
    <g
       transform="matrix(1.25,0,0,-1.25,-43.0615,800.15346)"
       id="g29974">
      <g
         id="g29976">
        <g
           id="g29982">
          <g
             id="g29984">
            <path
               inkscape:connector-curvature="0"
               d="m 308.384,229.442 c 0,-2.861 2.319,-5.182 5.18,-5.182 l 0,0 c 2.862,0 5.183,2.321 5.183,5.182 l 0,0 c 0,2.861 -2.321,5.182 -5.183,5.182 l 0,0 c -2.861,0 -5.18,-2.321 -5.18,-5.182"
               style="fill:url(#linearGradient29986-2);stroke:none"
               id="path29994" />
          </g>
        </g>
      </g>
    </g>
    <g
       transform="matrix(1.25,0,0,-1.25,-43.0615,800.15346)"
       id="g29996">
      <g
         id="g29998"
         clip-path="url(#clipPath30000-0)">
        <g
           id="g30004"
           transform="translate(310.0635,229.4424)">
          <path
             inkscape:connector-curvature="0"
             d="m 0,0 3.489,-2.683 0,1.696 3.191,0 0,1.973 -3.191,0 0,1.696 L 0,0 z"
             style="fill:#ffffff;fill-opacity:1;fill-rule:nonzero;stroke:none"
             id="path30006" />
        </g>
      </g>
    </g>
    <g
       transform="matrix(1.25,0,0,-1.25,-43.0615,800.15346)"
       id="g30894">
      <g
         id="g30896">
        <g
           id="g30902">
          <g
             id="g30904">
            <path
               inkscape:connector-curvature="0"
               id="path30914"
               style="fill:url(#linearGradient30906-2);stroke:none"
               d="m 327.789,200.683 -3.19,0 0,-1.974 3.19,0 0,-1.696 3.489,2.683 -3.489,2.682 0,-1.695 z m -0.0131,4.4488 c -2.997,0 -5.436,-2.438 -5.436,-5.437 0,-2.998 2.439,-5.436 5.436,-5.436 2.999,0 5.437,2.438 5.437,5.436 0,2.999 -2.438,5.437 -5.437,5.437 m 4.926,-5.437 c 0,-2.715 -2.21,-4.926 -4.926,-4.926 -2.716,0 -4.925,2.211 -4.925,4.926 0,2.715 2.209,4.926 4.925,4.926 2.716,0 4.926,-2.211 4.926,-4.926" />
          </g>
        </g>
      </g>
    </g>
    <g
       transform="matrix(1.25,0,0,-1.25,-43.0615,800.15346)"
       id="g30962">
      <g
         id="g30964">
        <g
           id="g30970">
          <g
             id="g30972">
            <path
               inkscape:connector-curvature="0"
               id="path30982"
               style="fill:url(#linearGradient30974-7);stroke:none"
               d="m 352.651,199.707 1.696,0 0,-3.189 1.972,0 0,3.189 1.697,0 -2.683,3.49 -2.682,-3.49 z m -2.7545,-0.0117 c 0,-2.998 2.438,-5.437 5.437,-5.437 2.998,0 5.436,2.439 5.436,5.437 0,2.997 -2.438,5.437 -5.436,5.437 -2.999,0 -5.437,-2.44 -5.437,-5.437 m 5.437,4.925 c 2.716,0 4.926,-2.21 4.926,-4.925 0,-2.716 -2.21,-4.927 -4.926,-4.927 -2.716,0 -4.926,2.211 -4.926,4.927 0,2.715 2.21,4.925 4.926,4.925" />
          </g>
        </g>
      </g>
    </g>
    <g
       transform="matrix(1.25,0,0,-1.25,-43.0615,800.15346)"
       id="g30996">
      <g
         id="g30998">
        <g
           id="g31004">
          <g
             id="g31006">
            <path
               inkscape:connector-curvature="0"
               id="path31016"
               style="fill:url(#linearGradient31008-7);stroke:none"
               d="m 310.064,199.696 3.489,-2.683 0,1.696 3.19,0 0,1.974 -3.19,0 0,1.695 -3.489,-2.682 z m 3.5009,-5.4372 c 3,0 5.436,2.438 5.436,5.437 0,2.998 -2.436,5.436 -5.436,5.436 -2.997,0 -5.436,-2.438 -5.436,-5.436 0,-2.999 2.439,-5.437 5.436,-5.437 m -4.925,5.437 c 0,2.714 2.209,4.925 4.925,4.925 2.716,0 4.926,-2.211 4.926,-4.925 0,-2.716 -2.21,-4.927 -4.926,-4.927 -2.716,0 -4.925,2.211 -4.925,4.927" />
          </g>
        </g>
      </g>
    </g>
    <g
       transform="matrix(1.25,0,0,-1.25,-43.0615,800.15346)"
       id="g34014">
      <g
         id="g34016">
        <g
           id="g34022">
          <g
             id="g34024">
            <path
               inkscape:connector-curvature="0"
               d="m 329.194,215.785 -3.19,0 0,-1.973 3.19,0 0,-1.696 3.489,2.682 -3.489,2.683 0,-1.696 z"
               style="fill:url(#linearGradient34026-2);stroke:none"
               id="path34034" />
          </g>
        </g>
      </g>
    </g>
    <g
       transform="matrix(1.25,0,0,-1.25,-43.0615,800.15346)"
       id="g34036">
      <g
         id="g34038">
        <g
           id="g34044">
          <g
             id="g34046">
            <path
               inkscape:connector-curvature="0"
               d="m 311.194,214.798 3.488,-2.682 0,1.696 3.192,0 0,1.973 -3.192,0 0,1.696 -3.488,-2.683 z"
               style="fill:url(#linearGradient34048-0);stroke:none"
               id="path34056" />
          </g>
        </g>
      </g>
    </g>
    <g
       transform="matrix(1.25,0,0,-1.25,-43.0615,800.15346)"
       id="g34058">
      <g
         id="g34060">
        <g
           id="g34066">
          <g
             id="g34068">
            <path
               inkscape:connector-curvature="0"
               d="m 340.103,218.137 0,-3.19 -1.699,0 2.685,-3.488 2.683,3.488 -1.697,0 0,3.19 -1.972,0 z"
               style="fill:url(#linearGradient34070-5);stroke:none"
               id="path34078" />
          </g>
        </g>
      </g>
    </g>
    <g
       transform="matrix(1.25,0,0,-1.25,-43.0615,800.15346)"
       id="g34080">
      <g
         id="g34082">
        <g
           id="g34088">
          <g
             id="g34090">
            <path
               inkscape:connector-curvature="0"
               d="m 353.03,214.647 1.698,0 0,-3.188 1.971,0 0,3.188 1.697,0 -2.683,3.489 -2.683,-3.489 z"
               style="fill:url(#linearGradient34092-4);stroke:none"
               id="path34100" />
          </g>
        </g>
      </g>
    </g>
    <path
       inkscape:connector-curvature="0"
       id="path30948"
       style="fill:url(#linearGradient51718);stroke:none"
       d="m 382.86828,547.08254 0,3.985 -2.1225,0 3.355,4.3625 3.3525,-4.36125 -2.11875,0 0,-3.98625 -2.46625,0 z m 8.02713,3.97212 c 0,-3.7475 -3.0475,-6.79625 -6.795,-6.79625 -3.7475,0 -6.79625,3.04875 -6.79625,6.79625 0,3.7475 3.04875,6.79625 6.79625,6.79625 3.7475,0 6.795,-3.04875 6.795,-6.79625 m -6.795,6.15875 c -3.39375,0 -6.1575,-2.76375 -6.1575,-6.15875 0,-3.39375 2.76375,-6.1575 6.1575,-6.1575 3.395,0 6.15625,2.76375 6.15625,6.1575 0,3.395 -2.76125,6.15875 -6.15625,6.15875" />
  </g>
</svg>
