<?xml version="1.0" encoding="UTF-8" standalone="no"?>
<!-- Created with Inkscape (http://www.inkscape.org/) -->

<svg
   xmlns:dc="http://purl.org/dc/elements/1.1/"
   xmlns:cc="http://creativecommons.org/ns#"
   xmlns:rdf="http://www.w3.org/1999/02/22-rdf-syntax-ns#"
   xmlns:svg="http://www.w3.org/2000/svg"
   xmlns="http://www.w3.org/2000/svg"
   xmlns:sodipodi="http://sodipodi.sourceforge.net/DTD/sodipodi-0.dtd"
   xmlns:inkscape="http://www.inkscape.org/namespaces/inkscape"
   width="65.287003"
   height="10.77725"
   id="svg52982"
   version="1.1"
   inkscape:version="0.48.4 r9939"
   sodipodi:docname="clocks.svg">
  <defs
     id="defs52984">
    <linearGradient
       x1="0"
       y1="0"
       x2="1"
       y2="0"
       gradientUnits="userSpaceOnUse"
       gradientTransform="matrix(0,-8.7079239,8.7079239,0,403.02375,537.55373)"
       spreadMethod="pad"
       id="linearGradient37366-0">
      <stop
         style="stop-opacity:1;stop-color:#6a6b6d"
         offset="0"
         id="stop37368-1" />
      <stop
         style="stop-opacity:1;stop-color:#656668"
         offset="0.5"
         id="stop37370-6" />
      <stop
         style="stop-opacity:1;stop-color:#5c5c5e"
         offset="1"
         id="stop37372-9" />
    </linearGradient>
    <linearGradient
       x1="0"
       y1="0"
       x2="1"
       y2="0"
       gradientUnits="userSpaceOnUse"
       gradientTransform="matrix(0,-9.1223145,9.1223145,0,384.32136,537.75027)"
       spreadMethod="pad"
       id="linearGradient37332-2">
      <stop
         style="stop-opacity:1;stop-color:#6a6b6d"
         offset="0"
         id="stop37334-2" />
      <stop
         style="stop-opacity:1;stop-color:#656668"
         offset="0.5"
         id="stop37336-0" />
      <stop
         style="stop-opacity:1;stop-color:#5c5c5e"
         offset="1"
         id="stop37338-2" />
    </linearGradient>
  </defs>
  <sodipodi:namedview
     id="base"
     pagecolor="#ffffff"
     bordercolor="#666666"
     borderopacity="1.0"
     inkscape:pageopacity="0.0"
     inkscape:pageshadow="2"
     inkscape:zoom="0.35"
     inkscape:cx="32.6435"
     inkscape:cy="5.3886274"
     inkscape:document-units="px"
     inkscape:current-layer="layer1"
     showgrid="false"
     inkscape:window-width="551"
     inkscape:window-height="429"
     inkscape:window-x="342"
     inkscape:window-y="0"
     inkscape:window-maximized="0"
     fit-margin-top="0"
     fit-margin-left="0"
     fit-margin-right="0"
     fit-margin-bottom="0" />
  <metadata
     id="metadata52987">
    <rdf:RDF>
      <cc:Work
         rdf:about="">
        <dc:format>image/svg+xml</dc:format>
        <dc:type
           rdf:resource="http://purl.org/dc/dcmitype/StillImage" />
        <dc:title></dc:title>
      </cc:Work>
    </rdf:RDF>
  </metadata>
  <g
     inkscape:label="Layer 1"
     inkscape:groupmode="layer"
     id="layer1"
     transform="translate(-342.3565,-526.97356)">
    <path
       inkscape:connector-curvature="0"
       d="m 346.91775,536.89581 c -2.04625,0 -3.70625,-1.65875 -3.70625,-3.7075 0,-2.04625 1.66,-3.70625 3.70625,-3.70625 2.0475,0 3.70625,1.66 3.70625,3.70625 0,2.04875 -1.65875,3.7075 -3.70625,3.7075 m 0,-8.2675 c -2.51875,0 -4.56125,2.0425 -4.56125,4.56 0,2.52125 2.0425,4.5625 4.56125,4.5625 2.51875,0 4.56125,-2.04125 4.56125,-4.5625 0,-2.5175 -2.0425,-4.56 -4.56125,-4.56"
       style="fill:#6a6b6d;fill-opacity:1;fill-rule:nonzero;stroke:none"
       id="path37306" />
    <path
       inkscape:connector-curvature="0"
       d="m 347.27488,532.83206 0,-3.0875 -0.7125,0 0,3.80125 0.45,0 0.2625,0 2.875,0 0,-0.71375 -2.875,0 z"
       style="fill:#6a6b6d;fill-opacity:1;fill-rule:nonzero;stroke:none"
       id="path37310" />
    <path
       inkscape:connector-curvature="0"
       d="m 365.62075,536.88481 c -2.0725,0 -3.755,-1.6825 -3.755,-3.755 0,-2.07125 1.6825,-3.7525 3.755,-3.7525 2.07125,0 3.7525,1.68125 3.7525,3.7525 0,2.0725 -1.68125,3.755 -3.7525,3.755 m 1.0925,-8.24375 0,-1.6675 -2.18625,0 0,1.6675 c -2.02375,0.49125 -3.5275,2.31375 -3.5275,4.48875 0,2.55125 2.06875,4.62 4.62125,4.62 2.55125,0 4.62,-2.06875 4.62,-4.62 0,-2.175 -1.505,-3.9975 -3.5275,-4.48875"
       style="fill:#6a6b6d;fill-opacity:1;fill-rule:nonzero;stroke:none"
       id="path37314" />
    <path
       inkscape:connector-curvature="0"
       d="m 365.9815,532.76981 0,-3.13 -0.7225,0 0,3.85125 0.45625,0 0.26625,0 2.91125,0 0,-0.72125 -2.91125,0 z"
       style="fill:#6a6b6d;fill-opacity:1;fill-rule:nonzero;stroke:none"
       id="path37318" />
    <path
       inkscape:connector-curvature="0"
       d="m 379.761,533.18781 c 0,2.52125 2.04125,4.5625 4.56125,4.5625 l 0,0 c 2.5175,0 4.56,-2.04125 4.56,-4.5625 l 0,0 c 0,-2.5175 -2.0425,-4.56 -4.56,-4.56 l 0,0 c -2.52,0 -4.56125,2.0425 -4.56125,4.56"
       style="fill:url(#linearGradient37332-2);stroke:none"
       id="path37340" />
    <path
       inkscape:connector-curvature="0"
       d="m 384.67838,532.83206 0,-3.0875 -0.7125,0 0,3.80125 0.45125,0 0.26125,0 2.87375,0 0,-0.71375 -2.87375,0 z"
       style="fill:#ffffff;fill-opacity:1;fill-rule:nonzero;stroke:none"
       id="path37352" />
    <path
       inkscape:connector-curvature="0"
       d="m 401.93225,526.97406 0,1.6675 c -2.02375,0.49125 -3.52875,2.31375 -3.52875,4.4875 l 0,0 c 0,2.5525 2.07,4.62125 4.62125,4.62125 l 0,0 c 2.54875,0 4.61875,-2.06875 4.61875,-4.62125 l 0,0 c 0,-2.17375 -1.505,-3.99625 -3.52875,-4.4875 l 0,0 0,-1.6675 -2.1825,0 z"
       style="fill:url(#linearGradient37366-0);stroke:none"
       id="path37374" />
    <path
       inkscape:connector-curvature="0"
       d="m 403.38388,532.76981 0,-3.13 -0.72125,0 0,3.85125 0.4575,0 0.26375,0 2.9125,0 0,-0.72125 -2.9125,0 z"
       style="fill:#ffffff;fill-opacity:1;fill-rule:nonzero;stroke:none"
       id="path37386" />
  </g>
</svg>
