<?xml version="1.0" encoding="UTF-8" standalone="no"?>
<!-- Created with Inkscape (http://www.inkscape.org/) -->

<svg
   xmlns:dc="http://purl.org/dc/elements/1.1/"
   xmlns:cc="http://creativecommons.org/ns#"
   xmlns:rdf="http://www.w3.org/1999/02/22-rdf-syntax-ns#"
   xmlns:svg="http://www.w3.org/2000/svg"
   xmlns="http://www.w3.org/2000/svg"
   xmlns:sodipodi="http://sodipodi.sourceforge.net/DTD/sodipodi-0.dtd"
   xmlns:inkscape="http://www.inkscape.org/namespaces/inkscape"
   width="11.098297"
   height="11.092265"
   id="svg56967"
   version="1.1"
   inkscape:version="0.48.4 r9939"
   sodipodi:docname="New document 79">
  <defs
     id="defs56969">
    <linearGradient
       x1="0"
       y1="0"
       x2="1"
       y2="0"
       gradientUnits="userSpaceOnUse"
       gradientTransform="matrix(0,8.8730469,8.8730469,0,463.70117,207.58887)"
       spreadMethod="pad"
       id="linearGradient34004-4">
      <stop
         style="stop-opacity:1;stop-color:#6a6b6d"
         offset="0"
         id="stop34006-2" />
      <stop
         style="stop-opacity:1;stop-color:#656668"
         offset="0.5"
         id="stop34008-0" />
      <stop
         style="stop-opacity:1;stop-color:#5c5c5e"
         offset="1"
         id="stop34010-5" />
    </linearGradient>
  </defs>
  <sodipodi:namedview
     id="base"
     pagecolor="#ffffff"
     bordercolor="#666666"
     borderopacity="1.0"
     inkscape:pageopacity="0.0"
     inkscape:pageshadow="2"
     inkscape:zoom="0.35"
     inkscape:cx="5.5491523"
     inkscape:cy="5.5461327"
     inkscape:document-units="px"
     inkscape:current-layer="layer1"
     showgrid="false"
     fit-margin-top="0"
     fit-margin-left="0"
     fit-margin-right="0"
     fit-margin-bottom="0"
     inkscape:window-width="551"
     inkscape:window-height="429"
     inkscape:window-x="342"
     inkscape:window-y="0"
     inkscape:window-maximized="0" />
  <metadata
     id="metadata56972">
    <rdf:RDF>
      <cc:Work
         rdf:about="">
        <dc:format>image/svg+xml</dc:format>
        <dc:type
           rdf:resource="http://purl.org/dc/dcmitype/StillImage" />
        <dc:title></dc:title>
      </cc:Work>
    </rdf:RDF>
  </metadata>
  <g
     inkscape:label="Layer 1"
     inkscape:groupmode="layer"
     id="layer1"
     transform="translate(-369.45085,-526.81605)">
    <g
       transform="matrix(1.25,0,0,-1.25,-204.62562,797.39355)"
       id="g33992">
      <g
         id="g33994">
        <g
           id="g34000">
          <g
             id="g34002">
            <path
               inkscape:connector-curvature="0"
               d="m 460.919,216.346 0,-0.741 c 0,-0.072 0.058,-0.136 0.128,-0.145 l 0,0 0.603,-0.067 c 0.071,-0.009 0.16,-0.065 0.198,-0.126 l 0,0 0.35,-0.555 c 0.038,-0.062 0.05,-0.167 0.026,-0.232 l 0,0 -0.117,-0.339 c -0.025,-0.066 -0.086,-0.163 -0.134,-0.211 l 0,0 -0.203,-0.203 c -0.05,-0.05 -0.146,-0.111 -0.213,-0.135 l 0,0 -0.337,-0.117 c -0.066,-0.024 -0.173,-0.011 -0.233,0.027 l 0,0 -0.556,0.349 c -0.061,0.038 -0.118,0.127 -0.125,0.198 l 0,0 -0.073,0.654 c -0.008,0.07 -0.014,0.13 -0.014,0.13 l 0,0 c 0,0.002 0,0.004 0,0.005 l 0,0 c -0.002,0.002 -0.063,0.003 -0.133,0.003 l 0,0 -0.709,0 c -0.072,0 -0.123,-0.058 -0.115,-0.128 l 0,0 0.13,-1.172 c 0.008,-0.071 0.065,-0.161 0.125,-0.198 l 0,0 1.33,-0.835 c 0.06,-0.039 0.165,-0.05 0.231,-0.027 l 0,0 0.745,0.26 c 0.066,0.024 0.163,0.003 0.213,-0.049 l 0,0 2.332,-2.33 c 0.05,-0.052 0.072,-0.149 0.049,-0.216 l 0,0 -0.26,-0.742 c -0.023,-0.067 -0.014,-0.173 0.025,-0.233 l 0,0 0.836,-1.329 c 0.038,-0.059 0.128,-0.117 0.197,-0.123 l 0,0 1.14,-0.13 c 0.069,-0.008 0.128,0.044 0.128,0.116 l 0,0 0,0.74 c 0,0.071 -0.059,0.137 -0.128,0.144 l 0,0 -0.604,0.067 c -0.071,0.008 -0.159,0.065 -0.198,0.125 l 0,0 -0.352,0.558 c -0.034,0.061 -0.047,0.165 -0.025,0.231 l 0,0 0.219,0.622 c 0.022,0.068 0.096,0.143 0.164,0.165 l 0,0 0.623,0.217 c 0.065,0.026 0.172,0.013 0.231,-0.026 l 0,0 0.556,-0.349 c 0.062,-0.038 0.117,-0.126 0.126,-0.198 l 0,0 0.072,-0.656 c 0.009,-0.068 0.017,-0.128 0.016,-0.129 l 0,0 c -0.002,-0.001 -10e-4,-0.004 0.001,-0.004 l 0,0 c 0,-0.002 0.06,-0.003 0.13,-0.003 l 0,0 0.708,0 c 0.073,0 0.125,0.057 0.117,0.129 l 0,0 -0.132,1.171 c -0.007,0.071 -0.063,0.161 -0.124,0.198 l 0,0 -1.328,0.836 c -0.062,0.036 -0.165,0.049 -0.233,0.025 l 0,0 -0.743,-0.26 c -0.068,-0.023 -0.164,-0.002 -0.215,0.05 l 0,0 -2.332,2.331 c -0.049,0.051 -0.072,0.146 -0.048,0.214 l 0,0 0.26,0.743 c 0.022,0.068 0.012,0.172 -0.028,0.233 l 0,0 -0.833,1.329 c -0.038,0.059 -0.126,0.115 -0.2,0.125 l 0,0 -1.136,0.128 c -0.004,0 -0.009,10e-4 -0.014,10e-4 l 0,0 c -0.063,0 -0.114,-0.05 -0.114,-0.116"
               style="fill:url(#linearGradient34004-4);stroke:none"
               id="path34012" />
          </g>
        </g>
      </g>
    </g>
  </g>
</svg>
