<?xml version="1.0" encoding="UTF-8" standalone="no"?>
<!-- Created with Inkscape (http://www.inkscape.org/) -->

<svg
   xmlns:dc="http://purl.org/dc/elements/1.1/"
   xmlns:cc="http://creativecommons.org/ns#"
   xmlns:rdf="http://www.w3.org/1999/02/22-rdf-syntax-ns#"
   xmlns:svg="http://www.w3.org/2000/svg"
   xmlns="http://www.w3.org/2000/svg"
   xmlns:sodipodi="http://sodipodi.sourceforge.net/DTD/sodipodi-0.dtd"
   xmlns:inkscape="http://www.inkscape.org/namespaces/inkscape"
   width="7.0812502"
   height="13.63125"
   id="svg53319"
   version="1.1"
   inkscape:version="0.48.4 r9939"
   sodipodi:docname="New document 49">
  <defs
     id="defs53321">
    <linearGradient
       x1="0"
       y1="0"
       x2="1"
       y2="0"
       gradientUnits="userSpaceOnUse"
       gradientTransform="matrix(0,10.912979,10.912979,0,420.68799,207.96289)"
       spreadMethod="pad"
       id="linearGradient32574-1">
      <stop
         style="stop-opacity:1;stop-color:#6a6b6d"
         offset="0"
         id="stop32576-3" />
      <stop
         style="stop-opacity:1;stop-color:#656668"
         offset="0.5"
         id="stop32578-3" />
      <stop
         style="stop-opacity:1;stop-color:#5c5c5e"
         offset="1"
         id="stop32580-7" />
    </linearGradient>
    <linearGradient
       x1="0"
       y1="0"
       x2="1"
       y2="0"
       gradientUnits="userSpaceOnUse"
       gradientTransform="matrix(0,10.910019,10.910019,0,418.94775,207.96484)"
       spreadMethod="pad"
       id="linearGradient32552-8">
      <stop
         style="stop-opacity:1;stop-color:#6a6b6d"
         offset="0"
         id="stop32554-4" />
      <stop
         style="stop-opacity:1;stop-color:#656668"
         offset="0.5"
         id="stop32556-2" />
      <stop
         style="stop-opacity:1;stop-color:#5c5c5e"
         offset="1"
         id="stop32558-5" />
    </linearGradient>
    <linearGradient
       x1="0"
       y1="0"
       x2="1"
       y2="0"
       gradientUnits="userSpaceOnUse"
       gradientTransform="matrix(0,10.912979,10.912979,0,418.94775,207.96289)"
       spreadMethod="pad"
       id="linearGradient32530-0">
      <stop
         style="stop-opacity:1;stop-color:#6a6b6d"
         offset="0"
         id="stop32532-1" />
      <stop
         style="stop-opacity:1;stop-color:#656668"
         offset="0.5"
         id="stop32534-8" />
      <stop
         style="stop-opacity:1;stop-color:#5c5c5e"
         offset="1"
         id="stop32536-3" />
    </linearGradient>
    <linearGradient
       x1="0"
       y1="0"
       x2="1"
       y2="0"
       gradientUnits="userSpaceOnUse"
       gradientTransform="matrix(0,10.912399,10.912399,0,417.20654,207.96387)"
       spreadMethod="pad"
       id="linearGradient32508-2">
      <stop
         style="stop-opacity:1;stop-color:#6a6b6d"
         offset="0"
         id="stop32510-0" />
      <stop
         style="stop-opacity:1;stop-color:#656668"
         offset="0.5"
         id="stop32512-1" />
      <stop
         style="stop-opacity:1;stop-color:#5c5c5e"
         offset="1"
         id="stop32514-3" />
    </linearGradient>
    <linearGradient
       x1="0"
       y1="0"
       x2="1"
       y2="0"
       gradientUnits="userSpaceOnUse"
       gradientTransform="matrix(0,10.917358,10.917358,0,418.94678,207.96289)"
       spreadMethod="pad"
       id="linearGradient32486-0">
      <stop
         style="stop-opacity:1;stop-color:#6a6b6d"
         offset="0"
         id="stop32488-1" />
      <stop
         style="stop-opacity:1;stop-color:#656668"
         offset="0.5"
         id="stop32490-4" />
      <stop
         style="stop-opacity:1;stop-color:#5c5c5e"
         offset="1"
         id="stop32492-5" />
    </linearGradient>
    <linearGradient
       x1="0"
       y1="0"
       x2="1"
       y2="0"
       gradientUnits="userSpaceOnUse"
       gradientTransform="matrix(0,10.803879,10.803879,0,418.94775,208.05273)"
       spreadMethod="pad"
       id="linearGradient32464-3">
      <stop
         style="stop-opacity:1;stop-color:#6a6b6d"
         offset="0"
         id="stop32466-1" />
      <stop
         style="stop-opacity:1;stop-color:#656668"
         offset="0.5"
         id="stop32468-7" />
      <stop
         style="stop-opacity:1;stop-color:#5c5c5e"
         offset="1"
         id="stop32470-7" />
    </linearGradient>
    <linearGradient
       x1="0"
       y1="0"
       x2="1"
       y2="0"
       gradientUnits="userSpaceOnUse"
       gradientTransform="matrix(0,10.905502,10.905502,0,418.94678,207.96973)"
       spreadMethod="pad"
       id="linearGradient32442-5">
      <stop
         style="stop-opacity:1;stop-color:#6a6b6d"
         offset="0"
         id="stop32444-2" />
      <stop
         style="stop-opacity:1;stop-color:#656668"
         offset="0.5"
         id="stop32446-9" />
      <stop
         style="stop-opacity:1;stop-color:#5c5c5e"
         offset="1"
         id="stop32448-1" />
    </linearGradient>
  </defs>
  <sodipodi:namedview
     id="base"
     pagecolor="#ffffff"
     bordercolor="#666666"
     borderopacity="1.0"
     inkscape:pageopacity="0.0"
     inkscape:pageshadow="2"
     inkscape:zoom="0.35"
     inkscape:cx="3.54062"
     inkscape:cy="6.8156274"
     inkscape:document-units="px"
     inkscape:current-layer="layer1"
     showgrid="false"
     fit-margin-top="0"
     fit-margin-left="0"
     fit-margin-right="0"
     fit-margin-bottom="0"
     inkscape:window-width="551"
     inkscape:window-height="429"
     inkscape:window-x="342"
     inkscape:window-y="0"
     inkscape:window-maximized="0" />
  <metadata
     id="metadata53324">
    <rdf:RDF>
      <cc:Work
         rdf:about="">
        <dc:format>image/svg+xml</dc:format>
        <dc:type
           rdf:resource="http://purl.org/dc/dcmitype/StillImage" />
        <dc:title></dc:title>
      </cc:Work>
    </rdf:RDF>
  </metadata>
  <g
     inkscape:label="Layer 1"
     inkscape:groupmode="layer"
     id="layer1"
     transform="translate(-371.45938,-525.54656)">
    <g
       transform="matrix(1.25,0,0,-1.25,-148.68437,799.30656)"
       id="g32430">
      <g
         id="g32432">
        <g
           id="g32438">
          <g
             id="g32440">
            <path
               inkscape:connector-curvature="0"
               d="m 417.109,219.008 c -0.422,0 -0.765,-0.332 -0.765,-0.74 l 0,0 0,-1.125 5.206,0 0,1.125 c 0,0.408 -0.342,0.74 -0.764,0.74 l 0,0 -3.677,0 z"
               style="fill:url(#linearGradient32442-5);stroke:none"
               id="path32450" />
          </g>
        </g>
      </g>
    </g>
    <g
       transform="matrix(1.25,0,0,-1.25,-148.68437,799.30656)"
       id="g32452">
      <g
         id="g32454">
        <g
           id="g32460">
          <g
             id="g32462">
            <path
               inkscape:connector-curvature="0"
               d="m 416.115,216.776 5.665,0 0,0.273 -5.665,0 0,-0.273 z"
               style="fill:url(#linearGradient32464-3);stroke:none"
               id="path32472" />
          </g>
        </g>
      </g>
    </g>
    <g
       transform="matrix(1.25,0,0,-1.25,-148.68437,799.30656)"
       id="g32474">
      <g
         id="g32476">
        <g
           id="g32482">
          <g
             id="g32484">
            <path
               inkscape:connector-curvature="0"
               d="m 417.739,209.639 c 0.597,-0.759 1.173,-1.49 1.208,-1.536 l 0,0 c 0.036,0.046 0.611,0.777 1.208,1.536 l 0,0 -2.416,0 z"
               style="fill:url(#linearGradient32486-0);stroke:none"
               id="path32494" />
          </g>
        </g>
      </g>
    </g>
    <g
       transform="matrix(1.25,0,0,-1.25,-148.68437,799.30656)"
       id="g32496">
      <g
         id="g32498">
        <g
           id="g32504">
          <g
             id="g32506">
            <path
               inkscape:connector-curvature="0"
               d="m 416.385,216.681 0,-5.236 c 0.473,0.379 1.17,0.379 1.643,0.001 l 0,0 0,5.235 -1.643,0 z"
               style="fill:url(#linearGradient32508-2);stroke:none"
               id="path32516" />
          </g>
        </g>
      </g>
    </g>
    <g
       transform="matrix(1.25,0,0,-1.25,-148.68437,799.30656)"
       id="g32518">
      <g
         id="g32520">
        <g
           id="g32526">
          <g
             id="g32528">
            <path
               inkscape:connector-curvature="0"
               d="m 418.126,216.681 0,-5.236 c 0.23,0.185 0.517,0.286 0.821,0.286 l 0,0 c 0.304,0 0.593,-0.101 0.823,-0.286 l 0,0 0,5.236 -1.644,0 z"
               style="fill:url(#linearGradient32530-0);stroke:none"
               id="path32538" />
          </g>
        </g>
      </g>
    </g>
    <g
       transform="matrix(1.25,0,0,-1.25,-148.68437,799.30656)"
       id="g32540">
      <g
         id="g32542">
        <g
           id="g32548">
          <g
             id="g32550">
            <path
               inkscape:connector-curvature="0"
               d="m 419.866,211.323 -0.04,-0.051 -0.042,0.037 c -0.224,0.213 -0.522,0.33 -0.837,0.33 l 0,0 c -0.316,0 -0.612,-0.117 -0.836,-0.33 l 0,0 -0.031,-0.035 -0.052,0.049 c -0.451,0.416 -1.169,0.421 -1.627,0.013 l 0,0 c 0.125,-0.159 0.696,-0.882 1.264,-1.605 l 0,0 2.563,0 c 0.57,0.723 1.141,1.446 1.266,1.605 l 0,0 c -0.22,0.195 -0.504,0.303 -0.805,0.303 l 0,0 c -0.309,0 -0.601,-0.112 -0.823,-0.316"
               style="fill:url(#linearGradient32552-8);stroke:none"
               id="path32560" />
          </g>
        </g>
      </g>
    </g>
    <g
       transform="matrix(1.25,0,0,-1.25,-148.68437,799.30656)"
       id="g32562">
      <g
         id="g32564">
        <g
           id="g32570">
          <g
             id="g32572">
            <path
               inkscape:connector-curvature="0"
               d="m 419.866,216.681 0,-5.235 c 0.231,0.184 0.519,0.285 0.823,0.285 l 0,0 c 0.302,0 0.591,-0.101 0.821,-0.286 l 0,0 0,5.236 -1.644,0 z"
               style="fill:url(#linearGradient32574-1);stroke:none"
               id="path32582" />
          </g>
        </g>
      </g>
    </g>
  </g>
</svg>
