<?xml version="1.0" encoding="UTF-8" standalone="no"?>
<!-- Created with Inkscape (http://www.inkscape.org/) -->

<svg
   xmlns:dc="http://purl.org/dc/elements/1.1/"
   xmlns:cc="http://creativecommons.org/ns#"
   xmlns:rdf="http://www.w3.org/1999/02/22-rdf-syntax-ns#"
   xmlns:svg="http://www.w3.org/2000/svg"
   xmlns="http://www.w3.org/2000/svg"
   xmlns:sodipodi="http://sodipodi.sourceforge.net/DTD/sodipodi-0.dtd"
   xmlns:inkscape="http://www.inkscape.org/namespaces/inkscape"
   width="76.089127"
   height="11.62625"
   id="svg56080"
   version="1.1"
   inkscape:version="0.48.4 r9939"
   sodipodi:docname="New document 64">
  <defs
     id="defs56082" />
  <sodipodi:namedview
     id="base"
     pagecolor="#ffffff"
     bordercolor="#666666"
     borderopacity="1.0"
     inkscape:pageopacity="0.0"
     inkscape:pageshadow="2"
     inkscape:zoom="0.35"
     inkscape:cx="38.04456"
     inkscape:cy="5.8131224"
     inkscape:document-units="px"
     inkscape:current-layer="layer1"
     showgrid="false"
     fit-margin-top="0"
     fit-margin-left="0"
     fit-margin-right="0"
     fit-margin-bottom="0"
     inkscape:window-width="551"
     inkscape:window-height="429"
     inkscape:window-x="342"
     inkscape:window-y="0"
     inkscape:window-maximized="0" />
  <metadata
     id="metadata56085">
    <rdf:RDF>
      <cc:Work
         rdf:about="">
        <dc:format>image/svg+xml</dc:format>
        <dc:type
           rdf:resource="http://purl.org/dc/dcmitype/StillImage" />
        <dc:title></dc:title>
      </cc:Work>
    </rdf:RDF>
  </metadata>
  <g
     inkscape:label="Layer 1"
     inkscape:groupmode="layer"
     id="layer1"
     transform="translate(-336.95544,-526.54906)">
    <g
       id="g35270"
       transform="matrix(1.25,0,0,-1.25,345.66944,531.03093)">
      <path
         id="path35272"
         style="fill:#6a6b6d;fill-opacity:1;fill-rule:nonzero;stroke:none"
         d="m 0,0 c 0,-0.44 -0.358,-0.798 -0.799,-0.798 -0.44,0 -0.798,0.358 -0.798,0.798 0,0.443 0.358,0.8 0.798,0.8 C -0.358,0.8 0,0.443 0,0 m -3.061,0 c 0,-0.44 -0.358,-0.798 -0.799,-0.798 -0.442,0 -0.799,0.358 -0.799,0.798 0,0.443 0.357,0.8 0.799,0.8 0.441,0 0.799,-0.357 0.799,-0.8 m -3.9102,-1.0655 c 0,-2.563 2.085,-4.65 4.65,-4.65 2.564,0 4.651,2.087 4.651,4.65 0,2.564 -2.087,4.651 -4.651,4.651 -2.565,0 -4.65,-2.087 -4.65,-4.651 m 4.65,3.452 c 1.903,0 3.453,-1.547 3.453,-3.452 0,-1.904 -1.55,-3.451 -3.453,-3.451 -1.904,0 -3.453,1.547 -3.453,3.451 0,1.905 1.549,3.452 3.453,3.452"
         inkscape:connector-curvature="0" />
    </g>
    <g
       id="g35286"
       transform="matrix(1.25,0,0,-1.25,361.78581,531.03093)">
      <path
         id="path35288"
         style="fill:#6a6b6d;fill-opacity:1;fill-rule:nonzero;stroke:none"
         d="m 0,0 c 0,-0.44 -0.358,-0.798 -0.798,-0.798 -0.441,0 -0.8,0.358 -0.8,0.798 0,0.443 0.359,0.8 0.8,0.8 C -0.358,0.8 0,0.443 0,0 m -3.062,0 c 0,-0.44 -0.357,-0.798 -0.799,-0.798 -0.441,0 -0.798,0.358 -0.798,0.798 0,0.443 0.357,0.8 0.798,0.8 0.442,0 0.799,-0.357 0.799,-0.8 m 2.3667,-1.2999 c 0,-0.896 -0.729,-1.628 -1.625,-1.628 -0.898,0 -1.628,0.732 -1.628,1.628 l -0.798,0 c 0,-1.34 1.088,-2.427 2.426,-2.427 1.335,0 2.424,1.087 2.424,2.427 l -0.799,0 z m -6.2769,0.2344 c 0,-2.563 2.086,-4.65 4.652,-4.65 2.563,0 4.65,2.087 4.65,4.65 0,2.564 -2.087,4.651 -4.65,4.651 -2.566,0 -4.652,-2.087 -4.652,-4.651 m 4.652,3.452 c 1.903,0 3.451,-1.547 3.451,-3.452 0,-1.904 -1.548,-3.451 -3.451,-3.451 -1.905,0 -3.454,1.547 -3.454,3.451 0,1.905 1.549,3.452 3.454,3.452"
         inkscape:connector-curvature="0" />
    </g>
    <g
       id="g35300"
       transform="matrix(1.25,0,0,-1.25,410.13294,531.03093)">
      <path
         id="path35302"
         style="fill:#6a6b6d;fill-opacity:1;fill-rule:nonzero;stroke:none"
         d="m 0,0 c 0,-0.44 -0.357,-0.798 -0.798,-0.798 -0.441,0 -0.799,0.358 -0.799,0.798 0,0.443 0.358,0.8 0.799,0.8 C -0.357,0.8 0,0.443 0,0 m -3.061,0 c 0,-0.44 -0.359,-0.798 -0.799,-0.798 -0.442,0 -0.799,0.358 -0.799,0.798 0,0.443 0.357,0.8 0.799,0.8 0.44,0 0.799,-0.357 0.799,-0.8 m 2.7652,-1.699 -4.051,0 0,-0.8 4.051,0 0,0.8 z m -6.6759,0.6335 c 0,-2.563 2.086,-4.65 4.652,-4.65 2.562,0 4.649,2.087 4.649,4.65 0,2.564 -2.087,4.651 -4.649,4.651 -2.566,0 -4.652,-2.087 -4.652,-4.651 m 4.652,3.452 c 1.903,0 3.452,-1.547 3.452,-3.452 0,-1.904 -1.549,-3.451 -3.452,-3.451 -1.906,0 -3.454,1.547 -3.454,3.451 0,1.905 1.548,3.452 3.454,3.452"
         inkscape:connector-curvature="0" />
    </g>
    <g
       id="g35316"
       transform="matrix(1.25,0,0,-1.25,377.90206,531.03093)">
      <path
         id="path35318"
         style="fill:#6a6b6d;fill-opacity:1;fill-rule:nonzero;stroke:none"
         d="m 0,0 c 0,-0.44 -0.358,-0.798 -0.799,-0.798 -0.441,0 -0.798,0.358 -0.798,0.798 0,0.443 0.357,0.8 0.798,0.8 C -0.358,0.8 0,0.443 0,0 m -3.062,0 c 0,-0.44 -0.357,-0.798 -0.798,-0.798 -0.441,0 -0.799,0.358 -0.799,0.798 0,0.443 0.358,0.8 0.799,0.8 0.441,0 0.798,-0.357 0.798,-0.8 m -0.8872,-3.3282 c 0,0.899 0.731,1.629 1.628,1.629 0.897,0 1.627,-0.73 1.627,-1.629 l 0.798,0 c 0,1.338 -1.089,2.428 -2.425,2.428 -1.337,0 -2.426,-1.09 -2.426,-2.428 l 0.798,0 z m -3.0225,2.2627 c 0,-2.563 2.085,-4.65 4.65,-4.65 2.564,0 4.651,2.087 4.651,4.65 0,2.564 -2.087,4.651 -4.651,4.651 -2.565,0 -4.65,-2.087 -4.65,-4.651 m 4.65,3.452 c 1.903,0 3.452,-1.547 3.452,-3.452 0,-1.904 -1.549,-3.451 -3.452,-3.451 -1.904,0 -3.453,1.547 -3.453,3.451 0,1.905 1.549,3.452 3.453,3.452"
         inkscape:connector-curvature="0" />
    </g>
    <g
       id="g35336"
       transform="matrix(1.25,0,0,-1.25,394.01656,531.03093)">
      <path
         id="path35338"
         style="fill:#6a6b6d;fill-opacity:1;fill-rule:nonzero;stroke:none"
         d="m 0,0 c 0,-0.44 -0.358,-0.798 -0.798,-0.798 -0.441,0 -0.799,0.358 -0.799,0.798 0,0.443 0.358,0.8 0.799,0.8 C -0.358,0.8 0,0.443 0,0 m -3.0605,0 c 0,-0.44 -0.358,-0.798 -0.799,-0.798 -0.441,0 -0.799,0.358 -0.799,0.798 0,0.443 0.358,0.8 0.799,0.8 0.441,0 0.799,-0.357 0.799,-0.8 m 2.1069,-1.8428 c 0,-0.3 -0.244,-0.544 -0.544,-0.544 -0.299,0 -0.542,0.244 -0.542,0.544 l -0.8,0 c 0,-0.743 0.603,-1.344 1.342,-1.344 0.74,0 1.342,0.601 1.342,1.344 l -0.798,0 z m -2.5942,-0.9444 c 0,0.302 0.245,0.544 0.544,0.544 0.3,0 0.542,-0.242 0.542,-0.544 l 0.8,0 c 0,0.74 -0.602,1.344 -1.342,1.344 -0.74,0 -1.343,-0.604 -1.343,-1.344 l 0.799,0 z m -3.4238,1.7217 c 0,-2.563 2.086,-4.65 4.651,-4.65 2.564,0 4.651,2.087 4.651,4.65 0,2.564 -2.087,4.651 -4.651,4.651 -2.565,0 -4.651,-2.087 -4.651,-4.651 m 4.651,3.452 c 1.904,0 3.453,-1.547 3.453,-3.452 0,-1.904 -1.549,-3.451 -3.453,-3.451 -1.905,0 -3.451,1.547 -3.451,3.451 0,1.905 1.546,3.452 3.451,3.452"
         inkscape:connector-curvature="0" />
    </g>
  </g>
</svg>
