<?xml version="1.0" encoding="UTF-8" standalone="no"?>
<!-- Created with Inkscape (http://www.inkscape.org/) -->

<svg
   xmlns:dc="http://purl.org/dc/elements/1.1/"
   xmlns:cc="http://creativecommons.org/ns#"
   xmlns:rdf="http://www.w3.org/1999/02/22-rdf-syntax-ns#"
   xmlns:svg="http://www.w3.org/2000/svg"
   xmlns="http://www.w3.org/2000/svg"
   xmlns:sodipodi="http://sodipodi.sourceforge.net/DTD/sodipodi-0.dtd"
   xmlns:inkscape="http://www.inkscape.org/namespaces/inkscape"
   width="41.055874"
   height="18.242188"
   id="svg56820"
   version="1.1"
   inkscape:version="0.48.4 r9939"
   sodipodi:docname="New document 76">
  <defs
     id="defs56822">
    <linearGradient
       x1="0"
       y1="0"
       x2="1"
       y2="0"
       gradientUnits="userSpaceOnUse"
       gradientTransform="matrix(0,9.4253235,9.4253235,0,408.50098,147.22168)"
       spreadMethod="pad"
       id="linearGradient32310-8">
      <stop
         style="stop-opacity:1;stop-color:#6a6b6d"
         offset="0"
         id="stop32312-4" />
      <stop
         style="stop-opacity:1;stop-color:#656668"
         offset="0.5"
         id="stop32314-9" />
      <stop
         style="stop-opacity:1;stop-color:#5c5c5e"
         offset="1"
         id="stop32316-3" />
    </linearGradient>
    <linearGradient
       x1="0"
       y1="0"
       x2="1"
       y2="0"
       gradientUnits="userSpaceOnUse"
       gradientTransform="matrix(0,9.4236298,9.4236298,0,410.61475,147.22168)"
       spreadMethod="pad"
       id="linearGradient32288-7">
      <stop
         style="stop-opacity:1;stop-color:#6a6b6d"
         offset="0"
         id="stop32290-9" />
      <stop
         style="stop-opacity:1;stop-color:#656668"
         offset="0.5"
         id="stop32292-1" />
      <stop
         style="stop-opacity:1;stop-color:#5c5c5e"
         offset="1"
         id="stop32294-2" />
    </linearGradient>
    <linearGradient
       x1="0"
       y1="0"
       x2="1"
       y2="0"
       gradientUnits="userSpaceOnUse"
       gradientTransform="matrix(0,9.4189758,9.4189758,0,406.69873,147.22266)"
       spreadMethod="pad"
       id="linearGradient32266-3">
      <stop
         style="stop-opacity:1;stop-color:#6a6b6d"
         offset="0"
         id="stop32268-2" />
      <stop
         style="stop-opacity:1;stop-color:#656668"
         offset="0.5"
         id="stop32270-5" />
      <stop
         style="stop-opacity:1;stop-color:#5c5c5e"
         offset="1"
         id="stop32272-1" />
    </linearGradient>
    <clipPath
       clipPathUnits="userSpaceOnUse"
       id="clipPath32234-5">
      <path
         inkscape:connector-curvature="0"
         d="m 0,595.276 841.89,0 L 841.89,0 0,0 0,595.276 z"
         id="path32236-5" />
    </clipPath>
    <linearGradient
       x1="0"
       y1="0"
       x2="1"
       y2="0"
       gradientUnits="userSpaceOnUse"
       gradientTransform="matrix(0,12.603516,12.603516,0,391.47119,145.74219)"
       spreadMethod="pad"
       id="linearGradient32220-3">
      <stop
         style="stop-opacity:1;stop-color:#6a6b6d"
         offset="0"
         id="stop32222-4" />
      <stop
         style="stop-opacity:1;stop-color:#656668"
         offset="0.5"
         id="stop32224-1" />
      <stop
         style="stop-opacity:1;stop-color:#5c5c5e"
         offset="1"
         id="stop32226-2" />
    </linearGradient>
  </defs>
  <sodipodi:namedview
     id="base"
     pagecolor="#ffffff"
     bordercolor="#666666"
     borderopacity="1.0"
     inkscape:pageopacity="0.0"
     inkscape:pageshadow="2"
     inkscape:zoom="0.35"
     inkscape:cx="20.52794"
     inkscape:cy="9.1274974"
     inkscape:document-units="px"
     inkscape:current-layer="layer1"
     showgrid="false"
     fit-margin-top="0"
     fit-margin-left="0"
     fit-margin-right="0"
     fit-margin-bottom="0"
     inkscape:window-width="551"
     inkscape:window-height="429"
     inkscape:window-x="342"
     inkscape:window-y="0"
     inkscape:window-maximized="0" />
  <metadata
     id="metadata56825">
    <rdf:RDF>
      <cc:Work
         rdf:about="">
        <dc:format>image/svg+xml</dc:format>
        <dc:type
           rdf:resource="http://purl.org/dc/dcmitype/StillImage" />
        <dc:title></dc:title>
      </cc:Work>
    </rdf:RDF>
  </metadata>
  <g
     inkscape:label="Layer 1"
     inkscape:groupmode="layer"
     id="layer1"
     transform="translate(-354.47206,-523.24749)">
    <g
       transform="matrix(1.25,0,0,-1.25,-126.98794,722.41743)"
       id="g32208">
      <g
         id="g32210">
        <g
           id="g32216">
          <g
             id="g32218">
            <path
               inkscape:connector-curvature="0"
               d="m 388.169,158.346 c -1.65,0 -3.001,-1.35 -3.001,-3.001 l 0,0 0,-6.603 c 0,-1.651 1.351,-3 3.001,-3 l 0,0 6.604,0 c 1.65,0 3,1.349 3,3 l 0,0 0,6.603 c 0,1.651 -1.35,3.001 -3,3.001 l 0,0 -6.604,0 z"
               style="fill:url(#linearGradient32220-3);stroke:none"
               id="path32228" />
          </g>
        </g>
      </g>
    </g>
    <g
       transform="matrix(1.25,0,0,-1.25,-126.98794,722.41743)"
       id="g32230">
      <g
         id="g32232"
         clip-path="url(#clipPath32234-5)">
        <g
           id="g32238"
           transform="translate(388.6235,148.5586)">
          <path
             inkscape:connector-curvature="0"
             d="m 0,0 c 0,-0.643 -0.521,-1.163 -1.163,-1.163 -0.642,0 -1.164,0.52 -1.164,1.163 0,0.643 0.522,1.163 1.164,1.163 C -0.521,1.163 0,0.643 0,0"
             style="fill:#ffffff;fill-opacity:1;fill-rule:nonzero;stroke:none"
             id="path32240" />
        </g>
        <g
           id="g32242"
           transform="translate(387.7461,156.8652)">
          <path
             inkscape:connector-curvature="0"
             d="m 0,0 c -0.29,0 -0.576,-0.014 -0.858,-0.044 l 0,-1.775 c 0.28,0.039 0.567,0.059 0.858,0.059 3.512,0 6.357,-2.844 6.357,-6.355 0,-0.528 -0.065,-1.039 -0.187,-1.529 l 1.802,0 c 0.094,0.496 0.146,1.006 0.146,1.529 C 8.118,-3.632 4.484,0 0,0"
             style="fill:#ffffff;fill-opacity:1;fill-rule:nonzero;stroke:none"
             id="path32244" />
        </g>
        <g
           id="g32246"
           transform="translate(387.4839,152.9277)">
          <path
             inkscape:connector-curvature="0"
             d="m 0,0 c -0.203,0 -0.401,-0.016 -0.596,-0.044 l 0,-1.352 c 0.192,0.042 0.392,0.066 0.596,0.066 1.559,0 2.823,-1.266 2.823,-2.824 0,-0.575 -0.172,-1.107 -0.467,-1.552 l 1.497,0 c 0.194,0.478 0.302,1.004 0.302,1.552 C 4.155,-1.859 2.294,0 0,0"
             style="fill:#ffffff;fill-opacity:1;fill-rule:nonzero;stroke:none"
             id="path32248" />
        </g>
        <g
           id="g32250"
           transform="translate(417.0127,148.7422)">
          <path
             inkscape:connector-curvature="0"
             d="m 0,0 c 0,-1.65 -1.35,-3 -3,-3 l -6.605,0 c -1.65,0 -3,1.35 -3,3 l 0,6.604 c 0,1.65 1.35,3 3,3 l 6.605,0 c 1.65,0 3,-1.35 3,-3 L 0,0 z"
             style="fill:none;stroke:#6a6b6d;stroke-width:2;stroke-linecap:butt;stroke-linejoin:miter;stroke-miterlimit:4;stroke-opacity:1;stroke-dasharray:none"
             id="path32252" />
        </g>
      </g>
    </g>
    <g
       transform="matrix(1.25,0,0,-1.25,-126.98794,722.41743)"
       id="g32254">
      <g
         id="g32256">
        <g
           id="g32262">
          <g
             id="g32264">
            <path
               inkscape:connector-curvature="0"
               d="m 405.535,148.559 c 0,-0.643 0.522,-1.163 1.164,-1.163 l 0,0 c 0.643,0 1.163,0.52 1.163,1.163 l 0,0 c 0,0.642 -0.52,1.162 -1.163,1.162 l 0,0 c -0.642,0 -1.164,-0.52 -1.164,-1.162"
               style="fill:url(#linearGradient32266-3);stroke:none"
               id="path32274" />
          </g>
        </g>
      </g>
    </g>
    <g
       transform="matrix(1.25,0,0,-1.25,-126.98794,722.41743)"
       id="g32276">
      <g
         id="g32278">
        <g
           id="g32284">
          <g
             id="g32286">
            <path
               inkscape:connector-curvature="0"
               d="m 406.126,156.821 0,-1.775 c 0.282,0.039 0.568,0.059 0.859,0.059 l 0,0 c 3.511,0 6.357,-2.844 6.357,-6.355 l 0,0 c 0,-0.527 -0.066,-1.039 -0.186,-1.528 l 0,0 1.802,0 c 0.094,0.495 0.145,1.005 0.145,1.528 l 0,0 c 0,4.483 -3.635,8.115 -8.118,8.115 l 0,0 c -0.289,0 -0.576,-0.013 -0.859,-0.044"
               style="fill:url(#linearGradient32288-7);stroke:none"
               id="path32296" />
          </g>
        </g>
      </g>
    </g>
    <g
       transform="matrix(1.25,0,0,-1.25,-126.98794,722.41743)"
       id="g32298">
      <g
         id="g32300">
        <g
           id="g32306">
          <g
             id="g32308">
            <path
               inkscape:connector-curvature="0"
               d="m 406.126,152.884 0,-1.352 c 0.192,0.042 0.392,0.066 0.597,0.066 l 0,0 c 1.559,0 2.823,-1.266 2.823,-2.824 l 0,0 c 0,-0.575 -0.171,-1.107 -0.466,-1.552 l 0,0 1.496,0 c 0.193,0.478 0.3,1.003 0.3,1.552 l 0,0 c 0,2.295 -1.858,4.154 -4.153,4.154 l 0,0 c -0.203,0 -0.402,-0.016 -0.597,-0.044"
               style="fill:url(#linearGradient32310-8);stroke:none"
               id="path32318" />
          </g>
        </g>
      </g>
    </g>
  </g>
</svg>
