<?xml version="1.0" encoding="UTF-8" standalone="no"?>
<!-- Created with Inkscape (http://www.inkscape.org/) -->

<svg
   xmlns:dc="http://purl.org/dc/elements/1.1/"
   xmlns:cc="http://creativecommons.org/ns#"
   xmlns:rdf="http://www.w3.org/1999/02/22-rdf-syntax-ns#"
   xmlns:svg="http://www.w3.org/2000/svg"
   xmlns="http://www.w3.org/2000/svg"
   xmlns:sodipodi="http://sodipodi.sourceforge.net/DTD/sodipodi-0.dtd"
   xmlns:inkscape="http://www.inkscape.org/namespaces/inkscape"
   width="81.084999"
   height="14.735001"
   id="svg51524"
   version="1.1"
   inkscape:version="0.48.4 r9939"
   sodipodi:docname="New document 26">
  <defs
     id="defs51526">
    <linearGradient
       x1="0"
       y1="0"
       x2="1"
       y2="0"
       gradientUnits="userSpaceOnUse"
       gradientTransform="matrix(0,1.9902344,1.9902344,0,369.53271,183.63184)"
       spreadMethod="pad"
       id="linearGradient37082-5">
      <stop
         style="stop-opacity:1;stop-color:#6a6b6d"
         offset="0"
         id="stop37084-3" />
      <stop
         style="stop-opacity:1;stop-color:#656668"
         offset="0.5"
         id="stop37086-8" />
      <stop
         style="stop-opacity:1;stop-color:#5c5c5e"
         offset="1"
         id="stop37088-0" />
    </linearGradient>
    <linearGradient
       x1="0"
       y1="0"
       x2="1"
       y2="0"
       gradientUnits="userSpaceOnUse"
       gradientTransform="matrix(0,9.5322266,9.5322266,0,369.53223,179.86133)"
       spreadMethod="pad"
       id="linearGradient37060-2">
      <stop
         style="stop-opacity:1;stop-color:#6a6b6d"
         offset="0"
         id="stop37062-2" />
      <stop
         style="stop-opacity:1;stop-color:#656668"
         offset="0.5"
         id="stop37064-4" />
      <stop
         style="stop-opacity:1;stop-color:#5c5c5e"
         offset="1"
         id="stop37066-6" />
    </linearGradient>
    <linearGradient
       x1="0"
       y1="0"
       x2="1"
       y2="0"
       gradientUnits="userSpaceOnUse"
       gradientTransform="matrix(0,9.5322266,9.5322266,0,356.9458,179.86133)"
       spreadMethod="pad"
       id="linearGradient37038-9">
      <stop
         style="stop-opacity:1;stop-color:#6a6b6d"
         offset="0"
         id="stop37040-0" />
      <stop
         style="stop-opacity:1;stop-color:#656668"
         offset="0.5"
         id="stop37042-0" />
      <stop
         style="stop-opacity:1;stop-color:#5c5c5e"
         offset="1"
         id="stop37044-5" />
    </linearGradient>
    <clipPath
       clipPathUnits="userSpaceOnUse"
       id="clipPath37010-0">
      <path
         inkscape:connector-curvature="0"
         d="m 0,595.276 841.89,0 L 841.89,0 0,0 0,595.276 z"
         id="path37012-8" />
    </clipPath>
    <linearGradient
       x1="0"
       y1="0"
       x2="1"
       y2="0"
       gradientUnits="userSpaceOnUse"
       gradientTransform="matrix(0,8.4033203,8.4033203,0,313.62988,180.42578)"
       spreadMethod="pad"
       id="linearGradient36996-5">
      <stop
         style="stop-opacity:1;stop-color:#6a6b6d"
         offset="0"
         id="stop36998-3" />
      <stop
         style="stop-opacity:1;stop-color:#656668"
         offset="0.5"
         id="stop37000-3" />
      <stop
         style="stop-opacity:1;stop-color:#5c5c5e"
         offset="1"
         id="stop37002-5" />
    </linearGradient>
  </defs>
  <sodipodi:namedview
     id="base"
     pagecolor="#ffffff"
     bordercolor="#666666"
     borderopacity="1.0"
     inkscape:pageopacity="0.0"
     inkscape:pageshadow="2"
     inkscape:zoom="0.35"
     inkscape:cx="40.5425"
     inkscape:cy="7.3649981"
     inkscape:document-units="px"
     inkscape:current-layer="layer1"
     showgrid="false"
     fit-margin-top="0"
     fit-margin-left="0"
     fit-margin-right="0"
     fit-margin-bottom="0"
     inkscape:window-width="551"
     inkscape:window-height="429"
     inkscape:window-x="354"
     inkscape:window-y="589"
     inkscape:window-maximized="0" />
  <metadata
     id="metadata51529">
    <rdf:RDF>
      <cc:Work
         rdf:about="">
        <dc:format>image/svg+xml</dc:format>
        <dc:type
           rdf:resource="http://purl.org/dc/dcmitype/StillImage" />
        <dc:title></dc:title>
      </cc:Work>
    </rdf:RDF>
  </metadata>
  <g
     inkscape:label="Layer 1"
     inkscape:groupmode="layer"
     id="layer1"
     transform="translate(-334.4575,-524.99218)">
    <g
       transform="matrix(1.25,0,0,-1.25,-52.32875,761.73343)"
       id="g36984">
      <g
         id="g36986">
        <g
           id="g36992">
          <g
             id="g36994">
            <path
               inkscape:connector-curvature="0"
               d="m 313.237,188.829 c -0.107,0 -0.194,-0.086 -0.194,-0.194 l 0,0 0,-0.362 c 0,-0.106 -0.084,-0.217 -0.185,-0.25 l 0,0 -1.137,-0.486 c -0.092,-0.053 -0.225,-0.036 -0.301,0.039 l 0,0 -0.255,0.255 c -0.076,0.075 -0.199,0.075 -0.274,0 l 0,0 -0.578,-0.577 c -0.076,-0.077 -0.076,-0.199 0,-0.275 l 0,0 0.277,-0.277 c 0.077,-0.076 0.097,-0.214 0.049,-0.308 l 0,0 -0.387,-0.972 c -0.027,-0.103 -0.14,-0.185 -0.246,-0.185 l 0,0 -0.386,0 c -0.106,0 -0.191,-0.087 -0.191,-0.193 l 0,0 0,-0.819 c 0,-0.105 0.085,-0.192 0.191,-0.192 l 0,0 0.386,0 c 0.106,0 0.219,-0.084 0.25,-0.185 l 0,0 0.474,-1.117 c 0.055,-0.092 0.036,-0.229 -0.039,-0.305 l 0,0 -0.265,-0.264 c -0.075,-0.076 -0.075,-0.197 0,-0.272 l 0,0 0.578,-0.579 c 0.077,-0.074 0.198,-0.074 0.272,0 l 0,0 0.285,0.283 c 0.074,0.075 0.211,0.095 0.306,0.046 l 0,0 0.991,-0.395 c 0.101,-0.03 0.185,-0.142 0.185,-0.248 l 0,0 0,-0.379 c 0,-0.105 0.087,-0.192 0.194,-0.192 l 0,0 0.816,0 c 0.106,0 0.193,0.087 0.193,0.192 l 0,0 0,0.379 c 0,0.106 0.082,0.218 0.187,0.249 l 0,0 1.108,0.468 c 0.093,0.054 0.227,0.035 0.302,-0.038 l 0,0 0.251,-0.253 c 0.076,-0.073 0.198,-0.073 0.274,0 l 0,0 0.579,0.58 c 0.075,0.074 0.075,0.198 0,0.272 l 0,0 -0.269,0.266 c -0.073,0.074 -0.093,0.213 -0.043,0.307 l 0,0 0.4,0.999 c 0.028,0.102 0.141,0.186 0.247,0.186 l 0,0 0.357,0 c 0.104,0 0.192,0.088 0.192,0.192 l 0,0 0,0.819 c 0,0.106 -0.088,0.193 -0.192,0.193 l 0,0 -0.357,0 c -0.106,0 -0.219,0.082 -0.248,0.185 l 0,0 -0.482,1.126 c -0.051,0.091 -0.035,0.228 0.04,0.305 l 0,0 0.241,0.239 c 0.075,0.075 0.075,0.199 0,0.274 l 0,0 -0.578,0.577 c -0.075,0.077 -0.198,0.077 -0.275,0 l 0,0 -0.258,-0.261 c -0.078,-0.076 -0.216,-0.095 -0.309,-0.046 l 0,0 -0.98,0.39 c -0.103,0.03 -0.187,0.141 -0.187,0.247 l 0,0 0,0.362 c 0,0.108 -0.087,0.194 -0.193,0.194 l 0,0 -0.816,0 z m -0.981,-4.202 c 0,0.759 0.614,1.375 1.374,1.375 l 0,0 c 0.759,0 1.374,-0.616 1.374,-1.375 l 0,0 c 0,-0.758 -0.615,-1.374 -1.374,-1.374 l 0,0 c -0.76,0 -1.374,0.616 -1.374,1.374"
               style="fill:url(#linearGradient36996-5);stroke:none"
               id="path37004" />
          </g>
        </g>
      </g>
    </g>
    <g
       transform="matrix(1.25,0,0,-1.25,-52.32875,761.73343)"
       id="g37006">
      <g
         id="g37008"
         clip-path="url(#clipPath37010-0)">
        <g
           id="g37014"
           transform="translate(328.0669,183.2539)">
          <path
             inkscape:connector-curvature="0"
             d="m 0,0 c -0.76,0 -1.374,0.615 -1.374,1.373 0,0.76 0.614,1.375 1.374,1.375 0.758,0 1.375,-0.615 1.375,-1.375 C 1.375,0.615 0.758,0 0,0 z m 4.202,1.79 c 0,0.106 -0.089,0.193 -0.194,0.193 l -0.353,0 c -0.108,0 -0.221,0.082 -0.251,0.185 L 2.921,3.294 C 2.87,3.386 2.888,3.522 2.963,3.599 l 0.24,0.239 c 0.075,0.075 0.075,0.199 0,0.273 L 2.625,4.689 c -0.074,0.077 -0.197,0.077 -0.273,0 L 2.091,4.429 C 2.015,4.352 1.875,4.333 1.782,4.382 L 0.803,4.772 C 0.701,4.802 0.617,4.913 0.617,5.019 l 0,0.363 c 0,0.107 -0.088,0.193 -0.193,0.193 l -0.818,0 c -0.106,0 -0.193,-0.086 -0.193,-0.193 l 0,-0.363 c 0,-0.106 -0.084,-0.217 -0.184,-0.249 L -1.908,4.283 C -1.999,4.23 -2.135,4.247 -2.211,4.322 l -0.254,0.255 c -0.075,0.075 -0.2,0.075 -0.274,0 L -3.316,4 c -0.076,-0.076 -0.076,-0.199 0,-0.274 L -3.039,3.448 C -2.963,3.372 -2.942,3.234 -2.992,3.14 L -3.376,2.168 C -3.407,2.065 -3.517,1.983 -3.625,1.983 l -0.384,0 c -0.106,0 -0.192,-0.087 -0.192,-0.193 l 0,-0.818 c 0,-0.106 0.086,-0.193 0.192,-0.193 l 0.384,0 c 0.108,0 0.22,-0.084 0.251,-0.185 l 0.473,-1.116 c 0.055,-0.093 0.037,-0.23 -0.037,-0.305 l -0.267,-0.265 c -0.075,-0.076 -0.075,-0.197 0,-0.272 l 0.58,-0.578 c 0.075,-0.076 0.198,-0.076 0.272,0 l 0.283,0.282 c 0.076,0.076 0.213,0.096 0.308,0.046 l 0.991,-0.395 c 0.1,-0.03 0.184,-0.141 0.184,-0.248 l 0,-0.379 c 0,-0.105 0.087,-0.192 0.193,-0.192 l 0.818,0 c 0.105,0 0.193,0.087 0.193,0.192 l 0,0.379 c 0,0.107 0.082,0.218 0.186,0.249 l 1.108,0.469 c 0.092,0.053 0.227,0.034 0.303,-0.039 l 0.251,-0.253 c 0.075,-0.073 0.198,-0.073 0.272,0 l 0.579,0.58 c 0.076,0.074 0.076,0.198 0,0.272 L 3.049,-0.713 C 2.976,-0.639 2.955,-0.5 3.004,-0.405 l 0.402,0.998 c 0.028,0.102 0.141,0.186 0.249,0.186 l 0.353,0 c 0.105,0 0.194,0.088 0.194,0.193 l 0,0.818 z"
             style="fill:none;stroke:#6a6b6d;stroke-width:1;stroke-linecap:butt;stroke-linejoin:miter;stroke-miterlimit:4;stroke-opacity:1;stroke-dasharray:none"
             id="path37016" />
        </g>
        <g
           id="g37018"
           transform="translate(340.2983,185.0107)">
          <path
             inkscape:connector-curvature="0"
             d="M 0,0 C -0.52,0 -0.94,0.421 -0.94,0.939 -0.94,1.46 -0.52,1.88 0,1.88 0.519,1.88 0.941,1.46 0.941,0.939 0.941,0.421 0.519,0 0,0 z m 2.874,1.225 c 0,0.072 -0.06,0.132 -0.132,0.132 l -0.242,0 c -0.073,0 -0.149,0.056 -0.169,0.127 L 2,2.254 C 1.964,2.317 1.976,2.41 2.027,2.462 l 0.164,0.165 c 0.052,0.051 0.052,0.136 0,0.186 L 1.797,3.209 c -0.051,0.052 -0.136,0.052 -0.189,0 L 1.431,3.03 C 1.38,2.979 1.284,2.964 1.22,2.998 L 0.55,3.266 C 0.479,3.285 0.422,3.362 0.422,3.435 l 0,0.249 c 0,0.072 -0.06,0.13 -0.132,0.13 l -0.559,0 c -0.073,0 -0.132,-0.058 -0.132,-0.13 l 0,-0.249 c 0,-0.073 -0.057,-0.15 -0.127,-0.171 L -1.305,2.931 C -1.367,2.895 -1.46,2.907 -1.513,2.957 l -0.174,0.176 c -0.051,0.051 -0.135,0.051 -0.187,0 L -2.27,2.736 c -0.05,-0.051 -0.05,-0.135 0,-0.186 l 0.191,-0.192 c 0.051,-0.051 0.066,-0.144 0.033,-0.21 L -2.311,1.484 C -2.331,1.413 -2.407,1.357 -2.479,1.357 l -0.265,0 c -0.071,0 -0.13,-0.06 -0.13,-0.132 l 0,-0.558 c 0,-0.074 0.059,-0.133 0.13,-0.133 l 0.265,0 c 0.072,0 0.149,-0.057 0.171,-0.128 l 0.325,-0.764 c 0.037,-0.063 0.023,-0.158 -0.027,-0.207 l -0.182,-0.182 c -0.051,-0.051 -0.051,-0.135 0,-0.186 l 0.396,-0.396 c 0.051,-0.052 0.136,-0.052 0.187,0 l 0.193,0.193 c 0.052,0.053 0.145,0.067 0.21,0.032 l 0.678,-0.271 c 0.07,-0.02 0.127,-0.096 0.127,-0.169 l 0,-0.259 c 0,-0.072 0.059,-0.132 0.132,-0.132 l 0.559,0 c 0.072,0 0.132,0.06 0.132,0.132 l 0,0.259 c 0,0.073 0.057,0.149 0.128,0.169 l 0.758,0.322 c 0.062,0.035 0.155,0.024 0.209,-0.027 l 0.17,-0.172 c 0.051,-0.051 0.136,-0.051 0.187,0 l 0.395,0.396 c 0.051,0.052 0.051,0.135 0,0.187 l -0.183,0.181 c -0.05,0.052 -0.064,0.146 -0.031,0.211 L 2.332,0.405 C 2.351,0.477 2.427,0.534 2.5,0.534 l 0.242,0 c 0.072,0 0.132,0.059 0.132,0.133 l 0,0.558 z"
             style="fill:none;stroke:#6a6b6d;stroke-width:1;stroke-linecap:butt;stroke-linejoin:miter;stroke-miterlimit:4;stroke-opacity:1;stroke-dasharray:none"
             id="path37020" />
        </g>
        <g
           id="g37022"
           transform="translate(345.3198,180.5566)">
          <path
             inkscape:connector-curvature="0"
             d="M 0,0 C -0.626,-0.228 -1.316,0.094 -1.542,0.719 -1.771,1.343 -1.451,2.034 -0.827,2.261 -0.202,2.489 0.489,2.168 0.717,1.544 0.945,0.92 0.624,0.229 0,0 z M 2.918,2.734 C 2.886,2.822 2.788,2.867 2.701,2.837 L 2.41,2.729 C 2.321,2.698 2.206,2.731 2.149,2.808 L 1.414,3.589 C 1.344,3.649 1.317,3.767 1.355,3.851 L 1.481,4.12 C 1.521,4.204 1.484,4.308 1.399,4.345 L 0.75,4.647 C 0.667,4.688 0.565,4.65 0.525,4.564 L 0.39,4.272 C 0.35,4.188 0.241,4.129 0.15,4.141 L -0.774,4.168 C -0.867,4.162 -0.968,4.229 -1.001,4.315 L -1.11,4.614 C -1.142,4.701 -1.24,4.746 -1.326,4.716 L -1.999,4.469 C -2.086,4.438 -2.132,4.339 -2.1,4.253 L -1.991,3.954 C -1.959,3.866 -1.995,3.749 -2.068,3.693 L -2.856,2.951 C -2.916,2.88 -3.033,2.854 -3.118,2.893 L -3.404,3.025 C -3.488,3.065 -3.588,3.028 -3.629,2.943 L -3.93,2.296 C -3.97,2.211 -3.934,2.109 -3.849,2.07 L -3.537,1.924 C -3.451,1.886 -3.392,1.779 -3.405,1.685 L -3.431,0.771 C -3.424,0.677 -3.49,0.576 -3.578,0.544 L -3.895,0.429 C -3.982,0.396 -4.026,0.299 -3.994,0.211 l 0.244,-0.672 c 0.033,-0.088 0.13,-0.135 0.216,-0.102 l 0.319,0.116 c 0.088,0.032 0.204,-0.002 0.26,-0.077 L -2.229,-1.3 c 0.071,-0.06 0.098,-0.179 0.059,-0.262 l -0.139,-0.297 c -0.039,-0.085 -0.003,-0.186 0.081,-0.225 l 0.65,-0.301 c 0.085,-0.041 0.186,-0.003 0.224,0.08 l 0.149,0.319 c 0.04,0.084 0.146,0.142 0.24,0.13 l 0.933,-0.029 c 0.091,0.006 0.194,-0.06 0.227,-0.146 l 0.113,-0.314 c 0.032,-0.086 0.129,-0.133 0.216,-0.1 l 0.673,0.246 c 0.088,0.032 0.133,0.13 0.101,0.217 L 1.185,-1.67 c -0.034,0.086 0.003,0.203 0.078,0.259 l 0.77,0.72 c 0.061,0.07 0.177,0.095 0.262,0.058 l 0.282,-0.132 c 0.084,-0.038 0.185,-0.001 0.224,0.082 l 0.303,0.649 C 3.144,0.052 3.105,0.152 3.021,0.19 L 2.722,0.33 C 2.639,0.37 2.581,0.477 2.593,0.568 l 0.03,0.945 C 2.616,1.604 2.683,1.706 2.772,1.739 L 3.063,1.846 C 3.15,1.878 3.197,1.976 3.164,2.063 L 2.918,2.734 z"
             style="fill:none;stroke:#6a6b6d;stroke-width:1;stroke-linecap:butt;stroke-linejoin:miter;stroke-miterlimit:4;stroke-opacity:1;stroke-dasharray:none"
             id="path37024" />
        </g>
      </g>
    </g>
    <g
       transform="matrix(1.25,0,0,-1.25,-52.32875,761.73343)"
       id="g37026">
      <g
         id="g37028">
        <g
           id="g37034">
          <g
             id="g37036">
            <path
               inkscape:connector-curvature="0"
               d="m 356.499,189.393 c -0.12,0 -0.22,-0.098 -0.22,-0.218 l 0,0 0,-0.414 c 0,-0.119 -0.094,-0.246 -0.208,-0.28 l 0,0 -1.29,-0.553 c -0.103,-0.062 -0.257,-0.04 -0.344,0.043 l 0,0 -0.288,0.29 c -0.085,0.087 -0.225,0.087 -0.311,0 l 0,0 -0.654,-0.655 c -0.086,-0.085 -0.086,-0.225 0,-0.31 l 0,0 0.313,-0.317 c 0.088,-0.084 0.112,-0.241 0.054,-0.348 l 0,0 -0.437,-1.1 c -0.032,-0.118 -0.158,-0.213 -0.279,-0.213 l 0,0 -0.436,0 c -0.121,0 -0.219,-0.098 -0.219,-0.219 l 0,0 0,-0.927 c 0,-0.12 0.098,-0.219 0.219,-0.219 l 0,0 0.436,0 c 0.121,0 0.248,-0.095 0.285,-0.21 l 0,0 0.537,-1.267 c 0.061,-0.105 0.039,-0.26 -0.045,-0.345 l 0,0 -0.301,-0.301 c -0.085,-0.084 -0.085,-0.223 0,-0.308 l 0,0 0.656,-0.656 c 0.085,-0.086 0.225,-0.086 0.309,0 l 0,0 0.322,0.319 c 0.086,0.088 0.241,0.109 0.349,0.053 l 0,0 1.124,-0.449 c 0.114,-0.034 0.208,-0.16 0.208,-0.28 l 0,0 0,-0.429 c 0,-0.12 0.1,-0.219 0.22,-0.219 l 0,0 0.926,0 c 0.121,0 0.22,0.099 0.22,0.219 l 0,0 0,0.429 c 0,0.12 0.093,0.246 0.212,0.282 l 0,0 1.256,0.533 c 0.105,0.058 0.259,0.039 0.344,-0.045 l 0,0 0.284,-0.285 c 0.084,-0.086 0.225,-0.086 0.309,0 l 0,0 0.656,0.657 c 0.087,0.083 0.087,0.224 0,0.308 l 0,0 -0.302,0.302 c -0.084,0.084 -0.108,0.242 -0.052,0.348 l 0,0 0.457,1.133 c 0.032,0.116 0.159,0.211 0.281,0.211 l 0,0 0.401,0 c 0.121,0 0.221,0.1 0.221,0.219 l 0,0 0,0.927 c 0,0.121 -0.1,0.219 -0.221,0.219 l 0,0 -0.401,0 c -0.122,0 -0.249,0.095 -0.284,0.211 l 0,0 -0.546,1.277 c -0.058,0.104 -0.04,0.261 0.047,0.345 l 0,0 0.272,0.272 c 0.084,0.086 0.084,0.226 0,0.311 l 0,0 -0.656,0.655 c -0.085,0.085 -0.225,0.085 -0.311,0 l 0,0 -0.294,-0.297 c -0.088,-0.086 -0.245,-0.109 -0.35,-0.052 l 0,0 -1.111,0.444 c -0.118,0.032 -0.212,0.158 -0.212,0.277 l 0,0 0,0.414 c 0,0.12 -0.099,0.218 -0.22,0.218 l 0,0 -0.926,0 z m -1.708,-4.766 c 0,1.191 0.964,2.156 2.154,2.156 l 0,0 c 1.191,0 2.156,-0.965 2.156,-2.156 l 0,0 c 0,-1.191 -0.965,-2.156 -2.156,-2.156 l 0,0 c -1.19,0 -2.154,0.965 -2.154,2.156"
               style="fill:url(#linearGradient37038-9);stroke:none"
               id="path37046" />
          </g>
        </g>
      </g>
    </g>
    <g
       transform="matrix(1.25,0,0,-1.25,-52.32875,761.73343)"
       id="g37048">
      <g
         id="g37050">
        <g
           id="g37056">
          <g
             id="g37058">
            <path
               inkscape:connector-curvature="0"
               d="m 369.085,189.393 c -0.12,0 -0.218,-0.098 -0.218,-0.218 l 0,0 0,-0.414 c 0,-0.119 -0.096,-0.246 -0.209,-0.28 l 0,0 -1.29,-0.553 c -0.102,-0.062 -0.256,-0.04 -0.343,0.043 l 0,0 -0.289,0.29 c -0.085,0.087 -0.224,0.087 -0.309,0 l 0,0 -0.657,-0.655 c -0.085,-0.085 -0.085,-0.225 0,-0.31 l 0,0 0.315,-0.317 c 0.086,-0.084 0.11,-0.241 0.055,-0.348 l 0,0 -0.438,-1.1 c -0.033,-0.118 -0.158,-0.213 -0.281,-0.213 l 0,0 -0.437,0 c -0.119,0 -0.217,-0.098 -0.217,-0.219 l 0,0 0,-0.927 c 0,-0.12 0.098,-0.219 0.217,-0.219 l 0,0 0.437,0 c 0.123,0 0.249,-0.095 0.285,-0.21 l 0,0 0.536,-1.267 c 0.063,-0.105 0.042,-0.26 -0.042,-0.345 l 0,0 -0.301,-0.301 c -0.086,-0.084 -0.086,-0.223 0,-0.308 l 0,0 0.655,-0.656 c 0.085,-0.086 0.226,-0.086 0.308,0 l 0,0 0.323,0.319 c 0.086,0.088 0.241,0.109 0.349,0.053 l 0,0 1.124,-0.449 c 0.113,-0.034 0.209,-0.16 0.209,-0.28 l 0,0 0,-0.429 c 0,-0.12 0.098,-0.219 0.218,-0.219 l 0,0 0.928,0 c 0.12,0 0.218,0.099 0.218,0.219 l 0,0 0,0.429 c 0,0.12 0.096,0.246 0.212,0.282 l 0,0 1.257,0.533 c 0.104,0.058 0.257,0.039 0.346,-0.045 l 0,0 0.281,-0.285 c 0.086,-0.086 0.225,-0.086 0.31,0 l 0,0 0.656,0.657 c 0.085,0.083 0.085,0.224 0,0.308 l 0,0 -0.302,0.302 c -0.083,0.084 -0.108,0.242 -0.05,0.348 l 0,0 0.455,1.133 c 0.031,0.116 0.159,0.211 0.281,0.211 l 0,0 0.402,0 c 0.119,0 0.218,0.1 0.218,0.219 l 0,0 0,0.927 c 0,0.121 -0.099,0.219 -0.218,0.219 l 0,0 -0.402,0 c -0.122,0 -0.25,0.095 -0.283,0.211 l 0,0 -0.546,1.277 c -0.059,0.104 -0.039,0.261 0.044,0.345 l 0,0 0.273,0.272 c 0.086,0.086 0.086,0.226 0,0.311 l 0,0 -0.653,0.655 c -0.087,0.085 -0.225,0.085 -0.313,0 l 0,0 -0.294,-0.297 c -0.086,-0.086 -0.245,-0.109 -0.351,-0.052 l 0,0 -1.111,0.444 c -0.115,0.032 -0.212,0.158 -0.212,0.277 l 0,0 0,0.414 c 0,0.12 -0.098,0.218 -0.218,0.218 l 0,0 -0.928,0 z m -1.71,-4.766 c 0,1.191 0.967,2.156 2.158,2.156 l 0,0 c 1.191,0 2.155,-0.965 2.155,-2.156 l 0,0 c 0,-1.191 -0.964,-2.156 -2.155,-2.156 l 0,0 c -1.191,0 -2.158,0.965 -2.158,2.156"
               style="fill:url(#linearGradient37060-2);stroke:none"
               id="path37068" />
          </g>
        </g>
      </g>
    </g>
    <g
       transform="matrix(1.25,0,0,-1.25,-52.32875,761.73343)"
       id="g37070">
      <g
         id="g37072">
        <g
           id="g37078">
          <g
             id="g37080">
            <path
               inkscape:connector-curvature="0"
               d="m 368.537,184.627 c 0,-0.549 0.447,-0.995 0.996,-0.995 l 0,0 c 0.551,0 0.996,0.446 0.996,0.995 l 0,0 c 0,0.551 -0.445,0.995 -0.996,0.995 l 0,0 c -0.549,0 -0.996,-0.444 -0.996,-0.995"
               style="fill:url(#linearGradient37082-5);stroke:none"
               id="path37090" />
          </g>
        </g>
      </g>
    </g>
  </g>
</svg>
