<?xml version="1.0" encoding="UTF-8" standalone="no"?>
<!-- Created with Inkscape (http://www.inkscape.org/) -->

<svg
   xmlns:dc="http://purl.org/dc/elements/1.1/"
   xmlns:cc="http://creativecommons.org/ns#"
   xmlns:rdf="http://www.w3.org/1999/02/22-rdf-syntax-ns#"
   xmlns:svg="http://www.w3.org/2000/svg"
   xmlns="http://www.w3.org/2000/svg"
   xmlns:sodipodi="http://sodipodi.sourceforge.net/DTD/sodipodi-0.dtd"
   xmlns:inkscape="http://www.inkscape.org/namespaces/inkscape"
   width="13.7475"
   height="33.651249"
   id="svg56700"
   version="1.1"
   inkscape:version="0.48.4 r9939"
   sodipodi:docname="New document 73">
  <defs
     id="defs56702">
    <clipPath
       clipPathUnits="userSpaceOnUse"
       id="clipPath37400-5">
      <path
         inkscape:connector-curvature="0"
         d="m 458.2,123.287 10.29,0 0,-8.164 -10.29,0 0,8.164 z"
         id="path37402-7" />
    </clipPath>
    <clipPath
       clipPathUnits="userSpaceOnUse"
       id="clipPath37290-8">
      <path
         inkscape:connector-curvature="0"
         d="m 458.359,139.336 10.289,0 0,-8.164 -10.289,0 0,8.164 z"
         id="path37292-7" />
    </clipPath>
  </defs>
  <sodipodi:namedview
     id="base"
     pagecolor="#ffffff"
     bordercolor="#666666"
     borderopacity="1.0"
     inkscape:pageopacity="0.0"
     inkscape:pageshadow="2"
     inkscape:zoom="0.35"
     inkscape:cx="6.87375"
     inkscape:cy="16.825627"
     inkscape:document-units="px"
     inkscape:current-layer="layer1"
     showgrid="false"
     fit-margin-top="0"
     fit-margin-left="0"
     fit-margin-right="0"
     fit-margin-bottom="0"
     inkscape:window-width="551"
     inkscape:window-height="429"
     inkscape:window-x="342"
     inkscape:window-y="0"
     inkscape:window-maximized="0" />
  <metadata
     id="metadata56705">
    <rdf:RDF>
      <cc:Work
         rdf:about="">
        <dc:format>image/svg+xml</dc:format>
        <dc:type
           rdf:resource="http://purl.org/dc/dcmitype/StillImage" />
        <dc:title></dc:title>
      </cc:Work>
    </rdf:RDF>
  </metadata>
  <g
     inkscape:label="Layer 1"
     inkscape:groupmode="layer"
     id="layer1"
     transform="translate(-368.12625,-515.53656)">
    <path
       id="path37284"
       style="fill:#6a6b6d;fill-opacity:1;fill-rule:nonzero;stroke:none"
       d="m 375.20625,527.63031 c -2.9475,0 -5.34375,-2.4 -5.34375,-5.3475 0,-2.7025 1.98375,-4.95375 4.64125,-5.29875 l 0,-1.0325 0.2625,0.1525 2.75875,1.59 0.26125,0.1525 -0.26125,0.15125 -2.75875,1.59375 -0.2625,0.1525 0,-0.91625 c -1.62375,0.3275 -2.82625,1.77875 -2.82625,3.455 0,1.945 1.58125,3.53 3.52875,3.53 1.945,0 3.53,-1.585 3.53,-3.53 0,-0.57875 -0.1475,-1.1525 -0.42125,-1.66375 l -0.08,-0.15 0.1475,-0.085 1.27375,-0.72875 0.15625,-0.09 0.085,0.155 c 0.42875,0.78125 0.65375,1.67 0.65375,2.5625 0,2.9475 -2.39625,5.3475 -5.345,5.3475 m 0,-12.09375 c -3.6825,0 -6.66625,2.98625 -6.66625,6.66875 0,3.68125 2.98375,6.66625 6.66625,6.66625 3.6825,0 6.6675,-2.985 6.6675,-6.66625 0,-3.6825 -2.985,-6.66875 -6.6675,-6.66875"
       inkscape:connector-curvature="0" />
    <g
       id="g37294"
       transform="matrix(1.25,0,0,-1.25,-204.40925,689.70668)">
      <g
         id="g37296"
         clip-path="url(#clipPath37290-8)"
         style="opacity:0.25">
        <g
           id="g37298"
           transform="translate(459.1426,131.2197)">
          <path
             id="path37300"
             style="fill:#ffffff;fill-opacity:1;fill-rule:nonzero;stroke:none"
             d="M 0,0 C 0.47,-0.582 9.703,4.295 9.503,4.787 8.705,6.738 6.787,8.116 4.548,8.116 1.593,8.116 -0.761,5.799 -0.783,2.643 -0.673,1.479 -0.47,0.583 0,0"
             inkscape:connector-curvature="0" />
        </g>
      </g>
    </g>
    <path
       id="path37390"
       style="fill:#6a6b6d;fill-opacity:1;fill-rule:nonzero;stroke:none"
       d="m 381.4575,542.31531 c 0,3.56 -2.8975,6.45875 -6.46,6.45875 -3.5625,0 -6.4575,-2.89875 -6.4575,-6.45875 0,-3.5625 2.895,-6.46 6.4575,-6.46 3.5625,0 6.46,2.8975 6.46,6.46 m -6.46,-6.87375 c -3.7875,0 -6.87125,3.08125 -6.87125,6.87375 0,3.78875 3.08375,6.8725 6.87125,6.8725 3.79,0 6.87625,-3.08375 6.87625,-6.8725 0,-3.7925 -3.08625,-6.87375 -6.87625,-6.87375"
       inkscape:connector-curvature="0" />
    <path
       id="path37394"
       style="fill:#6a6b6d;fill-opacity:1;fill-rule:nonzero;stroke:none"
       d="m 380.55175,542.39106 c 0,-0.9275 -0.235,-1.84875 -0.68,-2.6575 0,-0.003 -0.0863,-0.15875 -0.0863,-0.15875 l -0.10125,-0.185 -0.1825,0.10875 -0.15625,0.085 -1.2725,0.7325 c 0.001,-0.002 -0.15125,0.08 -0.15125,0.08 l -0.17375,0.10125 0.0962,0.1775 0.08,0.15375 c 0.25875,0.47875 0.3975,1.01875 0.3975,1.5625 0,1.8325 -1.49125,3.32375 -3.32375,3.32375 -1.83125,0 -3.32125,-1.49125 -3.32125,-3.32375 0,-1.57125 1.1175,-2.94 2.65875,-3.25 l -0.24625,-0.20125 0,0.91375 0,0.3575 0.31125,-0.1775 0.2625,-0.1525 2.75875,-1.59375 c 0.002,0 0.2625,-0.1525 0.2625,-0.1525 l 0.31,-0.17875 -0.31,-0.18 -0.2625,-0.15125 -2.75875,-1.59375 -0.2625,-0.15 -0.31125,-0.1775 0,0.35875 0,1.03125 0.1825,-0.20375 c -2.75375,0.35625 -4.82625,2.72125 -4.82625,5.50125 0,3.06375 2.49,5.555 5.5525,5.555 3.06375,0 5.55375,-2.49125 5.55375,-5.555"
       inkscape:connector-curvature="0" />
    <g
       id="g37404"
       transform="matrix(1.25,0,0,-1.25,-204.40925,689.70668)">
      <g
         id="g37406"
         clip-path="url(#clipPath37400-5)"
         style="opacity:0.25">
        <g
           id="g37408"
           transform="translate(458.9844,115.1709)">
          <path
             id="path37410"
             style="fill:#ffffff;fill-opacity:1;fill-rule:nonzero;stroke:none"
             d="M 0,0 C 0.469,-0.582 9.705,4.296 9.503,4.787 8.705,6.74 6.787,8.116 4.548,8.116 1.592,8.116 -0.76,5.798 -0.784,2.642 -0.673,1.479 -0.47,0.581 0,0"
             inkscape:connector-curvature="0" />
        </g>
      </g>
    </g>
  </g>
</svg>
