<?xml version="1.0" encoding="UTF-8" standalone="no"?>
<!-- Created with Inkscape (http://www.inkscape.org/) -->

<svg
   xmlns:dc="http://purl.org/dc/elements/1.1/"
   xmlns:cc="http://creativecommons.org/ns#"
   xmlns:rdf="http://www.w3.org/1999/02/22-rdf-syntax-ns#"
   xmlns:svg="http://www.w3.org/2000/svg"
   xmlns="http://www.w3.org/2000/svg"
   xmlns:sodipodi="http://sodipodi.sourceforge.net/DTD/sodipodi-0.dtd"
   xmlns:inkscape="http://www.inkscape.org/namespaces/inkscape"
   width="13.59125"
   height="50.455875"
   id="svg53115"
   version="1.1"
   inkscape:version="0.48.4 r9939"
   sodipodi:docname="New document 45">
  <defs
     id="defs53117">
    <linearGradient
       x1="0"
       y1="0"
       x2="1"
       y2="0"
       gradientUnits="userSpaceOnUse"
       gradientTransform="matrix(0,6.0429687,6.0429687,0,369.27637,211.62793)"
       spreadMethod="pad"
       id="linearGradient34114-9">
      <stop
         style="stop-opacity:1;stop-color:#6a6b6d"
         offset="0"
         id="stop34116-1" />
      <stop
         style="stop-opacity:1;stop-color:#656668"
         offset="0.5"
         id="stop34118-4" />
      <stop
         style="stop-opacity:1;stop-color:#5c5c5e"
         offset="1"
         id="stop34120-7" />
    </linearGradient>
    <linearGradient
       x1="0"
       y1="0"
       x2="1"
       y2="0"
       gradientUnits="userSpaceOnUse"
       gradientTransform="matrix(0,6.0439453,6.0439453,0,368.95166,196.60059)"
       spreadMethod="pad"
       id="linearGradient31042-4">
      <stop
         style="stop-opacity:1;stop-color:#6a6b6d"
         offset="0"
         id="stop31044-7" />
      <stop
         style="stop-opacity:1;stop-color:#656668"
         offset="0.5"
         id="stop31046-1" />
      <stop
         style="stop-opacity:1;stop-color:#5c5c5e"
         offset="1"
         id="stop31048-1" />
    </linearGradient>
    <clipPath
       clipPathUnits="userSpaceOnUse"
       id="clipPath31022-0">
      <path
         inkscape:connector-curvature="0"
         d="m 0,595.276 841.89,0 L 841.89,0 0,0 0,595.276 z"
         id="path31024-9" />
    </clipPath>
    <clipPath
       clipPathUnits="userSpaceOnUse"
       id="clipPath30882-1">
      <path
         inkscape:connector-curvature="0"
         d="m 0,595.276 841.89,0 L 841.89,0 0,0 0,595.276 z"
         id="path30884-4" />
    </clipPath>
    <linearGradient
       x1="0"
       y1="0"
       x2="1"
       y2="0"
       gradientUnits="userSpaceOnUse"
       gradientTransform="matrix(0,10.363281,10.363281,0,368.95166,224.25977)"
       spreadMethod="pad"
       id="linearGradient30868-2">
      <stop
         style="stop-opacity:1;stop-color:#6a6b6d"
         offset="0"
         id="stop30870-6" />
      <stop
         style="stop-opacity:1;stop-color:#656668"
         offset="0.5"
         id="stop30872-1" />
      <stop
         style="stop-opacity:1;stop-color:#5c5c5e"
         offset="1"
         id="stop30874-4" />
    </linearGradient>
  </defs>
  <sodipodi:namedview
     id="base"
     pagecolor="#ffffff"
     bordercolor="#666666"
     borderopacity="1.0"
     inkscape:pageopacity="0.0"
     inkscape:pageshadow="2"
     inkscape:zoom="0.35"
     inkscape:cx="6.795625"
     inkscape:cy="25.227942"
     inkscape:document-units="px"
     inkscape:current-layer="layer1"
     showgrid="false"
     fit-margin-top="0"
     fit-margin-left="0"
     fit-margin-right="0"
     fit-margin-bottom="0"
     inkscape:window-width="551"
     inkscape:window-height="429"
     inkscape:window-x="342"
     inkscape:window-y="0"
     inkscape:window-maximized="0" />
  <metadata
     id="metadata53120">
    <rdf:RDF>
      <cc:Work
         rdf:about="">
        <dc:format>image/svg+xml</dc:format>
        <dc:type
           rdf:resource="http://purl.org/dc/dcmitype/StillImage" />
        <dc:title></dc:title>
      </cc:Work>
    </rdf:RDF>
  </metadata>
  <g
     inkscape:label="Layer 1"
     inkscape:groupmode="layer"
     id="layer1"
     transform="translate(-368.20438,-507.13425)">
    <g
       transform="matrix(1.25,0,0,-1.25,-86.1895,800.413)"
       id="g30856">
      <g
         id="g30858">
        <g
           id="g30864">
          <g
             id="g30866">
            <path
               inkscape:connector-curvature="0"
               d="m 363.77,229.442 c 0,-2.862 2.319,-5.182 5.181,-5.182 l 0,0 c 2.862,0 5.182,2.32 5.182,5.182 l 0,0 c 0,2.861 -2.32,5.181 -5.182,5.181 l 0,0 c -2.862,0 -5.181,-2.32 -5.181,-5.181"
               style="fill:url(#linearGradient30868-2);stroke:none"
               id="path30876" />
          </g>
        </g>
      </g>
    </g>
    <g
       transform="matrix(1.25,0,0,-1.25,-86.1895,800.413)"
       id="g30878">
      <g
         id="g30880"
         clip-path="url(#clipPath30882-1)">
        <g
           id="g30886"
           transform="translate(369.7212,228.5986)">
          <path
             inkscape:connector-curvature="0"
             d="m 0,0 c -0.686,-0.687 -1.8,-0.687 -2.486,0 -0.687,0.687 -0.687,1.799 0,2.485 0.686,0.686 1.8,0.686 2.486,0 C 0.687,1.799 0.687,0.687 0,0 m 0.56,3.044 c -0.996,0.997 -2.609,0.997 -3.605,0 -0.995,-0.994 -0.995,-2.608 0,-3.604 0.858,-0.858 2.176,-0.975 3.162,-0.351 l 1.339,-1.341 0.795,0.796 -1.339,1.34 C 1.535,0.867 1.419,2.187 0.56,3.044"
             style="fill:#ffffff;fill-opacity:1;fill-rule:nonzero;stroke:none"
             id="path30888" />
        </g>
        <g
           id="g30890"
           transform="translate(327.7759,205.1318)" />
      </g>
    </g>
    <g
       transform="matrix(1.25,0,0,-1.25,-86.1895,800.413)"
       id="g31018">
      <g
         id="g31020"
         clip-path="url(#clipPath31022-0)">
        <g
           id="g31026"
           transform="translate(363.5151,199.6953)">
          <path
             inkscape:connector-curvature="0"
             d="m 0,0 c 0,-2.998 2.438,-5.437 5.437,-5.437 2.997,0 5.436,2.439 5.436,5.437 0,2.997 -2.439,5.437 -5.436,5.437 C 2.438,5.437 0,2.997 0,0 m 5.437,4.925 c 2.716,0 4.925,-2.21 4.925,-4.925 0,-2.716 -2.209,-4.927 -4.925,-4.927 -2.717,0 -4.928,2.211 -4.928,4.927 0,2.715 2.211,4.925 4.928,4.925"
             style="fill:#6a6b6d;fill-opacity:1;fill-rule:nonzero;stroke:none"
             id="path31028" />
        </g>
      </g>
    </g>
    <g
       transform="matrix(1.25,0,0,-1.25,-86.1895,800.413)"
       id="g31030">
      <g
         id="g31032">
        <g
           id="g31038">
          <g
             id="g31040">
            <path
               inkscape:connector-curvature="0"
               d="m 366.676,201.896 c -0.994,-0.994 -0.994,-2.608 0,-3.603 l 0,0 c 0.859,-0.86 2.176,-0.977 3.163,-0.352 l 0,0 1.338,-1.341 0.796,0.795 -1.34,1.34 c 0.623,0.985 0.507,2.303 -0.351,3.161 l 0,0 c -0.499,0.499 -1.151,0.748 -1.803,0.748 l 0,0 c -0.653,0 -1.305,-0.249 -1.803,-0.748 m 0.559,-3.045 c -0.688,0.687 -0.688,1.799 0,2.487 l 0,0 c 0.687,0.687 1.8,0.687 2.486,0 l 0,0 c 0.688,-0.688 0.688,-1.8 0,-2.487 l 0,0 c -0.343,-0.343 -0.793,-0.515 -1.243,-0.515 l 0,0 c -0.45,0 -0.9,0.172 -1.243,0.515"
               style="fill:url(#linearGradient31042-4);stroke:none"
               id="path31050" />
          </g>
        </g>
      </g>
    </g>
    <g
       transform="matrix(1.25,0,0,-1.25,-86.1895,800.413)"
       id="g34102">
      <g
         id="g34104">
        <g
           id="g34110">
          <g
             id="g34112">
            <path
               inkscape:connector-curvature="0"
               d="m 367.001,216.925 c -0.993,-0.995 -0.993,-2.61 0,-3.604 l 0,0 c 0.86,-0.86 2.175,-0.974 3.163,-0.352 l 0,0 1.338,-1.341 0.796,0.795 -1.34,1.341 c 0.623,0.984 0.507,2.303 -0.351,3.161 l 0,0 c -0.498,0.497 -1.15,0.746 -1.803,0.746 l 0,0 c -0.652,0 -1.304,-0.249 -1.803,-0.746 m 0.56,-3.046 c -0.687,0.687 -0.687,1.801 0,2.486 l 0,0 c 0.686,0.687 1.8,0.687 2.486,0 l 0,0 c 0.687,-0.685 0.687,-1.799 0,-2.486 l 0,0 c -0.343,-0.343 -0.793,-0.514 -1.243,-0.514 l 0,0 c -0.45,0 -0.9,0.171 -1.243,0.514"
               style="fill:url(#linearGradient34114-9);stroke:none"
               id="path34122" />
          </g>
        </g>
      </g>
    </g>
  </g>
</svg>
