<?xml version="1.0" encoding="UTF-8" standalone="no"?>
<!-- Created with Inkscape (http://www.inkscape.org/) -->

<svg
   xmlns:dc="http://purl.org/dc/elements/1.1/"
   xmlns:cc="http://creativecommons.org/ns#"
   xmlns:rdf="http://www.w3.org/1999/02/22-rdf-syntax-ns#"
   xmlns:svg="http://www.w3.org/2000/svg"
   xmlns="http://www.w3.org/2000/svg"
   xmlns:sodipodi="http://sodipodi.sourceforge.net/DTD/sodipodi-0.dtd"
   xmlns:inkscape="http://www.inkscape.org/namespaces/inkscape"
   width="11.12875"
   height="11.1325"
   id="svg57177"
   version="1.1"
   inkscape:version="0.48.4 r9939"
   sodipodi:docname="New document 85">
  <defs
     id="defs57179">
    <linearGradient
       x1="0"
       y1="0"
       x2="1"
       y2="0"
       gradientUnits="userSpaceOnUse"
       gradientTransform="matrix(0,9.3219299,9.3219299,0,448.26855,208.73242)"
       spreadMethod="pad"
       id="linearGradient32992-6">
      <stop
         style="stop-opacity:1;stop-color:#6a6b6d"
         offset="0"
         id="stop32994-0" />
      <stop
         style="stop-opacity:1;stop-color:#656668"
         offset="0.5"
         id="stop32996-5" />
      <stop
         style="stop-opacity:1;stop-color:#5c5c5e"
         offset="1"
         id="stop32998-3" />
    </linearGradient>
    <linearGradient
       x1="0"
       y1="0"
       x2="1"
       y2="0"
       gradientUnits="userSpaceOnUse"
       gradientTransform="matrix(0,9.3339539,9.3339539,0,448.26855,208.71582)"
       spreadMethod="pad"
       id="linearGradient32970-7">
      <stop
         style="stop-opacity:1;stop-color:#6a6b6d"
         offset="0"
         id="stop32972-5" />
      <stop
         style="stop-opacity:1;stop-color:#656668"
         offset="0.5"
         id="stop32974-4" />
      <stop
         style="stop-opacity:1;stop-color:#5c5c5e"
         offset="1"
         id="stop32976-8" />
    </linearGradient>
    <linearGradient
       x1="0"
       y1="0"
       x2="1"
       y2="0"
       gradientUnits="userSpaceOnUse"
       gradientTransform="matrix(0,9.2810974,9.2810974,0,448.26758,208.74805)"
       spreadMethod="pad"
       id="linearGradient32948-2">
      <stop
         style="stop-opacity:1;stop-color:#6a6b6d"
         offset="0"
         id="stop32950-8" />
      <stop
         style="stop-opacity:1;stop-color:#656668"
         offset="0.5"
         id="stop32952-3" />
      <stop
         style="stop-opacity:1;stop-color:#5c5c5e"
         offset="1"
         id="stop32954-4" />
    </linearGradient>
    <linearGradient
       x1="0"
       y1="0"
       x2="1"
       y2="0"
       gradientUnits="userSpaceOnUse"
       gradientTransform="matrix(0,9.3065491,9.3065491,0,448.26758,208.73535)"
       spreadMethod="pad"
       id="linearGradient32926-3">
      <stop
         style="stop-opacity:1;stop-color:#6a6b6d"
         offset="0"
         id="stop32928-1" />
      <stop
         style="stop-opacity:1;stop-color:#656668"
         offset="0.5"
         id="stop32930-6" />
      <stop
         style="stop-opacity:1;stop-color:#5c5c5e"
         offset="1"
         id="stop32932-7" />
    </linearGradient>
    <linearGradient
       x1="0"
       y1="0"
       x2="1"
       y2="0"
       gradientUnits="userSpaceOnUse"
       gradientTransform="matrix(0,9.3065491,9.3065491,0,448.26758,208.73535)"
       spreadMethod="pad"
       id="linearGradient32904-0">
      <stop
         style="stop-opacity:1;stop-color:#6a6b6d"
         offset="0"
         id="stop32906-0" />
      <stop
         style="stop-opacity:1;stop-color:#656668"
         offset="0.5"
         id="stop32908-4" />
      <stop
         style="stop-opacity:1;stop-color:#5c5c5e"
         offset="1"
         id="stop32910-5" />
    </linearGradient>
    <linearGradient
       x1="0"
       y1="0"
       x2="1"
       y2="0"
       gradientUnits="userSpaceOnUse"
       gradientTransform="matrix(0,9.3065491,9.3065491,0,448.26758,208.73535)"
       spreadMethod="pad"
       id="linearGradient32882-6">
      <stop
         style="stop-opacity:1;stop-color:#6a6b6d"
         offset="0"
         id="stop32884-8" />
      <stop
         style="stop-opacity:1;stop-color:#656668"
         offset="0.5"
         id="stop32886-5" />
      <stop
         style="stop-opacity:1;stop-color:#5c5c5e"
         offset="1"
         id="stop32888-3" />
    </linearGradient>
  </defs>
  <sodipodi:namedview
     id="base"
     pagecolor="#ffffff"
     bordercolor="#666666"
     borderopacity="1.0"
     inkscape:pageopacity="0.0"
     inkscape:pageshadow="2"
     inkscape:zoom="0.35"
     inkscape:cx="5.56437"
     inkscape:cy="5.5662474"
     inkscape:document-units="px"
     inkscape:current-layer="layer1"
     showgrid="false"
     fit-margin-top="0"
     fit-margin-left="0"
     fit-margin-right="0"
     fit-margin-bottom="0"
     inkscape:window-width="551"
     inkscape:window-height="429"
     inkscape:window-x="342"
     inkscape:window-y="0"
     inkscape:window-maximized="0" />
  <metadata
     id="metadata57182">
    <rdf:RDF>
      <cc:Work
         rdf:about="">
        <dc:format>image/svg+xml</dc:format>
        <dc:type
           rdf:resource="http://purl.org/dc/dcmitype/StillImage" />
        <dc:title></dc:title>
      </cc:Work>
    </rdf:RDF>
  </metadata>
  <g
     inkscape:label="Layer 1"
     inkscape:groupmode="layer"
     id="layer1"
     transform="translate(-369.43563,-526.79593)">
    <g
       transform="matrix(1.25,0,0,-1.25,-185.33437,799.01468)"
       id="g32870">
      <g
         id="g32872">
        <g
           id="g32878">
          <g
             id="g32880">
            <path
               inkscape:connector-curvature="0"
               d="m 445.011,213.322 c 0,-2.456 1.462,-4.453 3.256,-4.453 l 0,0 c 1.797,0 3.256,1.997 3.256,4.453 l 0,0 c 0,2.456 -1.459,4.453 -3.256,4.453 l 0,0 c -1.794,0 -3.256,-1.997 -3.256,-4.453 m 0.331,0 c 0,2.272 1.313,4.123 2.925,4.123 l 0,0 c 1.613,0 2.926,-1.851 2.926,-4.123 l 0,0 c 0,-2.273 -1.313,-4.122 -2.926,-4.122 l 0,0 c -1.612,0 -2.925,1.849 -2.925,4.122"
               style="fill:url(#linearGradient32882-6);stroke:none"
               id="path32890" />
          </g>
        </g>
      </g>
    </g>
    <g
       transform="matrix(1.25,0,0,-1.25,-185.33437,799.01468)"
       id="g32892">
      <g
         id="g32894">
        <g
           id="g32900">
          <g
             id="g32902">
            <path
               inkscape:connector-curvature="0"
               d="m 446.69,213.322 c 0,-2.158 0.553,-4.453 1.577,-4.453 l 0,0 c 1.025,0 1.58,2.295 1.58,4.453 l 0,0 c 0,2.159 -0.555,4.453 -1.58,4.453 l 0,0 c -1.024,0 -1.577,-2.294 -1.577,-4.453 m 0.33,0 c 0,2.429 0.658,4.123 1.247,4.123 l 0,0 c 0.592,0 1.249,-1.694 1.249,-4.123 l 0,0 c 0,-2.429 -0.657,-4.122 -1.249,-4.122 l 0,0 c -0.589,0 -1.247,1.693 -1.247,4.122"
               style="fill:url(#linearGradient32904-0);stroke:none"
               id="path32912" />
          </g>
        </g>
      </g>
    </g>
    <g
       transform="matrix(1.25,0,0,-1.25,-185.33437,799.01468)"
       id="g32914">
      <g
         id="g32916">
        <g
           id="g32922">
          <g
             id="g32924">
            <path
               inkscape:connector-curvature="0"
               d="m 443.816,213.322 c 0,-2.456 1.996,-4.453 4.451,-4.453 l 0,0 c 2.457,0 4.452,1.997 4.452,4.453 l 0,0 c 0,2.456 -1.995,4.453 -4.452,4.453 l 0,0 c -2.455,0 -4.451,-1.997 -4.451,-4.453 m 0.33,0 c 0,2.272 1.849,4.123 4.121,4.123 l 0,0 c 2.274,0 4.123,-1.851 4.123,-4.123 l 0,0 c 0,-2.273 -1.849,-4.122 -4.123,-4.122 l 0,0 c -2.272,0 -4.121,1.849 -4.121,4.122"
               style="fill:url(#linearGradient32926-3);stroke:none"
               id="path32934" />
          </g>
        </g>
      </g>
    </g>
    <g
       transform="matrix(1.25,0,0,-1.25,-185.33437,799.01468)"
       id="g32936">
      <g
         id="g32938">
        <g
           id="g32944">
          <g
             id="g32946">
            <path
               inkscape:connector-curvature="0"
               d="m 444.024,213.025 8.488,0 0,0.329 -8.488,0 0,-0.329 z"
               style="fill:url(#linearGradient32948-2);stroke:none"
               id="path32956" />
          </g>
        </g>
      </g>
    </g>
    <g
       transform="matrix(1.25,0,0,-1.25,-185.33437,799.01468)"
       id="g32958">
      <g
         id="g32960">
        <g
           id="g32966">
          <g
             id="g32968">
            <path
               inkscape:connector-curvature="0"
               d="m 444.571,215.249 7.394,0 0,0.33 -7.394,0 0,-0.33 z"
               style="fill:url(#linearGradient32970-7);stroke:none"
               id="path32978" />
          </g>
        </g>
      </g>
    </g>
    <g
       transform="matrix(1.25,0,0,-1.25,-185.33437,799.01468)"
       id="g32980">
      <g
         id="g32982">
        <g
           id="g32988">
          <g
             id="g32990">
            <path
               inkscape:connector-curvature="0"
               d="m 444.571,210.798 7.394,0 0,0.33 -7.394,0 0,-0.33 z"
               style="fill:url(#linearGradient32992-6);stroke:none"
               id="path33000" />
          </g>
        </g>
      </g>
    </g>
  </g>
</svg>
