<?xml version="1.0" encoding="UTF-8" standalone="no"?>
<!-- Created with Inkscape (http://www.inkscape.org/) -->

<svg
   xmlns:dc="http://purl.org/dc/elements/1.1/"
   xmlns:cc="http://creativecommons.org/ns#"
   xmlns:rdf="http://www.w3.org/1999/02/22-rdf-syntax-ns#"
   xmlns:svg="http://www.w3.org/2000/svg"
   xmlns="http://www.w3.org/2000/svg"
   xmlns:sodipodi="http://sodipodi.sourceforge.net/DTD/sodipodi-0.dtd"
   xmlns:inkscape="http://www.inkscape.org/namespaces/inkscape"
   width="69.105377"
   height="46.276501"
   id="svg52852"
   version="1.1"
   inkscape:version="0.48.4 r9939"
   sodipodi:docname="New document 38">
  <defs
     id="defs52854">
    <linearGradient
       x1="0"
       y1="0"
       x2="1"
       y2="0"
       gradientUnits="userSpaceOnUse"
       gradientTransform="matrix(0,-12.669678,12.669678,0,347.06853,536.3826)"
       spreadMethod="pad"
       id="linearGradient36656-0">
      <stop
         style="stop-opacity:1;stop-color:#6a6b6d"
         offset="0"
         id="stop36658-0" />
      <stop
         style="stop-opacity:1;stop-color:#656668"
         offset="0.5"
         id="stop36660-3" />
      <stop
         style="stop-opacity:1;stop-color:#5c5c5e"
         offset="1"
         id="stop36662-7" />
    </linearGradient>
    <linearGradient
       x1="0"
       y1="0"
       x2="1"
       y2="0"
       gradientUnits="userSpaceOnUse"
       gradientTransform="matrix(0,-12.669678,12.669678,0,365.68974,536.3826)"
       spreadMethod="pad"
       id="linearGradient36690-9">
      <stop
         style="stop-opacity:1;stop-color:#6a6b6d"
         offset="0"
         id="stop36692-2" />
      <stop
         style="stop-opacity:1;stop-color:#656668"
         offset="0.5"
         id="stop36694-8" />
      <stop
         style="stop-opacity:1;stop-color:#5c5c5e"
         offset="1"
         id="stop36696-4" />
    </linearGradient>
    <linearGradient
       x1="0"
       y1="0"
       x2="1"
       y2="0"
       gradientUnits="userSpaceOnUse"
       gradientTransform="matrix(0,-12.669678,12.669678,0,384.30912,536.3826)"
       spreadMethod="pad"
       id="linearGradient36724-9">
      <stop
         style="stop-opacity:1;stop-color:#6a6b6d"
         offset="0"
         id="stop36726-7" />
      <stop
         style="stop-opacity:1;stop-color:#656668"
         offset="0.5"
         id="stop36728-9" />
      <stop
         style="stop-opacity:1;stop-color:#5c5c5e"
         offset="1"
         id="stop36730-4" />
    </linearGradient>
    <linearGradient
       x1="0"
       y1="0"
       x2="1"
       y2="0"
       gradientUnits="userSpaceOnUse"
       gradientTransform="matrix(0,-12.669678,12.669678,0,402.92972,536.3826)"
       spreadMethod="pad"
       id="linearGradient36758-3">
      <stop
         style="stop-opacity:1;stop-color:#6a6b6d"
         offset="0"
         id="stop36760-6" />
      <stop
         style="stop-opacity:1;stop-color:#656668"
         offset="0.5"
         id="stop36762-6" />
      <stop
         style="stop-opacity:1;stop-color:#5c5c5e"
         offset="1"
         id="stop36764-4" />
    </linearGradient>
  </defs>
  <sodipodi:namedview
     id="base"
     pagecolor="#ffffff"
     bordercolor="#666666"
     borderopacity="1.0"
     inkscape:pageopacity="0.0"
     inkscape:pageshadow="2"
     inkscape:zoom="0.35"
     inkscape:cx="34.55269"
     inkscape:cy="23.138247"
     inkscape:document-units="px"
     inkscape:current-layer="layer1"
     showgrid="false"
     fit-margin-top="0"
     fit-margin-left="0"
     fit-margin-right="0"
     fit-margin-bottom="0"
     inkscape:window-width="551"
     inkscape:window-height="429"
     inkscape:window-x="342"
     inkscape:window-y="0"
     inkscape:window-maximized="0" />
  <metadata
     id="metadata52857">
    <rdf:RDF>
      <cc:Work
         rdf:about="">
        <dc:format>image/svg+xml</dc:format>
        <dc:type
           rdf:resource="http://purl.org/dc/dcmitype/StillImage" />
        <dc:title></dc:title>
      </cc:Work>
    </rdf:RDF>
  </metadata>
  <g
     inkscape:label="Layer 1"
     inkscape:groupmode="layer"
     id="layer1"
     transform="translate(-340.44731,-509.22393)">
    <path
       inkscape:connector-curvature="0"
       d="m 343.31181,513.25518 3.49125,-2.01375 3.49125,-2.0175 0,4.03125 0,4.03375 -3.49125,-2.01625 -3.49125,-2.0175 z"
       style="fill:#6a6b6d;fill-opacity:1;fill-rule:nonzero;stroke:none"
       id="path36642" />
    <path
       inkscape:connector-curvature="0"
       d="m 340.73356,530.0473 c 0,3.49625 2.8375,6.335 6.335,6.335 l 0,0 c 3.4975,0 6.335,-2.83875 6.335,-6.335 l 0,0 c 0,-3.5 -2.8375,-6.33375 -6.335,-6.33375 l 0,0 c -3.4975,0 -6.335,2.83375 -6.335,6.33375"
       style="fill:url(#linearGradient36656-0);stroke:none"
       id="path36664" />
    <path
       inkscape:connector-curvature="0"
       d="m 344.18894,530.04718 2.4475,-1.41375 2.44875,-1.41625 0,2.83 0,2.825 -2.44875,-1.41375 -2.4475,-1.41125 z"
       style="fill:#ffffff;fill-opacity:1;fill-rule:nonzero;stroke:none"
       id="path36676" />
    <path
       inkscape:connector-curvature="0"
       d="m 359.35481,530.0473 c 0,3.49625 2.83625,6.335 6.33375,6.335 l 0,0 c 3.5,0 6.335,-2.83875 6.335,-6.335 l 0,0 c 0,-3.5 -2.835,-6.33375 -6.335,-6.33375 l 0,0 c -3.4975,0 -6.33375,2.83375 -6.33375,6.33375"
       style="fill:url(#linearGradient36690-9);stroke:none"
       id="path36698" />
    <path
       inkscape:connector-curvature="0"
       d="m 368.56881,530.04718 -2.4475,1.41125 -2.44875,1.41375 0,-2.825 0,-2.83 2.44875,1.41625 2.4475,1.41375 z"
       style="fill:#ffffff;fill-opacity:1;fill-rule:nonzero;stroke:none"
       id="path36710" />
    <path
       inkscape:connector-curvature="0"
       d="m 377.97356,530.0473 c 0,3.49625 2.835,6.335 6.3375,6.335 l 0,0 c 3.4975,0 6.33375,-2.83875 6.33375,-6.335 l 0,0 c 0,-3.5 -2.83625,-6.33375 -6.33375,-6.33375 l 0,0 c -3.5025,0 -6.3375,2.83375 -6.3375,6.33375"
       style="fill:url(#linearGradient36724-9);stroke:none"
       id="path36732" />
    <path
       inkscape:connector-curvature="0"
       d="m 384.31094,532.9243 -1.415,-2.44875 -1.41375,-2.44375 2.82875,0 2.82375,0 -1.4125,2.44375 -1.41125,2.44875 z"
       style="fill:#ffffff;fill-opacity:1;fill-rule:nonzero;stroke:none"
       id="path36744" />
    <path
       inkscape:connector-curvature="0"
       d="m 396.59606,530.0473 c 0,3.49625 2.835,6.335 6.335,6.335 l 0,0 c 3.4975,0 6.3325,-2.83875 6.3325,-6.335 l 0,0 c 0,-3.5 -2.835,-6.33375 -6.3325,-6.33375 l 0,0 c -3.5,0 -6.335,2.83375 -6.335,6.33375"
       style="fill:url(#linearGradient36758-3);stroke:none"
       id="path36766" />
    <path
       inkscape:connector-curvature="0"
       d="m 402.93094,527.16755 1.41125,2.445 1.41375,2.4475 -2.825,0 -2.82625,0 1.41375,-2.4475 1.4125,-2.445 z"
       style="fill:#ffffff;fill-opacity:1;fill-rule:nonzero;stroke:none"
       id="path36778" />
    <path
       inkscape:connector-curvature="0"
       d="m 347.06856,542.25543 c -3.65125,0 -6.62125,2.97125 -6.62125,6.6225 0,3.6525 2.97,6.6225 6.62125,6.6225 3.6525,0 6.6225,-2.97 6.6225,-6.6225 0,-3.65125 -2.97,-6.6225 -6.6225,-6.6225 m 6.04625,6.6225 c 0,3.33625 -2.71,6.0475 -6.04625,6.0475 -3.33375,0 -6.04625,-2.71125 -6.04625,-6.0475 0,-3.33375 2.7125,-6.0475 6.04625,-6.0475 3.33625,0 6.04625,2.71375 6.04625,6.0475"
       style="fill:#6a6b6d;fill-opacity:1;fill-rule:nonzero;stroke:none"
       id="path36786" />
    <path
       inkscape:connector-curvature="0"
       d="m 344.18894,548.87768 2.4475,-1.415 2.44875,-1.4125 0,2.8275 0,2.825 -2.44875,-1.4125 -2.4475,-1.4125 z"
       style="fill:#6a6b6d;fill-opacity:1;fill-rule:nonzero;stroke:none"
       id="path36790" />
    <path
       inkscape:connector-curvature="0"
       d="m 365.68856,555.50005 c 3.6525,0 6.6225,-2.97 6.6225,-6.6225 0,-3.65125 -2.97,-6.6225 -6.6225,-6.6225 -3.65,0 -6.62125,2.97125 -6.62125,6.6225 0,3.6525 2.97125,6.6225 6.62125,6.6225 m -6.045,-6.6225 c 0,-3.33375 2.71125,-6.0475 6.045,-6.0475 3.335,0 6.0475,2.71375 6.0475,6.0475 0,3.33625 -2.7125,6.0475 -6.0475,6.0475 -3.33375,0 -6.045,-2.71125 -6.045,-6.0475"
       style="fill:#6a6b6d;fill-opacity:1;fill-rule:nonzero;stroke:none"
       id="path36798" />
    <path
       inkscape:connector-curvature="0"
       d="m 368.56881,548.87768 -2.4475,1.4125 -2.44875,1.415 0,-2.8275 0,-2.8275 2.44875,1.4125 2.4475,1.415 z"
       style="fill:#6a6b6d;fill-opacity:1;fill-rule:nonzero;stroke:none"
       id="path36802" />
    <path
       inkscape:connector-curvature="0"
       d="m 377.68619,548.87768 c 0,3.6525 2.97125,6.6225 6.625,6.6225 3.65,0 6.62125,-2.97 6.62125,-6.6225 0,-3.65125 -2.97125,-6.6225 -6.62125,-6.6225 -3.65375,0 -6.625,2.97125 -6.625,6.6225 m 6.625,-6.0475 c 3.33125,0 6.045,2.71375 6.045,6.0475 0,3.33625 -2.71375,6.0475 -6.045,6.0475 -3.33625,0 -6.04875,-2.71125 -6.04875,-6.0475 0,-3.33375 2.7125,-6.0475 6.04875,-6.0475"
       style="fill:#6a6b6d;fill-opacity:1;fill-rule:nonzero;stroke:none"
       id="path36810" />
    <path
       inkscape:connector-curvature="0"
       d="m 384.31094,551.75618 -1.415,-2.445 -1.41375,-2.45 2.82875,0 2.82375,0 -1.4125,2.45 -1.41125,2.445 z"
       style="fill:#6a6b6d;fill-opacity:1;fill-rule:nonzero;stroke:none"
       id="path36814" />
    <path
       inkscape:connector-curvature="0"
       d="m 409.55269,548.87768 c 0,-3.65125 -2.97125,-6.6225 -6.62125,-6.6225 -3.6525,0 -6.625,2.97125 -6.625,6.6225 0,3.6525 2.9725,6.6225 6.625,6.6225 3.65,0 6.62125,-2.97 6.62125,-6.6225 m -6.62125,6.0475 c -3.33625,0 -6.04875,-2.71125 -6.04875,-6.0475 0,-3.33375 2.7125,-6.0475 6.04875,-6.0475 3.3325,0 6.04625,2.71375 6.04625,6.0475 0,3.33625 -2.71375,6.0475 -6.04625,6.0475"
       style="fill:#6a6b6d;fill-opacity:1;fill-rule:nonzero;stroke:none"
       id="path36822" />
    <path
       inkscape:connector-curvature="0"
       d="m 402.93094,545.9993 1.41125,2.445 1.41375,2.44875 -2.825,0 -2.82625,0 1.41375,-2.44875 1.4125,-2.445 z"
       style="fill:#6a6b6d;fill-opacity:1;fill-rule:nonzero;stroke:none"
       id="path36826" />
    <path
       inkscape:connector-curvature="0"
       d="m 368.18244,513.25518 -3.49125,2.0175 -3.49,2.01625 0,-4.03375 0,-4.03125 3.49,2.0175 3.49125,2.01375 z"
       style="fill:#6a6b6d;fill-opacity:1;fill-rule:nonzero;stroke:none"
       id="path36830" />
    <path
       inkscape:connector-curvature="0"
       d="m 383.12081,516.75005 -2.01625,-3.495 -2.015,-3.49 4.03125,0 4.03125,0 -2.015,3.49 -2.01625,3.495 z"
       style="fill:#6a6b6d;fill-opacity:1;fill-rule:nonzero;stroke:none"
       id="path36834" />
    <path
       inkscape:connector-curvature="0"
       d="m 402.08931,509.76518 2.01625,3.49 2.015,3.495 -4.03125,0 -4.0325,0 2.01625,-3.495 2.01625,-3.49 z"
       style="fill:#6a6b6d;fill-opacity:1;fill-rule:nonzero;stroke:none"
       id="path36838" />
  </g>
</svg>
