<?xml version="1.0" encoding="UTF-8" standalone="no"?>
<!-- Created with Inkscape (http://www.inkscape.org/) -->

<svg
   xmlns:dc="http://purl.org/dc/elements/1.1/"
   xmlns:cc="http://creativecommons.org/ns#"
   xmlns:rdf="http://www.w3.org/1999/02/22-rdf-syntax-ns#"
   xmlns:svg="http://www.w3.org/2000/svg"
   xmlns="http://www.w3.org/2000/svg"
   xmlns:sodipodi="http://sodipodi.sourceforge.net/DTD/sodipodi-0.dtd"
   xmlns:inkscape="http://www.inkscape.org/namespaces/inkscape"
   width="75.543121"
   height="13.14125"
   id="svg53821"
   version="1.1"
   inkscape:version="0.48.4 r9939"
   sodipodi:docname="New document 58">
  <defs
     id="defs53823">
    <clipPath
       clipPathUnits="userSpaceOnUse"
       id="clipPath34638-2">
      <path
         inkscape:connector-curvature="0"
         d="m 0,595.276 841.89,0 L 841.89,0 0,0 0,595.276 z"
         id="path34640-3" />
    </clipPath>
    <linearGradient
       x1="0"
       y1="0"
       x2="1"
       y2="0"
       gradientUnits="userSpaceOnUse"
       gradientTransform="matrix(0,10.513672,10.513672,0,501.34082,166.24512)"
       spreadMethod="pad"
       id="linearGradient34624-9">
      <stop
         style="stop-opacity:1;stop-color:#6a6b6d"
         offset="0"
         id="stop34626-4" />
      <stop
         style="stop-opacity:1;stop-color:#656668"
         offset="0.5"
         id="stop34628-2" />
      <stop
         style="stop-opacity:1;stop-color:#5c5c5e"
         offset="1"
         id="stop34630-2" />
    </linearGradient>
    <linearGradient
       x1="0"
       y1="0"
       x2="1"
       y2="0"
       gradientUnits="userSpaceOnUse"
       gradientTransform="matrix(0,1.0878906,1.0878906,0,466.3916,171.75977)"
       spreadMethod="pad"
       id="linearGradient34602-1">
      <stop
         style="stop-opacity:1;stop-color:#6a6b6d"
         offset="0"
         id="stop34604-4" />
      <stop
         style="stop-opacity:1;stop-color:#656668"
         offset="0.5"
         id="stop34606-4" />
      <stop
         style="stop-opacity:1;stop-color:#5c5c5e"
         offset="1"
         id="stop34608-4" />
    </linearGradient>
    <linearGradient
       x1="0"
       y1="0"
       x2="1"
       y2="0"
       gradientUnits="userSpaceOnUse"
       gradientTransform="matrix(0,10.513672,10.513672,0,467.1748,166.24512)"
       spreadMethod="pad"
       id="linearGradient34580-4">
      <stop
         style="stop-opacity:1;stop-color:#6a6b6d"
         offset="0"
         id="stop34582-0" />
      <stop
         style="stop-opacity:1;stop-color:#656668"
         offset="0.5"
         id="stop34584-7" />
      <stop
         style="stop-opacity:1;stop-color:#5c5c5e"
         offset="1"
         id="stop34586-2" />
    </linearGradient>
    <clipPath
       clipPathUnits="userSpaceOnUse"
       id="clipPath34550-1">
      <path
         inkscape:connector-curvature="0"
         d="m 0,595.276 841.89,0 L 841.89,0 0,0 0,595.276 z"
         id="path34552-9" />
    </clipPath>
    <linearGradient
       x1="0"
       y1="0"
       x2="1"
       y2="0"
       gradientUnits="userSpaceOnUse"
       gradientTransform="matrix(0,10.513672,10.513672,0,484.7002,166.24512)"
       spreadMethod="pad"
       id="linearGradient34536-2">
      <stop
         style="stop-opacity:1;stop-color:#6a6b6d"
         offset="0"
         id="stop34538-8" />
      <stop
         style="stop-opacity:1;stop-color:#656668"
         offset="0.5"
         id="stop34540-6" />
      <stop
         style="stop-opacity:1;stop-color:#5c5c5e"
         offset="1"
         id="stop34542-2" />
    </linearGradient>
    <linearGradient
       x1="0"
       y1="0"
       x2="1"
       y2="0"
       gradientUnits="userSpaceOnUse"
       gradientTransform="matrix(0,3.8545532,3.8545532,0,450.67187,170.33105)"
       spreadMethod="pad"
       id="linearGradient34514-6">
      <stop
         style="stop-opacity:1;stop-color:#6a6b6d"
         offset="0"
         id="stop34516-4" />
      <stop
         style="stop-opacity:1;stop-color:#656668"
         offset="0.5"
         id="stop34518-9" />
      <stop
         style="stop-opacity:1;stop-color:#5c5c5e"
         offset="1"
         id="stop34520-1" />
    </linearGradient>
    <linearGradient
       x1="0"
       y1="0"
       x2="1"
       y2="0"
       gradientUnits="userSpaceOnUse"
       gradientTransform="matrix(0,3.8545532,3.8545532,0,450.67187,170.33105)"
       spreadMethod="pad"
       id="linearGradient34492-7">
      <stop
         style="stop-opacity:1;stop-color:#6a6b6d"
         offset="0"
         id="stop34494-9" />
      <stop
         style="stop-opacity:1;stop-color:#656668"
         offset="0.5"
         id="stop34496-5" />
      <stop
         style="stop-opacity:1;stop-color:#5c5c5e"
         offset="1"
         id="stop34498-6" />
    </linearGradient>
    <linearGradient
       x1="0"
       y1="0"
       x2="1"
       y2="0"
       gradientUnits="userSpaceOnUse"
       gradientTransform="matrix(0,3.8601532,3.8601532,0,450.67187,170.32715)"
       spreadMethod="pad"
       id="linearGradient34470-8">
      <stop
         style="stop-opacity:1;stop-color:#6a6b6d"
         offset="0"
         id="stop34472-9" />
      <stop
         style="stop-opacity:1;stop-color:#656668"
         offset="0.5"
         id="stop34474-8" />
      <stop
         style="stop-opacity:1;stop-color:#5c5c5e"
         offset="1"
         id="stop34476-2" />
    </linearGradient>
    <linearGradient
       x1="0"
       y1="0"
       x2="1"
       y2="0"
       gradientUnits="userSpaceOnUse"
       gradientTransform="matrix(0,3.8601532,3.8601532,0,450.67187,170.32813)"
       spreadMethod="pad"
       id="linearGradient34448-2">
      <stop
         style="stop-opacity:1;stop-color:#6a6b6d"
         offset="0"
         id="stop34450-7" />
      <stop
         style="stop-opacity:1;stop-color:#656668"
         offset="0.5"
         id="stop34452-6" />
      <stop
         style="stop-opacity:1;stop-color:#5c5c5e"
         offset="1"
         id="stop34454-5" />
    </linearGradient>
    <linearGradient
       x1="0"
       y1="0"
       x2="1"
       y2="0"
       gradientUnits="userSpaceOnUse"
       gradientTransform="matrix(0,3.8550262,3.8550262,0,449.44922,170.33008)"
       spreadMethod="pad"
       id="linearGradient34426-1">
      <stop
         style="stop-opacity:1;stop-color:#6a6b6d"
         offset="0"
         id="stop34428-0" />
      <stop
         style="stop-opacity:1;stop-color:#656668"
         offset="0.5"
         id="stop34430-1" />
      <stop
         style="stop-opacity:1;stop-color:#5c5c5e"
         offset="1"
         id="stop34432-5" />
    </linearGradient>
    <linearGradient
       x1="0"
       y1="0"
       x2="1"
       y2="0"
       gradientUnits="userSpaceOnUse"
       gradientTransform="matrix(0,3.8550262,3.8550262,0,451.89453,170.33008)"
       spreadMethod="pad"
       id="linearGradient34404-4">
      <stop
         style="stop-opacity:1;stop-color:#6a6b6d"
         offset="0"
         id="stop34406-8" />
      <stop
         style="stop-opacity:1;stop-color:#656668"
         offset="0.5"
         id="stop34408-5" />
      <stop
         style="stop-opacity:1;stop-color:#5c5c5e"
         offset="1"
         id="stop34410-3" />
    </linearGradient>
    <linearGradient
       x1="0"
       y1="0"
       x2="1"
       y2="0"
       gradientUnits="userSpaceOnUse"
       gradientTransform="matrix(0,10.513672,10.513672,0,451.41602,166.24512)"
       spreadMethod="pad"
       id="linearGradient34382-0">
      <stop
         style="stop-opacity:1;stop-color:#6a6b6d"
         offset="0"
         id="stop34384-9" />
      <stop
         style="stop-opacity:1;stop-color:#656668"
         offset="0.5"
         id="stop34386-4" />
      <stop
         style="stop-opacity:1;stop-color:#5c5c5e"
         offset="1"
         id="stop34388-4" />
    </linearGradient>
  </defs>
  <sodipodi:namedview
     id="base"
     pagecolor="#ffffff"
     bordercolor="#666666"
     borderopacity="1.0"
     inkscape:pageopacity="0.0"
     inkscape:pageshadow="2"
     inkscape:zoom="0.35"
     inkscape:cx="37.771565"
     inkscape:cy="6.5706274"
     inkscape:document-units="px"
     inkscape:current-layer="layer1"
     showgrid="false"
     fit-margin-top="0"
     fit-margin-left="0"
     fit-margin-right="0"
     fit-margin-bottom="0"
     inkscape:window-width="551"
     inkscape:window-height="429"
     inkscape:window-x="342"
     inkscape:window-y="0"
     inkscape:window-maximized="0" />
  <metadata
     id="metadata53826">
    <rdf:RDF>
      <cc:Work
         rdf:about="">
        <dc:format>image/svg+xml</dc:format>
        <dc:type
           rdf:resource="http://purl.org/dc/dcmitype/StillImage" />
        <dc:title></dc:title>
      </cc:Work>
    </rdf:RDF>
  </metadata>
  <g
     inkscape:label="Layer 1"
     inkscape:groupmode="layer"
     id="layer1"
     transform="translate(-337.22843,-525.79156)">
    <g
       transform="matrix(1.25,0,0,-1.25,-220.47344,746.73906)"
       id="g34370">
      <g
         id="g34372">
        <g
           id="g34378">
          <g
             id="g34380">
            <path
               inkscape:connector-curvature="0"
               d="m 447.459,175.46 c -1.73,-1.732 -1.73,-4.54 0,-6.271 l 0,0 c 1.493,-1.495 3.786,-1.695 5.5,-0.612 l 0,0 2.329,-2.332 1.384,1.384 -2.33,2.33 c 1.084,1.713 0.88,4.006 -0.612,5.501 l 0,0 c -0.866,0.866 -2.001,1.298 -3.136,1.298 l 0,0 c -1.135,0 -2.269,-0.432 -3.135,-1.298 m 0.973,-5.298 c -1.196,1.194 -1.196,3.129 0,4.324 l 0,0 c 1.194,1.195 3.13,1.195 4.325,0 l 0,0 c 1.193,-1.195 1.193,-3.13 0,-4.324 l 0,0 c -0.597,-0.597 -1.38,-0.896 -2.163,-0.896 l 0,0 c -0.783,0 -1.565,0.299 -2.162,0.896"
               style="fill:url(#linearGradient34382-0);stroke:none"
               id="path34390" />
          </g>
        </g>
      </g>
    </g>
    <g
       transform="matrix(1.25,0,0,-1.25,-220.47344,746.73906)"
       id="g34392">
      <g
         id="g34394">
        <g
           id="g34400">
          <g
             id="g34402">
            <path
               inkscape:connector-curvature="0"
               d="m 451.087,171.843 1.616,0 0,0.829 -1.616,0 0,-0.829 z"
               style="fill:url(#linearGradient34404-4);stroke:none"
               id="path34412" />
          </g>
        </g>
      </g>
    </g>
    <g
       transform="matrix(1.25,0,0,-1.25,-220.47344,746.73906)"
       id="g34414">
      <g
         id="g34416">
        <g
           id="g34422">
          <g
             id="g34424">
            <path
               inkscape:connector-curvature="0"
               d="m 448.642,171.843 1.615,0 0,0.829 -1.615,0 0,-0.829 z"
               style="fill:url(#linearGradient34426-1);stroke:none"
               id="path34434" />
          </g>
        </g>
      </g>
    </g>
    <g
       transform="matrix(1.25,0,0,-1.25,-220.47344,746.73906)"
       id="g34436">
      <g
         id="g34438">
        <g
           id="g34444">
          <g
             id="g34446">
            <path
               inkscape:connector-curvature="0"
               d="m 450.257,171.843 0,-1.615 0.83,-0.001 0,1.616 -0.83,0 z"
               style="fill:url(#linearGradient34448-2);stroke:none"
               id="path34456" />
          </g>
        </g>
      </g>
    </g>
    <g
       transform="matrix(1.25,0,0,-1.25,-220.47344,746.73906)"
       id="g34458">
      <g
         id="g34460">
        <g
           id="g34466">
          <g
             id="g34468">
            <path
               inkscape:connector-curvature="0"
               d="m 450.257,172.672 0.831,0 0,1.617 -0.831,0 0,-1.617 z"
               style="fill:url(#linearGradient34470-8);stroke:none"
               id="path34478" />
          </g>
        </g>
      </g>
    </g>
    <g
       transform="matrix(1.25,0,0,-1.25,-220.47344,746.73906)"
       id="g34480">
      <g
         id="g34482">
        <g
           id="g34488">
          <g
             id="g34490">
            <path
               inkscape:connector-curvature="0"
               d="m 450.257,171.843 0.831,0 0,0.829 -0.831,0 0,-0.829 z"
               style="fill:url(#linearGradient34492-7);stroke:none"
               id="path34500" />
          </g>
        </g>
      </g>
    </g>
    <g
       transform="matrix(1.25,0,0,-1.25,-220.47344,746.73906)"
       id="g34502">
      <g
         id="g34504">
        <g
           id="g34510">
          <g
             id="g34512">
            <path
               inkscape:connector-curvature="0"
               d="m 450.257,171.843 0.831,0 0,0.829 -0.831,0 0,-0.829 z"
               style="fill:url(#linearGradient34514-6);stroke:none"
               id="path34522" />
          </g>
        </g>
      </g>
    </g>
    <g
       transform="matrix(1.25,0,0,-1.25,-220.47344,746.73906)"
       id="g34524">
      <g
         id="g34526">
        <g
           id="g34532">
          <g
             id="g34534">
            <path
               inkscape:connector-curvature="0"
               d="m 480.741,175.46 c -1.729,-1.732 -1.729,-4.54 0,-6.271 l 0,0 c 1.493,-1.495 3.787,-1.695 5.499,-0.612 l 0,0 2.33,-2.332 1.386,1.384 -2.332,2.33 c 1.084,1.713 0.881,4.006 -0.612,5.501 l 0,0 c -0.866,0.866 -2.001,1.298 -3.135,1.298 l 0,0 c -1.135,0 -2.269,-0.432 -3.136,-1.298"
               style="fill:url(#linearGradient34536-2);stroke:none"
               id="path34544" />
          </g>
        </g>
      </g>
    </g>
    <g
       transform="matrix(1.25,0,0,-1.25,-220.47344,746.73906)"
       id="g34546">
      <g
         id="g34548"
         clip-path="url(#clipPath34550-1)">
        <path
           inkscape:connector-curvature="0"
           d="m 485.781,172.672 -1.616,0 0,-0.828 1.616,0 0,0.828 z"
           style="fill:#ffffff;fill-opacity:1;fill-rule:nonzero;stroke:none"
           id="path34554" />
        <path
           inkscape:connector-curvature="0"
           d="m 481.721,171.844 1.617,0 0,0.828 -1.617,0 0,-0.828 z"
           style="fill:#ffffff;fill-opacity:1;fill-rule:nonzero;stroke:none"
           id="path34556" />
        <g
           id="g34558"
           transform="translate(483.3379,170.2275)">
          <path
             inkscape:connector-curvature="0"
             d="m 0,0 0.827,-0.001 0,1.617 L 0,1.616 0,0 z"
             style="fill:#ffffff;fill-opacity:1;fill-rule:nonzero;stroke:none"
             id="path34560" />
        </g>
        <path
           inkscape:connector-curvature="0"
           d="m 484.165,174.289 -0.827,0 0,-1.617 0.827,0 0,1.617 z"
           style="fill:#ffffff;fill-opacity:1;fill-rule:nonzero;stroke:none"
           id="path34562" />
        <path
           inkscape:connector-curvature="0"
           d="m 483.338,171.844 0.827,0 0,0.828 -0.827,0 0,-0.828 z"
           style="fill:#ffffff;fill-opacity:1;fill-rule:nonzero;stroke:none"
           id="path34564" />
        <path
           inkscape:connector-curvature="0"
           d="m 483.338,171.844 0.827,0 0,0.828 -0.827,0 0,-0.828 z"
           style="fill:#ffffff;fill-opacity:1;fill-rule:nonzero;stroke:none"
           id="path34566" />
      </g>
    </g>
    <g
       transform="matrix(1.25,0,0,-1.25,-220.47344,746.73906)"
       id="g34568">
      <g
         id="g34570">
        <g
           id="g34576">
          <g
             id="g34578">
            <path
               inkscape:connector-curvature="0"
               d="m 463.216,175.46 c -1.729,-1.732 -1.729,-4.54 0,-6.271 l 0,0 c 1.494,-1.495 3.787,-1.695 5.502,-0.612 l 0,0 2.329,-2.332 1.384,1.384 -2.331,2.33 c 1.084,1.713 0.883,4.006 -0.611,5.501 l 0,0 c -0.867,0.866 -2.002,1.298 -3.136,1.298 l 0,0 c -1.135,0 -2.27,-0.432 -3.137,-1.298 m 0.974,-5.298 c -1.194,1.194 -1.194,3.129 0,4.324 l 0,0 c 1.194,1.195 3.13,1.195 4.326,0 l 0,0 c 1.194,-1.195 1.194,-3.13 0,-4.324 l 0,0 c -0.598,-0.597 -1.381,-0.896 -2.164,-0.896 l 0,0 c -0.783,0 -1.565,0.299 -2.162,0.896"
               style="fill:url(#linearGradient34580-4);stroke:none"
               id="path34588" />
          </g>
        </g>
      </g>
    </g>
    <g
       transform="matrix(1.25,0,0,-1.25,-220.47344,746.73906)"
       id="g34590">
      <g
         id="g34592">
        <g
           id="g34598">
          <g
             id="g34600">
            <path
               inkscape:connector-curvature="0"
               d="m 464.303,171.76 4.178,0 0,1.088 -4.178,0 0,-1.088 z"
               style="fill:url(#linearGradient34602-1);stroke:none"
               id="path34610" />
          </g>
        </g>
      </g>
    </g>
    <g
       transform="matrix(1.25,0,0,-1.25,-220.47344,746.73906)"
       id="g34612">
      <g
         id="g34614">
        <g
           id="g34620">
          <g
             id="g34622">
            <path
               inkscape:connector-curvature="0"
               d="m 497.384,175.46 c -1.732,-1.732 -1.732,-4.54 0,-6.271 l 0,0 c 1.492,-1.495 3.785,-1.695 5.498,-0.612 l 0,0 2.331,-2.332 1.383,1.384 -2.33,2.33 c 1.085,1.713 0.881,4.006 -0.612,5.501 l 0,0 c -0.866,0.866 -2.001,1.298 -3.136,1.298 l 0,0 c -1.135,0 -2.269,-0.432 -3.134,-1.298"
               style="fill:url(#linearGradient34624-9);stroke:none"
               id="path34632" />
          </g>
        </g>
      </g>
    </g>
    <g
       transform="matrix(1.25,0,0,-1.25,-220.47344,746.73906)"
       id="g34634">
      <g
         id="g34636"
         clip-path="url(#clipPath34638-2)">
        <path
           inkscape:connector-curvature="0"
           d="m 502.578,171.76 -4.177,0 0,1.088 4.177,0 0,-1.088 z"
           style="fill:#ffffff;fill-opacity:1;fill-rule:nonzero;stroke:none"
           id="path34642" />
      </g>
    </g>
  </g>
</svg>
